<?xml version="1.0" encoding="UTF-8" standalone="no"?>
<!DOCTYPE svg PUBLIC "-//W3C//DTD SVG 1.1//EN"
 "http://www.w3.org/Graphics/SVG/1.1/DTD/svg11.dtd">
<!-- Generated by graphviz version 12.0.0 (20240704.0754)
 -->
<!-- Title: oneDegreeRelationshipsDiagram Pages: 1 -->
<svg width="263pt" height="159pt"
 viewBox="0.00 0.00 263.00 159.00" xmlns="http://www.w3.org/2000/svg" xmlns:xlink="http://www.w3.org/1999/xlink">
<g id="graph0" class="graph" transform="scale(1 1) rotate(0) translate(4 155)">
<title>oneDegreeRelationshipsDiagram</title>
<polygon fill="#ffffff" stroke="none" points="-4,4 -4,-155 259,-155 259,4 -4,4"/>
<text text-anchor="middle" x="71.38" y="-5.55" font-family="Helvetica,sans-Serif" font-size="11.00">Generated by SchemaSpy</text>
<!-- __drizzle_migrations -->
<g id="node1" class="node">
<title>__drizzle_migrations</title>
<g id="a_node1"><a xlink:href="../../tables/__drizzle_migrations.html" xlink:title="__drizzle_migrations" target="_top">
<polygon fill="#ffffff" stroke="none" points="8,-37 8,-147 247,-147 247,-37 8,-37"/>
<polygon fill="#f5f5f5" stroke="none" points="10,-123 10,-145 245,-145 245,-123 10,-123"/>
<polygon fill="none" stroke="black" points="10,-123 10,-145 245,-145 245,-123 10,-123"/>
<text text-anchor="start" x="15" y="-130.55" font-family="Helvetica,sans-Serif" font-weight="bold" font-size="11.00">__drizzle_migrations</text>
<text text-anchor="start" x="210.75" y="-129.55" font-family="Helvetica,sans-Serif" font-size="11.00">[table]</text>
<polygon fill="none" stroke="black" points="10,-101 10,-123 149,-123 149,-101 10,-101"/>
<image xlink:href="../../images/primaryKeys.png" width="11px" height="12px" preserveAspectRatio="xMinYMin meet" x="15" y="-118"/>
<text text-anchor="start" x="30" y="-107.55" font-family="Helvetica,sans-Serif" font-size="11.00">id</text>
<polygon fill="none" stroke="black" points="149,-101 149,-123 245,-123 245,-101 149,-101"/>
<text text-anchor="start" x="152" y="-107.55" font-family="Helvetica,sans-Serif" font-size="11.00">bigint unsigned[20]</text>
<polygon fill="none" stroke="black" points="10,-79 10,-101 149,-101 149,-79 10,-79"/>
<text text-anchor="start" x="30" y="-85.55" font-family="Helvetica,sans-Serif" font-size="11.00">hash</text>
<polygon fill="none" stroke="black" points="149,-79 149,-101 245,-101 245,-79 149,-79"/>
<text text-anchor="start" x="152" y="-85.55" font-family="Helvetica,sans-Serif" font-size="11.00">text[65535]</text>
<polygon fill="none" stroke="black" points="10,-57 10,-79 149,-79 149,-57 10,-57"/>
<text text-anchor="start" x="30" y="-63.55" font-family="Helvetica,sans-Serif" font-size="11.00">created_at</text>
<polygon fill="none" stroke="black" points="149,-57 149,-79 245,-79 245,-57 149,-57"/>
<text text-anchor="start" x="152" y="-63.55" font-family="Helvetica,sans-Serif" font-size="11.00">bigint[19]</text>
<polygon fill="#ffffff" stroke="none" points="10,-39 10,-57 71,-57 71,-39 10,-39"/>
<polygon fill="none" stroke="black" points="10,-39 10,-57 71,-57 71,-39 10,-39"/>
<text text-anchor="start" x="13" y="-43.55" font-family="Helvetica,sans-Serif" font-size="11.00">&lt; 0</text>
<polygon fill="#ffffff" stroke="none" points="71,-39 71,-57 149,-57 149,-39 71,-39"/>
<polygon fill="none" stroke="black" points="71,-39 71,-57 149,-57 149,-39 71,-39"/>
<text text-anchor="start" x="113.75" y="-43.55" font-family="Helvetica,sans-Serif" font-size="11.00">0 rows</text>
<polygon fill="#ffffff" stroke="none" points="149,-39 149,-57 245,-57 245,-39 149,-39"/>
<polygon fill="none" stroke="black" points="149,-39 149,-57 245,-57 245,-39 149,-39"/>
<text text-anchor="start" x="226.25" y="-43.55" font-family="Helvetica,sans-Serif" font-size="11.00">0 &gt;</text>
<polygon fill="none" stroke="black" stroke-width="2" points="9,-38 9,-146 246,-146 246,-38 9,-38"/>
</a>
</g>
</g>
</g>
</svg>
