<?xml version="1.0" encoding="UTF-8" standalone="no"?>
<!DOCTYPE svg PUBLIC "-//W3C//DTD SVG 1.1//EN"
 "http://www.w3.org/Graphics/SVG/1.1/DTD/svg11.dtd">
<!-- Generated by graphviz version 12.0.0 (20240704.0754)
 -->
<!-- Title: oneDegreeRelationshipsDiagram Pages: 1 -->
<svg width="202pt" height="247pt"
 viewBox="0.00 0.00 202.00 247.00" xmlns="http://www.w3.org/2000/svg" xmlns:xlink="http://www.w3.org/1999/xlink">
<g id="graph0" class="graph" transform="scale(1 1) rotate(0) translate(4 243)">
<title>oneDegreeRelationshipsDiagram</title>
<polygon fill="#ffffff" stroke="none" points="-4,4 -4,-243 198,-243 198,4 -4,4"/>
<text text-anchor="middle" x="71.38" y="-5.55" font-family="Helvetica,sans-Serif" font-size="11.00">Generated by SchemaSpy</text>
<!-- admins -->
<g id="node1" class="node">
<title>admins</title>
<g id="a_node1"><a xlink:href="../../tables/admins.html" xlink:title="admins" target="_top">
<polygon fill="#ffffff" stroke="none" points="8,-37 8,-235 186,-235 186,-37 8,-37"/>
<polygon fill="#f5f5f5" stroke="none" points="10,-211 10,-233 184,-233 184,-211 10,-211"/>
<polygon fill="none" stroke="black" points="10,-211 10,-233 184,-233 184,-211 10,-211"/>
<text text-anchor="start" x="14.88" y="-218.55" font-family="Helvetica,sans-Serif" font-weight="bold" font-size="11.00">admins</text>
<text text-anchor="start" x="149.75" y="-217.55" font-family="Helvetica,sans-Serif" font-size="11.00">[table]</text>
<polygon fill="none" stroke="black" points="10,-189 10,-211 111,-211 111,-189 10,-189"/>
<image xlink:href="../../images/primaryKeys.png" width="11px" height="12px" preserveAspectRatio="xMinYMin meet" x="15" y="-206"/>
<text text-anchor="start" x="30" y="-195.55" font-family="Helvetica,sans-Serif" font-size="11.00">id</text>
<polygon fill="none" stroke="black" points="111,-189 111,-211 184,-211 184,-189 111,-189"/>
<text text-anchor="start" x="114" y="-195.55" font-family="Helvetica,sans-Serif" font-size="11.00">bigint[19]</text>
<polygon fill="#ffffff" stroke="none" points="10,-167 10,-189 111,-189 111,-167 10,-167"/>
<polygon fill="none" stroke="black" points="10,-167 10,-189 111,-189 111,-167 10,-167"/>
<text text-anchor="start" x="30" y="-173.55" font-family="Helvetica,sans-Serif" font-size="11.00">name</text>
<polygon fill="none" stroke="black" points="111,-167 111,-189 184,-189 184,-167 111,-167"/>
<text text-anchor="start" x="114" y="-173.55" font-family="Helvetica,sans-Serif" font-size="11.00">varchar[50]</text>
<polygon fill="#ffffff" stroke="none" points="10,-145 10,-167 111,-167 111,-145 10,-145"/>
<polygon fill="none" stroke="black" points="10,-145 10,-167 111,-167 111,-145 10,-145"/>
<text text-anchor="start" x="30" y="-151.55" font-family="Helvetica,sans-Serif" font-size="11.00">email</text>
<polygon fill="none" stroke="black" points="111,-145 111,-167 184,-167 184,-145 111,-145"/>
<text text-anchor="start" x="114" y="-151.55" font-family="Helvetica,sans-Serif" font-size="11.00">varchar[50]</text>
<polygon fill="none" stroke="black" points="10,-123 10,-145 111,-145 111,-123 10,-123"/>
<text text-anchor="start" x="30" y="-129.55" font-family="Helvetica,sans-Serif" font-size="11.00">email_verified</text>
<polygon fill="none" stroke="black" points="111,-123 111,-145 184,-145 184,-123 111,-123"/>
<text text-anchor="start" x="114" y="-129.55" font-family="Helvetica,sans-Serif" font-size="11.00">varchar[50]</text>
<polygon fill="none" stroke="black" points="10,-101 10,-123 111,-123 111,-101 10,-101"/>
<text text-anchor="start" x="30" y="-107.55" font-family="Helvetica,sans-Serif" font-size="11.00">password</text>
<polygon fill="none" stroke="black" points="111,-101 111,-123 184,-123 184,-101 111,-101"/>
<text text-anchor="start" x="114" y="-107.55" font-family="Helvetica,sans-Serif" font-size="11.00">varchar[255]</text>
<polygon fill="none" stroke="black" points="10,-79 10,-101 111,-101 111,-79 10,-79"/>
<text text-anchor="start" x="30" y="-85.55" font-family="Helvetica,sans-Serif" font-size="11.00">created_at</text>
<polygon fill="none" stroke="black" points="111,-79 111,-101 184,-101 184,-79 111,-79"/>
<text text-anchor="start" x="113.75" y="-85.55" font-family="Helvetica,sans-Serif" font-size="11.00">timestamp[19]</text>
<polygon fill="none" stroke="black" points="10,-57 10,-79 111,-79 111,-57 10,-57"/>
<text text-anchor="start" x="30" y="-63.55" font-family="Helvetica,sans-Serif" font-size="11.00">updated_at</text>
<polygon fill="none" stroke="black" points="111,-57 111,-79 184,-79 184,-57 111,-57"/>
<text text-anchor="start" x="113.75" y="-63.55" font-family="Helvetica,sans-Serif" font-size="11.00">timestamp[19]</text>
<polygon fill="#ffffff" stroke="none" points="10,-39 10,-57 52,-57 52,-39 10,-39"/>
<polygon fill="none" stroke="black" points="10,-39 10,-57 52,-57 52,-39 10,-39"/>
<text text-anchor="start" x="13" y="-43.55" font-family="Helvetica,sans-Serif" font-size="11.00">&lt; 0</text>
<polygon fill="#ffffff" stroke="none" points="52,-39 52,-57 111,-57 111,-39 52,-39"/>
<polygon fill="none" stroke="black" points="52,-39 52,-57 111,-57 111,-39 52,-39"/>
<text text-anchor="start" x="75.75" y="-43.55" font-family="Helvetica,sans-Serif" font-size="11.00">7 rows</text>
<polygon fill="#ffffff" stroke="none" points="111,-39 111,-57 184,-57 184,-39 111,-39"/>
<polygon fill="none" stroke="black" points="111,-39 111,-57 184,-57 184,-39 111,-39"/>
<text text-anchor="start" x="165.25" y="-43.55" font-family="Helvetica,sans-Serif" font-size="11.00">0 &gt;</text>
<polygon fill="none" stroke="black" stroke-width="2" points="9,-38 9,-234 185,-234 185,-38 9,-38"/>
</a>
</g>
</g>
</g>
</svg>
