<?xml version="1.0" encoding="UTF-8" standalone="no"?>
<!DOCTYPE svg PUBLIC "-//W3C//DTD SVG 1.1//EN"
 "http://www.w3.org/Graphics/SVG/1.1/DTD/svg11.dtd">
<!-- Generated by graphviz version 12.0.0 (20240704.0754)
 -->
<!-- Title: oneDegreeRelationshipsDiagram Pages: 1 -->
<svg width="488pt" height="333pt"
 viewBox="0.00 0.00 488.00 333.00" xmlns="http://www.w3.org/2000/svg" xmlns:xlink="http://www.w3.org/1999/xlink">
<g id="graph0" class="graph" transform="scale(1 1) rotate(0) translate(4 329)">
<title>oneDegreeRelationshipsDiagram</title>
<polygon fill="#ffffff" stroke="none" points="-4,4 -4,-329 484,-329 484,4 -4,4"/>
<text text-anchor="middle" x="71.38" y="-5.55" font-family="Helvetica,sans-Serif" font-size="11.00">Generated by SchemaSpy</text>
<!-- areas -->
<g id="node1" class="node">
<title>areas</title>
<g id="a_node1"><a xlink:href="../../tables/areas.html" xlink:title="areas" target="_top">
<polygon fill="#ffffff" stroke="none" points="150,-37 150,-279 313,-279 313,-37 150,-37"/>
<polygon fill="#f5f5f5" stroke="none" points="152,-255 152,-277 311,-277 311,-255 152,-255"/>
<polygon fill="none" stroke="black" points="152,-255 152,-277 311,-277 311,-255 152,-255"/>
<text text-anchor="start" x="156.25" y="-262.55" font-family="Helvetica,sans-Serif" font-weight="bold" font-size="11.00">areas</text>
<text text-anchor="start" x="276.75" y="-261.55" font-family="Helvetica,sans-Serif" font-size="11.00">[table]</text>
<polygon fill="none" stroke="black" points="152,-233 152,-255 238,-255 238,-233 152,-233"/>
<image xlink:href="../../images/primaryKeys.png" width="11px" height="12px" preserveAspectRatio="xMinYMin meet" x="157" y="-250"/>
<text text-anchor="start" x="172" y="-239.55" font-family="Helvetica,sans-Serif" font-size="11.00">id</text>
<polygon fill="none" stroke="black" points="238,-233 238,-255 311,-255 311,-233 238,-233"/>
<text text-anchor="start" x="241" y="-239.55" font-family="Helvetica,sans-Serif" font-size="11.00">bigint[19]</text>
<polygon fill="#ffffff" stroke="none" points="152,-211 152,-233 238,-233 238,-211 152,-211"/>
<polygon fill="none" stroke="black" points="152,-211 152,-233 238,-233 238,-211 152,-211"/>
<text text-anchor="start" x="172" y="-217.55" font-family="Helvetica,sans-Serif" font-size="11.00">name</text>
<polygon fill="none" stroke="black" points="238,-211 238,-233 311,-233 311,-211 238,-211"/>
<text text-anchor="start" x="241" y="-217.55" font-family="Helvetica,sans-Serif" font-size="11.00">varchar[50]</text>
<polygon fill="#ffffff" stroke="none" points="152,-189 152,-211 238,-211 238,-189 152,-189"/>
<polygon fill="none" stroke="black" points="152,-189 152,-211 238,-211 238,-189 152,-189"/>
<image xlink:href="../../images/foreignKeys.png" width="11px" height="12px" preserveAspectRatio="xMinYMin meet" x="157" y="-206"/>
<text text-anchor="start" x="172" y="-195.55" font-family="Helvetica,sans-Serif" font-size="11.00">attribute_id</text>
<polygon fill="none" stroke="black" points="238,-189 238,-211 311,-211 311,-189 238,-189"/>
<text text-anchor="start" x="241" y="-195.55" font-family="Helvetica,sans-Serif" font-size="11.00">bigint[19]</text>
<polygon fill="#ffffff" stroke="none" points="152,-167 152,-189 238,-189 238,-167 152,-167"/>
<polygon fill="none" stroke="black" points="152,-167 152,-189 238,-189 238,-167 152,-167"/>
<image xlink:href="../../images/foreignKeys.png" width="11px" height="12px" preserveAspectRatio="xMinYMin meet" x="157" y="-184"/>
<text text-anchor="start" x="172" y="-173.55" font-family="Helvetica,sans-Serif" font-size="11.00">fee_id</text>
<polygon fill="none" stroke="black" points="238,-167 238,-189 311,-189 311,-167 238,-167"/>
<text text-anchor="start" x="241" y="-173.55" font-family="Helvetica,sans-Serif" font-size="11.00">bigint[19]</text>
<polygon fill="none" stroke="black" points="152,-145 152,-167 238,-167 238,-145 152,-145"/>
<text text-anchor="start" x="172" y="-151.55" font-family="Helvetica,sans-Serif" font-size="11.00">address</text>
<polygon fill="none" stroke="black" points="238,-145 238,-167 311,-167 311,-145 238,-145"/>
<text text-anchor="start" x="241" y="-151.55" font-family="Helvetica,sans-Serif" font-size="11.00">varchar[50]</text>
<polygon fill="none" stroke="black" points="152,-123 152,-145 238,-145 238,-123 152,-123"/>
<text text-anchor="start" x="172" y="-129.55" font-family="Helvetica,sans-Serif" font-size="11.00">max_num</text>
<polygon fill="none" stroke="black" points="238,-123 238,-145 311,-145 311,-123 238,-123"/>
<text text-anchor="start" x="241" y="-129.55" font-family="Helvetica,sans-Serif" font-size="11.00">int[10]</text>
<polygon fill="none" stroke="black" points="152,-101 152,-123 238,-123 238,-101 152,-101"/>
<text text-anchor="start" x="172" y="-107.55" font-family="Helvetica,sans-Serif" font-size="11.00">created_at</text>
<polygon fill="none" stroke="black" points="238,-101 238,-123 311,-123 311,-101 238,-101"/>
<text text-anchor="start" x="240.75" y="-107.55" font-family="Helvetica,sans-Serif" font-size="11.00">timestamp[19]</text>
<polygon fill="none" stroke="black" points="152,-79 152,-101 238,-101 238,-79 152,-79"/>
<text text-anchor="start" x="172" y="-85.55" font-family="Helvetica,sans-Serif" font-size="11.00">updated_at</text>
<polygon fill="none" stroke="black" points="238,-79 238,-101 311,-101 311,-79 238,-79"/>
<text text-anchor="start" x="240.75" y="-85.55" font-family="Helvetica,sans-Serif" font-size="11.00">timestamp[19]</text>
<polygon fill="none" stroke="black" points="152,-57 152,-79 238,-79 238,-57 152,-57"/>
<text text-anchor="start" x="172" y="-63.55" font-family="Helvetica,sans-Serif" font-size="11.00">deleted_at</text>
<polygon fill="none" stroke="black" points="238,-57 238,-79 311,-79 311,-57 238,-57"/>
<text text-anchor="start" x="240.75" y="-63.55" font-family="Helvetica,sans-Serif" font-size="11.00">timestamp[19]</text>
<polygon fill="#ffffff" stroke="none" points="152,-39 152,-57 186,-57 186,-39 152,-39"/>
<polygon fill="none" stroke="black" points="152,-39 152,-57 186,-57 186,-39 152,-39"/>
<text text-anchor="start" x="155" y="-43.55" font-family="Helvetica,sans-Serif" font-size="11.00">&lt; 2</text>
<polygon fill="#ffffff" stroke="none" points="186,-39 186,-57 238,-57 238,-39 186,-39"/>
<polygon fill="none" stroke="black" points="186,-39 186,-57 238,-57 238,-39 186,-39"/>
<text text-anchor="start" x="202.75" y="-43.55" font-family="Helvetica,sans-Serif" font-size="11.00">6 rows</text>
<polygon fill="#ffffff" stroke="none" points="238,-39 238,-57 311,-57 311,-39 238,-39"/>
<polygon fill="none" stroke="black" points="238,-39 238,-57 311,-57 311,-39 238,-39"/>
<text text-anchor="start" x="292.25" y="-43.55" font-family="Helvetica,sans-Serif" font-size="11.00">1 &gt;</text>
<polygon fill="none" stroke="black" stroke-width="2" points="151,-38 151,-278 312,-278 312,-38 151,-38"/>
</a>
</g>
</g>
<!-- attributes -->
<g id="node2" class="node">
<title>attributes</title>
<g id="a_node2"><a xlink:href="../../tables/attributes.html" xlink:title="attributes" target="_top">
<polygon fill="#ffffff" stroke="none" points="8,-182 8,-284 101,-284 101,-182 8,-182"/>
<polygon fill="#f5f5f5" stroke="none" points="8,-262 8,-284 101,-284 101,-262 8,-262"/>
<polygon fill="none" stroke="black" points="8,-262 8,-284 101,-284 101,-262 8,-262"/>
<text text-anchor="start" x="12.88" y="-269.55" font-family="Helvetica,sans-Serif" font-weight="bold" font-size="11.00">attributes</text>
<text text-anchor="start" x="67" y="-268.55" font-family="Helvetica,sans-Serif" font-size="11.00">[table]</text>
<polygon fill="none" stroke="black" points="8,-240 8,-262 101,-262 101,-240 8,-240"/>
<image xlink:href="../../images/primaryKeys.png" width="11px" height="12px" preserveAspectRatio="xMinYMin meet" x="13" y="-257"/>
<text text-anchor="start" x="32" y="-246.55" font-family="Helvetica,sans-Serif" font-size="11.00">id</text>
<polygon fill="#ffffff" stroke="none" points="8,-218 8,-240 101,-240 101,-218 8,-218"/>
<polygon fill="none" stroke="black" points="8,-218 8,-240 101,-240 101,-218 8,-218"/>
<text text-anchor="start" x="32" y="-224.55" font-family="Helvetica,sans-Serif" font-size="11.00">name</text>
<polygon fill="none" stroke="black" points="8,-200 8,-218 101,-218 101,-200 8,-200"/>
<text text-anchor="start" x="11" y="-204.55" font-family="Helvetica,sans-Serif" font-size="11.00">...</text>
<polygon fill="#ffffff" stroke="none" points="8,-182 8,-200 31,-200 31,-182 8,-182"/>
<polygon fill="none" stroke="black" points="8,-182 8,-200 31,-200 31,-182 8,-182"/>
<text text-anchor="start" x="11" y="-186.55" font-family="Helvetica,sans-Serif" font-size="11.00"> &#160;</text>
<polygon fill="#ffffff" stroke="none" points="31,-182 31,-200 74,-200 74,-182 31,-182"/>
<polygon fill="none" stroke="black" points="31,-182 31,-200 74,-200 74,-182 31,-182"/>
<text text-anchor="start" x="38.75" y="-186.55" font-family="Helvetica,sans-Serif" font-size="11.00">8 rows</text>
<polygon fill="#ffffff" stroke="none" points="74,-182 74,-200 101,-200 101,-182 74,-182"/>
<polygon fill="none" stroke="black" points="74,-182 74,-200 101,-200 101,-182 74,-182"/>
<text text-anchor="start" x="82.25" y="-186.55" font-family="Helvetica,sans-Serif" font-size="11.00">2 &gt;</text>
</a>
</g>
</g>
<!-- areas&#45;&gt;attributes -->
<g id="edge1" class="edge">
<title>areas:w&#45;&gt;attributes:e</title>
<path fill="none" stroke="black" d="M136.31,-205.85C123.4,-219.25 126.8,-251 102,-251"/>
<polygon fill="black" stroke="black" points="143.26,-203.08 152.02,-203.47 147.28,-201.48 150.38,-200.25 150.38,-200.25 150.38,-200.25 147.28,-201.48 149.36,-196.78 143.26,-203.08"/>
<ellipse fill="none" stroke="black" cx="138.69" cy="-204.9" rx="3.2" ry="3.2"/>
</g>
<!-- fees -->
<g id="node3" class="node">
<title>fees</title>
<g id="a_node3"><a xlink:href="../../tables/fees.html" xlink:title="fees" target="_top">
<polygon fill="#ffffff" stroke="none" points="12,-59 12,-161 97,-161 97,-59 12,-59"/>
<polygon fill="#f5f5f5" stroke="none" points="12,-139 12,-161 97,-161 97,-139 12,-139"/>
<polygon fill="none" stroke="black" points="12,-139 12,-161 97,-161 97,-139 12,-139"/>
<text text-anchor="start" x="16.12" y="-146.55" font-family="Helvetica,sans-Serif" font-weight="bold" font-size="11.00">fees</text>
<text text-anchor="start" x="62.75" y="-145.55" font-family="Helvetica,sans-Serif" font-size="11.00">[table]</text>
<polygon fill="none" stroke="black" points="12,-117 12,-139 97,-139 97,-117 12,-117"/>
<image xlink:href="../../images/primaryKeys.png" width="11px" height="12px" preserveAspectRatio="xMinYMin meet" x="17" y="-134"/>
<text text-anchor="start" x="32" y="-123.55" font-family="Helvetica,sans-Serif" font-size="11.00">id</text>
<polygon fill="#ffffff" stroke="none" points="12,-95 12,-117 97,-117 97,-95 12,-95"/>
<polygon fill="none" stroke="black" points="12,-95 12,-117 97,-117 97,-95 12,-95"/>
<text text-anchor="start" x="32" y="-101.55" font-family="Helvetica,sans-Serif" font-size="11.00">name</text>
<polygon fill="none" stroke="black" points="12,-77 12,-95 97,-95 97,-77 12,-77"/>
<text text-anchor="start" x="15" y="-81.55" font-family="Helvetica,sans-Serif" font-size="11.00">...</text>
<polygon fill="#ffffff" stroke="none" points="12,-59 12,-77 31,-77 31,-59 12,-59"/>
<polygon fill="none" stroke="black" points="12,-59 12,-77 31,-77 31,-59 12,-59"/>
<text text-anchor="start" x="15" y="-63.55" font-family="Helvetica,sans-Serif" font-size="11.00"> &#160;</text>
<polygon fill="#ffffff" stroke="none" points="31,-59 31,-77 72,-77 72,-59 31,-59"/>
<polygon fill="none" stroke="black" points="31,-59 31,-77 72,-77 72,-59 31,-59"/>
<text text-anchor="start" x="36.75" y="-63.55" font-family="Helvetica,sans-Serif" font-size="11.00">7 rows</text>
<polygon fill="#ffffff" stroke="none" points="72,-59 72,-77 97,-77 97,-59 72,-59"/>
<polygon fill="none" stroke="black" points="72,-59 72,-77 97,-77 97,-59 72,-59"/>
<text text-anchor="start" x="78.25" y="-63.55" font-family="Helvetica,sans-Serif" font-size="11.00">1 &gt;</text>
</a>
</g>
</g>
<!-- areas&#45;&gt;fees -->
<g id="edge2" class="edge">
<title>areas:w&#45;&gt;fees:e</title>
<path fill="none" stroke="black" d="M136.42,-173.02C121.53,-160.38 124.06,-128 98,-128"/>
<polygon fill="black" stroke="black" points="143.11,-175.31 149.52,-181.3 147.21,-176.71 150.37,-177.78 150.37,-177.78 150.37,-177.78 147.21,-176.71 151.85,-174.48 143.11,-175.31"/>
<ellipse fill="none" stroke="black" cx="138.46" cy="-173.72" rx="3.2" ry="3.2"/>
</g>
<!-- reservations -->
<g id="node4" class="node">
<title>reservations</title>
<g id="a_node4"><a xlink:href="../../tables/reservations.html" xlink:title="reservations" target="_top">
<polygon fill="#ffffff" stroke="none" points="362,-197 362,-321 472,-321 472,-197 362,-197"/>
<polygon fill="#f5f5f5" stroke="none" points="362,-299 362,-321 472,-321 472,-299 362,-299"/>
<polygon fill="none" stroke="black" points="362,-299 362,-321 472,-321 472,-299 362,-299"/>
<text text-anchor="start" x="367" y="-306.55" font-family="Helvetica,sans-Serif" font-weight="bold" font-size="11.00">reservations</text>
<text text-anchor="start" x="438" y="-305.55" font-family="Helvetica,sans-Serif" font-size="11.00">[table]</text>
<polygon fill="none" stroke="black" points="362,-277 362,-299 472,-299 472,-277 362,-277"/>
<image xlink:href="../../images/primaryKeys.png" width="11px" height="12px" preserveAspectRatio="xMinYMin meet" x="367" y="-294"/>
<text text-anchor="start" x="391" y="-283.55" font-family="Helvetica,sans-Serif" font-size="11.00">id</text>
<polygon fill="#ffffff" stroke="none" points="362,-255 362,-277 472,-277 472,-255 362,-255"/>
<polygon fill="none" stroke="black" points="362,-255 362,-277 472,-277 472,-255 362,-255"/>
<image xlink:href="../../images/foreignKeys.png" width="11px" height="12px" preserveAspectRatio="xMinYMin meet" x="367" y="-272"/>
<text text-anchor="start" x="391" y="-261.55" font-family="Helvetica,sans-Serif" font-size="11.00">user_id</text>
<polygon fill="#ffffff" stroke="none" points="362,-233 362,-255 472,-255 472,-233 362,-233"/>
<polygon fill="none" stroke="black" points="362,-233 362,-255 472,-255 472,-233 362,-233"/>
<image xlink:href="../../images/foreignKeys.png" width="11px" height="12px" preserveAspectRatio="xMinYMin meet" x="367" y="-250"/>
<text text-anchor="start" x="391" y="-239.55" font-family="Helvetica,sans-Serif" font-size="11.00">area_id</text>
<polygon fill="none" stroke="black" points="362,-215 362,-233 472,-233 472,-215 362,-215"/>
<text text-anchor="start" x="365" y="-219.55" font-family="Helvetica,sans-Serif" font-size="11.00">...</text>
<polygon fill="#ffffff" stroke="none" points="362,-197 362,-215 402,-215 402,-197 362,-197"/>
<polygon fill="none" stroke="black" points="362,-197 362,-215 402,-215 402,-197 362,-197"/>
<text text-anchor="start" x="365" y="-201.55" font-family="Helvetica,sans-Serif" font-size="11.00">&lt; 2</text>
<polygon fill="#ffffff" stroke="none" points="402,-197 402,-215 450,-215 450,-197 402,-197"/>
<polygon fill="none" stroke="black" points="402,-197 402,-215 450,-215 450,-197 402,-197"/>
<text text-anchor="start" x="414.75" y="-201.55" font-family="Helvetica,sans-Serif" font-size="11.00">8 rows</text>
<polygon fill="#ffffff" stroke="none" points="450,-197 450,-215 472,-215 472,-197 450,-197"/>
<polygon fill="none" stroke="black" points="450,-197 450,-215 472,-215 472,-197 450,-197"/>
<text text-anchor="start" x="463" y="-201.55" font-family="Helvetica,sans-Serif" font-size="11.00"> &#160;</text>
</a>
</g>
</g>
<!-- reservations&#45;&gt;areas -->
<g id="edge3" class="edge">
<title>reservations:w&#45;&gt;areas:e</title>
<path fill="none" stroke="black" d="M345.42,-244C334.71,-244 327.48,-244 312,-244"/>
<polygon fill="black" stroke="black" points="352.67,-244 360.67,-247.6 357,-244 360.33,-244 360.33,-244 360.33,-244 357,-244 360.67,-240.4 352.67,-244"/>
<ellipse fill="none" stroke="black" cx="347.75" cy="-244" rx="3.2" ry="3.2"/>
</g>
</g>
</svg>
