<?xml version="1.0" encoding="UTF-8" standalone="no"?>
<!DOCTYPE svg PUBLIC "-//W3C//DTD SVG 1.1//EN"
 "http://www.w3.org/Graphics/SVG/1.1/DTD/svg11.dtd">
<!-- Generated by graphviz version 12.0.0 (20240704.0754)
 -->
<!-- Title: twoDegreesRelationshipsDiagram Pages: 1 -->
<svg width="488pt" height="370pt"
 viewBox="0.00 0.00 488.00 370.00" xmlns="http://www.w3.org/2000/svg" xmlns:xlink="http://www.w3.org/1999/xlink">
<g id="graph0" class="graph" transform="scale(1 1) rotate(0) translate(4 366)">
<title>twoDegreesRelationshipsDiagram</title>
<polygon fill="#ffffff" stroke="none" points="-4,4 -4,-366 484,-366 484,4 -4,4"/>
<text text-anchor="middle" x="71.38" y="-5.55" font-family="Helvetica,sans-Serif" font-size="11.00">Generated by SchemaSpy</text>
<!-- areas -->
<g id="node1" class="node">
<title>areas</title>
<g id="a_node1"><a xlink:href="../../tables/areas.html" xlink:title="areas" target="_top">
<polygon fill="#ffffff" stroke="none" points="150,-37 150,-279 313,-279 313,-37 150,-37"/>
<polygon fill="#f5f5f5" stroke="none" points="152,-255 152,-277 311,-277 311,-255 152,-255"/>
<polygon fill="none" stroke="black" points="152,-255 152,-277 311,-277 311,-255 152,-255"/>
<text text-anchor="start" x="156.25" y="-262.55" font-family="Helvetica,sans-Serif" font-weight="bold" font-size="11.00">areas</text>
<text text-anchor="start" x="276.75" y="-261.55" font-family="Helvetica,sans-Serif" font-size="11.00">[table]</text>
<polygon fill="none" stroke="black" points="152,-233 152,-255 238,-255 238,-233 152,-233"/>
<image xlink:href="../../images/primaryKeys.png" width="11px" height="12px" preserveAspectRatio="xMinYMin meet" x="157" y="-250"/>
<text text-anchor="start" x="172" y="-239.55" font-family="Helvetica,sans-Serif" font-size="11.00">id</text>
<polygon fill="none" stroke="black" points="238,-233 238,-255 311,-255 311,-233 238,-233"/>
<text text-anchor="start" x="241" y="-239.55" font-family="Helvetica,sans-Serif" font-size="11.00">bigint[19]</text>
<polygon fill="#ffffff" stroke="none" points="152,-211 152,-233 238,-233 238,-211 152,-211"/>
<polygon fill="none" stroke="black" points="152,-211 152,-233 238,-233 238,-211 152,-211"/>
<text text-anchor="start" x="172" y="-217.55" font-family="Helvetica,sans-Serif" font-size="11.00">name</text>
<polygon fill="none" stroke="black" points="238,-211 238,-233 311,-233 311,-211 238,-211"/>
<text text-anchor="start" x="241" y="-217.55" font-family="Helvetica,sans-Serif" font-size="11.00">varchar[50]</text>
<polygon fill="#ffffff" stroke="none" points="152,-189 152,-211 238,-211 238,-189 152,-189"/>
<polygon fill="none" stroke="black" points="152,-189 152,-211 238,-211 238,-189 152,-189"/>
<image xlink:href="../../images/foreignKeys.png" width="11px" height="12px" preserveAspectRatio="xMinYMin meet" x="157" y="-206"/>
<text text-anchor="start" x="172" y="-195.55" font-family="Helvetica,sans-Serif" font-size="11.00">attribute_id</text>
<polygon fill="none" stroke="black" points="238,-189 238,-211 311,-211 311,-189 238,-189"/>
<text text-anchor="start" x="241" y="-195.55" font-family="Helvetica,sans-Serif" font-size="11.00">bigint[19]</text>
<polygon fill="#ffffff" stroke="none" points="152,-167 152,-189 238,-189 238,-167 152,-167"/>
<polygon fill="none" stroke="black" points="152,-167 152,-189 238,-189 238,-167 152,-167"/>
<image xlink:href="../../images/foreignKeys.png" width="11px" height="12px" preserveAspectRatio="xMinYMin meet" x="157" y="-184"/>
<text text-anchor="start" x="172" y="-173.55" font-family="Helvetica,sans-Serif" font-size="11.00">fee_id</text>
<polygon fill="none" stroke="black" points="238,-167 238,-189 311,-189 311,-167 238,-167"/>
<text text-anchor="start" x="241" y="-173.55" font-family="Helvetica,sans-Serif" font-size="11.00">bigint[19]</text>
<polygon fill="none" stroke="black" points="152,-145 152,-167 238,-167 238,-145 152,-145"/>
<text text-anchor="start" x="172" y="-151.55" font-family="Helvetica,sans-Serif" font-size="11.00">address</text>
<polygon fill="none" stroke="black" points="238,-145 238,-167 311,-167 311,-145 238,-145"/>
<text text-anchor="start" x="241" y="-151.55" font-family="Helvetica,sans-Serif" font-size="11.00">varchar[50]</text>
<polygon fill="none" stroke="black" points="152,-123 152,-145 238,-145 238,-123 152,-123"/>
<text text-anchor="start" x="172" y="-129.55" font-family="Helvetica,sans-Serif" font-size="11.00">max_num</text>
<polygon fill="none" stroke="black" points="238,-123 238,-145 311,-145 311,-123 238,-123"/>
<text text-anchor="start" x="241" y="-129.55" font-family="Helvetica,sans-Serif" font-size="11.00">int[10]</text>
<polygon fill="none" stroke="black" points="152,-101 152,-123 238,-123 238,-101 152,-101"/>
<text text-anchor="start" x="172" y="-107.55" font-family="Helvetica,sans-Serif" font-size="11.00">created_at</text>
<polygon fill="none" stroke="black" points="238,-101 238,-123 311,-123 311,-101 238,-101"/>
<text text-anchor="start" x="240.75" y="-107.55" font-family="Helvetica,sans-Serif" font-size="11.00">timestamp[19]</text>
<polygon fill="none" stroke="black" points="152,-79 152,-101 238,-101 238,-79 152,-79"/>
<text text-anchor="start" x="172" y="-85.55" font-family="Helvetica,sans-Serif" font-size="11.00">updated_at</text>
<polygon fill="none" stroke="black" points="238,-79 238,-101 311,-101 311,-79 238,-79"/>
<text text-anchor="start" x="240.75" y="-85.55" font-family="Helvetica,sans-Serif" font-size="11.00">timestamp[19]</text>
<polygon fill="none" stroke="black" points="152,-57 152,-79 238,-79 238,-57 152,-57"/>
<text text-anchor="start" x="172" y="-63.55" font-family="Helvetica,sans-Serif" font-size="11.00">deleted_at</text>
<polygon fill="none" stroke="black" points="238,-57 238,-79 311,-79 311,-57 238,-57"/>
<text text-anchor="start" x="240.75" y="-63.55" font-family="Helvetica,sans-Serif" font-size="11.00">timestamp[19]</text>
<polygon fill="#ffffff" stroke="none" points="152,-39 152,-57 186,-57 186,-39 152,-39"/>
<polygon fill="none" stroke="black" points="152,-39 152,-57 186,-57 186,-39 152,-39"/>
<text text-anchor="start" x="155" y="-43.55" font-family="Helvetica,sans-Serif" font-size="11.00">&lt; 2</text>
<polygon fill="#ffffff" stroke="none" points="186,-39 186,-57 238,-57 238,-39 186,-39"/>
<polygon fill="none" stroke="black" points="186,-39 186,-57 238,-57 238,-39 186,-39"/>
<text text-anchor="start" x="202.75" y="-43.55" font-family="Helvetica,sans-Serif" font-size="11.00">6 rows</text>
<polygon fill="#ffffff" stroke="none" points="238,-39 238,-57 311,-57 311,-39 238,-39"/>
<polygon fill="none" stroke="black" points="238,-39 238,-57 311,-57 311,-39 238,-39"/>
<text text-anchor="start" x="292.25" y="-43.55" font-family="Helvetica,sans-Serif" font-size="11.00">1 &gt;</text>
<polygon fill="none" stroke="black" stroke-width="2" points="151,-38 151,-278 312,-278 312,-38 151,-38"/>
</a>
</g>
</g>
<!-- attributes -->
<g id="node2" class="node">
<title>attributes</title>
<g id="a_node2"><a xlink:href="../../tables/attributes.html" xlink:title="attributes" target="_top">
<polygon fill="#ffffff" stroke="none" points="8,-245 8,-347 101,-347 101,-245 8,-245"/>
<polygon fill="#f5f5f5" stroke="none" points="8,-325 8,-347 101,-347 101,-325 8,-325"/>
<polygon fill="none" stroke="black" points="8,-325 8,-347 101,-347 101,-325 8,-325"/>
<text text-anchor="start" x="12.88" y="-332.55" font-family="Helvetica,sans-Serif" font-weight="bold" font-size="11.00">attributes</text>
<text text-anchor="start" x="67" y="-331.55" font-family="Helvetica,sans-Serif" font-size="11.00">[table]</text>
<polygon fill="none" stroke="black" points="8,-303 8,-325 101,-325 101,-303 8,-303"/>
<image xlink:href="../../images/primaryKeys.png" width="11px" height="12px" preserveAspectRatio="xMinYMin meet" x="13" y="-320"/>
<text text-anchor="start" x="32" y="-309.55" font-family="Helvetica,sans-Serif" font-size="11.00">id</text>
<polygon fill="#ffffff" stroke="none" points="8,-281 8,-303 101,-303 101,-281 8,-281"/>
<polygon fill="none" stroke="black" points="8,-281 8,-303 101,-303 101,-281 8,-281"/>
<text text-anchor="start" x="32" y="-287.55" font-family="Helvetica,sans-Serif" font-size="11.00">name</text>
<polygon fill="none" stroke="black" points="8,-263 8,-281 101,-281 101,-263 8,-263"/>
<text text-anchor="start" x="11" y="-267.55" font-family="Helvetica,sans-Serif" font-size="11.00">...</text>
<polygon fill="#ffffff" stroke="none" points="8,-245 8,-263 31,-263 31,-245 8,-245"/>
<polygon fill="none" stroke="black" points="8,-245 8,-263 31,-263 31,-245 8,-245"/>
<text text-anchor="start" x="11" y="-249.55" font-family="Helvetica,sans-Serif" font-size="11.00"> &#160;</text>
<polygon fill="#ffffff" stroke="none" points="31,-245 31,-263 74,-263 74,-245 31,-245"/>
<polygon fill="none" stroke="black" points="31,-245 31,-263 74,-263 74,-245 31,-245"/>
<text text-anchor="start" x="38.75" y="-249.55" font-family="Helvetica,sans-Serif" font-size="11.00">8 rows</text>
<polygon fill="#ffffff" stroke="none" points="74,-245 74,-263 101,-263 101,-245 74,-245"/>
<polygon fill="none" stroke="black" points="74,-245 74,-263 101,-263 101,-245 74,-245"/>
<text text-anchor="start" x="82.25" y="-249.55" font-family="Helvetica,sans-Serif" font-size="11.00">2 &gt;</text>
</a>
</g>
</g>
<!-- areas&#45;&gt;attributes -->
<g id="edge1" class="edge">
<title>areas:w&#45;&gt;attributes:e</title>
<path fill="none" stroke="black" d="M136.03,-204.33C108.62,-225.15 150.69,-314 102,-314"/>
<polygon fill="black" stroke="black" points="142.99,-202.32 151.68,-203.55 147.16,-201.11 150.36,-200.19 150.36,-200.19 150.36,-200.19 147.16,-201.11 149.68,-196.63 142.99,-202.32"/>
<ellipse fill="none" stroke="black" cx="138.27" cy="-203.68" rx="3.2" ry="3.2"/>
</g>
<!-- fees -->
<g id="node3" class="node">
<title>fees</title>
<g id="a_node3"><a xlink:href="../../tables/fees.html" xlink:title="fees" target="_top">
<polygon fill="#ffffff" stroke="none" points="12,-109 12,-211 97,-211 97,-109 12,-109"/>
<polygon fill="#f5f5f5" stroke="none" points="12,-189 12,-211 97,-211 97,-189 12,-189"/>
<polygon fill="none" stroke="black" points="12,-189 12,-211 97,-211 97,-189 12,-189"/>
<text text-anchor="start" x="16.12" y="-196.55" font-family="Helvetica,sans-Serif" font-weight="bold" font-size="11.00">fees</text>
<text text-anchor="start" x="62.75" y="-195.55" font-family="Helvetica,sans-Serif" font-size="11.00">[table]</text>
<polygon fill="none" stroke="black" points="12,-167 12,-189 97,-189 97,-167 12,-167"/>
<image xlink:href="../../images/primaryKeys.png" width="11px" height="12px" preserveAspectRatio="xMinYMin meet" x="17" y="-184"/>
<text text-anchor="start" x="32" y="-173.55" font-family="Helvetica,sans-Serif" font-size="11.00">id</text>
<polygon fill="#ffffff" stroke="none" points="12,-145 12,-167 97,-167 97,-145 12,-145"/>
<polygon fill="none" stroke="black" points="12,-145 12,-167 97,-167 97,-145 12,-145"/>
<text text-anchor="start" x="32" y="-151.55" font-family="Helvetica,sans-Serif" font-size="11.00">name</text>
<polygon fill="none" stroke="black" points="12,-127 12,-145 97,-145 97,-127 12,-127"/>
<text text-anchor="start" x="15" y="-131.55" font-family="Helvetica,sans-Serif" font-size="11.00">...</text>
<polygon fill="#ffffff" stroke="none" points="12,-109 12,-127 31,-127 31,-109 12,-109"/>
<polygon fill="none" stroke="black" points="12,-109 12,-127 31,-127 31,-109 12,-109"/>
<text text-anchor="start" x="15" y="-113.55" font-family="Helvetica,sans-Serif" font-size="11.00"> &#160;</text>
<polygon fill="#ffffff" stroke="none" points="31,-109 31,-127 72,-127 72,-109 31,-109"/>
<polygon fill="none" stroke="black" points="31,-109 31,-127 72,-127 72,-109 31,-109"/>
<text text-anchor="start" x="36.75" y="-113.55" font-family="Helvetica,sans-Serif" font-size="11.00">7 rows</text>
<polygon fill="#ffffff" stroke="none" points="72,-109 72,-127 97,-127 97,-109 72,-109"/>
<polygon fill="none" stroke="black" points="72,-109 72,-127 97,-127 97,-109 72,-109"/>
<text text-anchor="start" x="78.25" y="-113.55" font-family="Helvetica,sans-Serif" font-size="11.00">1 &gt;</text>
</a>
</g>
</g>
<!-- areas&#45;&gt;fees -->
<g id="edge2" class="edge">
<title>areas:w&#45;&gt;fees:e</title>
<path fill="none" stroke="black" d="M135.31,-178C123.07,-178 115.3,-178 98,-178"/>
<polygon fill="black" stroke="black" points="142.67,-178 150.67,-181.6 147,-178 150.33,-178 150.33,-178 150.33,-178 147,-178 150.67,-174.4 142.67,-178"/>
<ellipse fill="none" stroke="black" cx="137.75" cy="-178" rx="3.2" ry="3.2"/>
</g>
<!-- reservations -->
<g id="node4" class="node">
<title>reservations</title>
<g id="a_node4"><a xlink:href="../../tables/reservations.html" xlink:title="reservations" target="_top">
<polygon fill="#ffffff" stroke="none" points="362,-227 362,-351 472,-351 472,-227 362,-227"/>
<polygon fill="#f5f5f5" stroke="none" points="362,-329 362,-351 472,-351 472,-329 362,-329"/>
<polygon fill="none" stroke="black" points="362,-329 362,-351 472,-351 472,-329 362,-329"/>
<text text-anchor="start" x="367" y="-336.55" font-family="Helvetica,sans-Serif" font-weight="bold" font-size="11.00">reservations</text>
<text text-anchor="start" x="438" y="-335.55" font-family="Helvetica,sans-Serif" font-size="11.00">[table]</text>
<polygon fill="none" stroke="black" points="362,-307 362,-329 472,-329 472,-307 362,-307"/>
<image xlink:href="../../images/primaryKeys.png" width="11px" height="12px" preserveAspectRatio="xMinYMin meet" x="367" y="-324"/>
<text text-anchor="start" x="391" y="-313.55" font-family="Helvetica,sans-Serif" font-size="11.00">id</text>
<polygon fill="#ffffff" stroke="none" points="362,-285 362,-307 472,-307 472,-285 362,-285"/>
<polygon fill="none" stroke="black" points="362,-285 362,-307 472,-307 472,-285 362,-285"/>
<image xlink:href="../../images/foreignKeys.png" width="11px" height="12px" preserveAspectRatio="xMinYMin meet" x="367" y="-302"/>
<text text-anchor="start" x="391" y="-291.55" font-family="Helvetica,sans-Serif" font-size="11.00">user_id</text>
<polygon fill="#ffffff" stroke="none" points="362,-263 362,-285 472,-285 472,-263 362,-263"/>
<polygon fill="none" stroke="black" points="362,-263 362,-285 472,-285 472,-263 362,-263"/>
<image xlink:href="../../images/foreignKeys.png" width="11px" height="12px" preserveAspectRatio="xMinYMin meet" x="367" y="-280"/>
<text text-anchor="start" x="391" y="-269.55" font-family="Helvetica,sans-Serif" font-size="11.00">area_id</text>
<polygon fill="none" stroke="black" points="362,-245 362,-263 472,-263 472,-245 362,-245"/>
<text text-anchor="start" x="365" y="-249.55" font-family="Helvetica,sans-Serif" font-size="11.00">...</text>
<polygon fill="#ffffff" stroke="none" points="362,-227 362,-245 402,-245 402,-227 362,-227"/>
<polygon fill="none" stroke="black" points="362,-227 362,-245 402,-245 402,-227 362,-227"/>
<text text-anchor="start" x="365" y="-231.55" font-family="Helvetica,sans-Serif" font-size="11.00">&lt; 2</text>
<polygon fill="#ffffff" stroke="none" points="402,-227 402,-245 450,-245 450,-227 402,-227"/>
<polygon fill="none" stroke="black" points="402,-227 402,-245 450,-245 450,-227 402,-227"/>
<text text-anchor="start" x="414.75" y="-231.55" font-family="Helvetica,sans-Serif" font-size="11.00">8 rows</text>
<polygon fill="#ffffff" stroke="none" points="450,-227 450,-245 472,-245 472,-227 450,-227"/>
<polygon fill="none" stroke="black" points="450,-227 450,-245 472,-245 472,-227 450,-227"/>
<text text-anchor="start" x="463" y="-231.55" font-family="Helvetica,sans-Serif" font-size="11.00"> &#160;</text>
</a>
</g>
</g>
<!-- reservations&#45;&gt;areas -->
<g id="edge3" class="edge">
<title>reservations:w&#45;&gt;areas:e</title>
<path fill="none" stroke="black" d="M346.16,-269.31C334.77,-260.88 331.15,-244 312,-244"/>
<polygon fill="black" stroke="black" points="353.05,-271.49 359.6,-277.33 357.19,-272.8 360.36,-273.8 360.36,-273.8 360.36,-273.8 357.19,-272.8 361.77,-270.47 353.05,-271.49"/>
<ellipse fill="none" stroke="black" cx="348.36" cy="-270.01" rx="3.2" ry="3.2"/>
</g>
<!-- users -->
<g id="node5" class="node">
<title>users</title>
<g id="a_node5"><a xlink:href="../../tables/users.html" xlink:title="users" target="_top">
<polygon fill="#ffffff" stroke="none" points="191.5,-300 191.5,-358 271.5,-358 271.5,-300 191.5,-300"/>
<polygon fill="#f5f5f5" stroke="none" points="191.5,-336 191.5,-358 271.5,-358 271.5,-336 191.5,-336"/>
<polygon fill="none" stroke="black" points="191.5,-336 191.5,-358 271.5,-358 271.5,-336 191.5,-336"/>
<text text-anchor="start" x="195.88" y="-343.55" font-family="Helvetica,sans-Serif" font-weight="bold" font-size="11.00">users</text>
<text text-anchor="start" x="237.25" y="-342.55" font-family="Helvetica,sans-Serif" font-size="11.00">[table]</text>
<polygon fill="none" stroke="black" points="191.5,-318 191.5,-336 271.5,-336 271.5,-318 191.5,-318"/>
<text text-anchor="start" x="194.5" y="-322.55" font-family="Helvetica,sans-Serif" font-size="11.00">...</text>
<polygon fill="#ffffff" stroke="none" points="191.5,-300 191.5,-318 212.5,-318 212.5,-300 191.5,-300"/>
<polygon fill="none" stroke="black" points="191.5,-300 191.5,-318 212.5,-318 212.5,-300 191.5,-300"/>
<text text-anchor="start" x="194.12" y="-304.55" font-family="Helvetica,sans-Serif" font-size="11.00">&lt; 1</text>
<polygon fill="#ffffff" stroke="none" points="212.5,-300 212.5,-318 250.5,-318 250.5,-300 212.5,-300"/>
<polygon fill="none" stroke="black" points="212.5,-300 212.5,-318 250.5,-318 250.5,-300 212.5,-300"/>
<text text-anchor="start" x="215.38" y="-304.55" font-family="Helvetica,sans-Serif" font-size="11.00">8 rows</text>
<polygon fill="#ffffff" stroke="none" points="250.5,-300 250.5,-318 271.5,-318 271.5,-300 250.5,-300"/>
<polygon fill="none" stroke="black" points="250.5,-300 250.5,-318 271.5,-318 271.5,-300 250.5,-300"/>
<text text-anchor="start" x="253.12" y="-304.55" font-family="Helvetica,sans-Serif" font-size="11.00">1 &gt;</text>
</a>
</g>
</g>
<!-- reservations&#45;&gt;users -->
<g id="edge4" class="edge">
<title>reservations:w&#45;&gt;users:e</title>
<path fill="none" stroke="black" d="M345.38,-297.67C317.15,-304.11 308.32,-327 272.5,-327"/>
<polygon fill="black" stroke="black" points="352.71,-296.88 361.05,-299.62 357.02,-296.42 360.33,-296.07 360.33,-296.07 360.33,-296.07 357.02,-296.42 360.29,-292.46 352.71,-296.88"/>
<ellipse fill="none" stroke="black" cx="347.82" cy="-297.41" rx="3.2" ry="3.2"/>
</g>
<!-- users&#45;&gt;attributes -->
<g id="edge5" class="edge">
<title>users:w&#45;&gt;attributes:e</title>
<path fill="none" stroke="black" d="M175,-326.26C147.5,-323.51 136.01,-314 102,-314"/>
<polygon fill="black" stroke="black" points="182.17,-326.6 190,-330.58 186.5,-326.81 189.83,-326.97 189.83,-326.97 189.83,-326.97 186.5,-326.81 190.34,-323.39 182.17,-326.6"/>
<ellipse fill="none" stroke="black" cx="177.26" cy="-326.37" rx="3.2" ry="3.2"/>
</g>
</g>
</svg>
