<?xml version="1.0" encoding="UTF-8" standalone="no"?>
<!DOCTYPE svg PUBLIC "-//W3C//DTD SVG 1.1//EN"
 "http://www.w3.org/Graphics/SVG/1.1/DTD/svg11.dtd">
<!-- Generated by graphviz version 12.0.0 (20240704.0754)
 -->
<!-- Title: twoDegreesRelationshipsDiagram Pages: 1 -->
<svg width="501pt" height="362pt"
 viewBox="0.00 0.00 501.00 362.00" xmlns="http://www.w3.org/2000/svg" xmlns:xlink="http://www.w3.org/1999/xlink">
<g id="graph0" class="graph" transform="scale(1 1) rotate(0) translate(4 358)">
<title>twoDegreesRelationshipsDiagram</title>
<polygon fill="#ffffff" stroke="none" points="-4,4 -4,-358 497,-358 497,4 -4,4"/>
<text text-anchor="middle" x="71.38" y="-5.55" font-family="Helvetica,sans-Serif" font-size="11.00">Generated by SchemaSpy</text>
<!-- areas -->
<g id="node1" class="node">
<title>areas</title>
<g id="a_node1"><a xlink:href="../../tables/areas.html" xlink:title="areas" target="_top">
<polygon fill="#ffffff" stroke="none" points="229.5,-37 229.5,-183 315.5,-183 315.5,-37 229.5,-37"/>
<polygon fill="#f5f5f5" stroke="none" points="229.5,-161 229.5,-183 315.5,-183 315.5,-161 229.5,-161"/>
<polygon fill="none" stroke="black" points="229.5,-161 229.5,-183 315.5,-183 315.5,-161 229.5,-161"/>
<text text-anchor="start" x="233.75" y="-168.55" font-family="Helvetica,sans-Serif" font-weight="bold" font-size="11.00">areas</text>
<text text-anchor="start" x="281.25" y="-167.55" font-family="Helvetica,sans-Serif" font-size="11.00">[table]</text>
<polygon fill="none" stroke="black" points="229.5,-139 229.5,-161 315.5,-161 315.5,-139 229.5,-139"/>
<image xlink:href="../../images/primaryKeys.png" width="11px" height="12px" preserveAspectRatio="xMinYMin meet" x="234.5" y="-156"/>
<text text-anchor="start" x="249.5" y="-145.55" font-family="Helvetica,sans-Serif" font-size="11.00">id</text>
<polygon fill="#ffffff" stroke="none" points="229.5,-117 229.5,-139 315.5,-139 315.5,-117 229.5,-117"/>
<polygon fill="none" stroke="black" points="229.5,-117 229.5,-139 315.5,-139 315.5,-117 229.5,-117"/>
<text text-anchor="start" x="249.5" y="-123.55" font-family="Helvetica,sans-Serif" font-size="11.00">name</text>
<polygon fill="#ffffff" stroke="none" points="229.5,-95 229.5,-117 315.5,-117 315.5,-95 229.5,-95"/>
<polygon fill="none" stroke="black" points="229.5,-95 229.5,-117 315.5,-117 315.5,-95 229.5,-95"/>
<image xlink:href="../../images/foreignKeys.png" width="11px" height="12px" preserveAspectRatio="xMinYMin meet" x="234.5" y="-112"/>
<text text-anchor="start" x="249.5" y="-101.55" font-family="Helvetica,sans-Serif" font-size="11.00">attribute_id</text>
<polygon fill="#ffffff" stroke="none" points="229.5,-73 229.5,-95 315.5,-95 315.5,-73 229.5,-73"/>
<polygon fill="none" stroke="black" points="229.5,-73 229.5,-95 315.5,-95 315.5,-73 229.5,-73"/>
<image xlink:href="../../images/foreignKeys.png" width="11px" height="12px" preserveAspectRatio="xMinYMin meet" x="234.5" y="-90"/>
<text text-anchor="start" x="249.5" y="-79.55" font-family="Helvetica,sans-Serif" font-size="11.00">fee_id</text>
<polygon fill="none" stroke="black" points="229.5,-55 229.5,-73 315.5,-73 315.5,-55 229.5,-55"/>
<text text-anchor="start" x="232.5" y="-59.55" font-family="Helvetica,sans-Serif" font-size="11.00">...</text>
<polygon fill="#ffffff" stroke="none" points="229.5,-37 229.5,-55 253.5,-55 253.5,-37 229.5,-37"/>
<polygon fill="none" stroke="black" points="229.5,-37 229.5,-55 253.5,-55 253.5,-37 229.5,-37"/>
<text text-anchor="start" x="232.5" y="-41.55" font-family="Helvetica,sans-Serif" font-size="11.00">&lt; 2</text>
<polygon fill="#ffffff" stroke="none" points="253.5,-37 253.5,-55 292.5,-55 292.5,-37 253.5,-37"/>
<polygon fill="none" stroke="black" points="253.5,-37 253.5,-55 292.5,-55 292.5,-37 253.5,-37"/>
<text text-anchor="start" x="257.25" y="-41.55" font-family="Helvetica,sans-Serif" font-size="11.00">6 rows</text>
<polygon fill="#ffffff" stroke="none" points="292.5,-37 292.5,-55 315.5,-55 315.5,-37 292.5,-37"/>
<polygon fill="none" stroke="black" points="292.5,-37 292.5,-55 315.5,-55 315.5,-37 292.5,-37"/>
<text text-anchor="start" x="296.75" y="-41.55" font-family="Helvetica,sans-Serif" font-size="11.00">1 &gt;</text>
</a>
</g>
</g>
<!-- attributes -->
<g id="node2" class="node">
<title>attributes</title>
<g id="a_node2"><a xlink:href="../../tables/attributes.html" xlink:title="attributes" target="_top">
<polygon fill="#ffffff" stroke="none" points="8,-145 8,-277 170,-277 170,-145 8,-145"/>
<polygon fill="#f5f5f5" stroke="none" points="10,-253 10,-275 168,-275 168,-253 10,-253"/>
<polygon fill="none" stroke="black" points="10,-253 10,-275 168,-275 168,-253 10,-253"/>
<text text-anchor="start" x="14.88" y="-260.55" font-family="Helvetica,sans-Serif" font-weight="bold" font-size="11.00">attributes</text>
<text text-anchor="start" x="133.75" y="-259.55" font-family="Helvetica,sans-Serif" font-size="11.00">[table]</text>
<polygon fill="none" stroke="black" points="10,-231 10,-253 95,-253 95,-231 10,-231"/>
<image xlink:href="../../images/primaryKeys.png" width="11px" height="12px" preserveAspectRatio="xMinYMin meet" x="15" y="-248"/>
<text text-anchor="start" x="30" y="-237.55" font-family="Helvetica,sans-Serif" font-size="11.00">id</text>
<polygon fill="none" stroke="black" points="95,-231 95,-253 168,-253 168,-231 95,-231"/>
<text text-anchor="start" x="98" y="-237.55" font-family="Helvetica,sans-Serif" font-size="11.00">bigint[19]</text>
<polygon fill="#ffffff" stroke="none" points="10,-209 10,-231 95,-231 95,-209 10,-209"/>
<polygon fill="none" stroke="black" points="10,-209 10,-231 95,-231 95,-209 10,-209"/>
<text text-anchor="start" x="30" y="-215.55" font-family="Helvetica,sans-Serif" font-size="11.00">name</text>
<polygon fill="none" stroke="black" points="95,-209 95,-231 168,-231 168,-209 95,-209"/>
<text text-anchor="start" x="98" y="-215.55" font-family="Helvetica,sans-Serif" font-size="11.00">varchar[50]</text>
<polygon fill="none" stroke="black" points="10,-187 10,-209 95,-209 95,-187 10,-187"/>
<text text-anchor="start" x="30" y="-193.55" font-family="Helvetica,sans-Serif" font-size="11.00">created_at</text>
<polygon fill="none" stroke="black" points="95,-187 95,-209 168,-209 168,-187 95,-187"/>
<text text-anchor="start" x="97.75" y="-193.55" font-family="Helvetica,sans-Serif" font-size="11.00">timestamp[19]</text>
<polygon fill="none" stroke="black" points="10,-165 10,-187 95,-187 95,-165 10,-165"/>
<text text-anchor="start" x="30" y="-171.55" font-family="Helvetica,sans-Serif" font-size="11.00">updated_at</text>
<polygon fill="none" stroke="black" points="95,-165 95,-187 168,-187 168,-165 95,-165"/>
<text text-anchor="start" x="97.75" y="-171.55" font-family="Helvetica,sans-Serif" font-size="11.00">timestamp[19]</text>
<polygon fill="#ffffff" stroke="none" points="10,-147 10,-165 44,-165 44,-147 10,-147"/>
<polygon fill="none" stroke="black" points="10,-147 10,-165 44,-165 44,-147 10,-147"/>
<text text-anchor="start" x="13" y="-151.55" font-family="Helvetica,sans-Serif" font-size="11.00">&lt; 0</text>
<polygon fill="#ffffff" stroke="none" points="44,-147 44,-165 95,-165 95,-147 44,-147"/>
<polygon fill="none" stroke="black" points="44,-147 44,-165 95,-165 95,-147 44,-147"/>
<text text-anchor="start" x="59.75" y="-151.55" font-family="Helvetica,sans-Serif" font-size="11.00">8 rows</text>
<polygon fill="#ffffff" stroke="none" points="95,-147 95,-165 168,-165 168,-147 95,-147"/>
<polygon fill="none" stroke="black" points="95,-147 95,-165 168,-165 168,-147 95,-147"/>
<text text-anchor="start" x="149.25" y="-151.55" font-family="Helvetica,sans-Serif" font-size="11.00">2 &gt;</text>
<polygon fill="none" stroke="black" stroke-width="2" points="9,-146 9,-276 169,-276 169,-146 9,-146"/>
</a>
</g>
</g>
<!-- areas&#45;&gt;attributes -->
<g id="edge1" class="edge">
<title>areas:w&#45;&gt;attributes:e</title>
<path fill="none" stroke="black" d="M213.37,-109.36C174.89,-130.3 228.79,-242 169,-242"/>
<polygon fill="black" stroke="black" points="220.36,-107.81 228.95,-109.59 224.6,-106.87 227.85,-106.15 227.85,-106.15 227.85,-106.15 224.6,-106.87 227.39,-102.56 220.36,-107.81"/>
<ellipse fill="none" stroke="black" cx="215.56" cy="-108.87" rx="3.2" ry="3.2"/>
</g>
<!-- fees -->
<g id="node3" class="node">
<title>fees</title>
<g id="a_node3"><a xlink:href="../../tables/fees.html" xlink:title="fees" target="_top">
<polygon fill="#ffffff" stroke="none" points="53.5,-57 53.5,-115 124.5,-115 124.5,-57 53.5,-57"/>
<polygon fill="#f5f5f5" stroke="none" points="53.5,-93 53.5,-115 124.5,-115 124.5,-93 53.5,-93"/>
<polygon fill="none" stroke="black" points="53.5,-93 53.5,-115 124.5,-115 124.5,-93 53.5,-93"/>
<text text-anchor="start" x="57.62" y="-100.55" font-family="Helvetica,sans-Serif" font-weight="bold" font-size="11.00">fees</text>
<text text-anchor="start" x="90.25" y="-99.55" font-family="Helvetica,sans-Serif" font-size="11.00">[table]</text>
<polygon fill="none" stroke="black" points="53.5,-75 53.5,-93 124.5,-93 124.5,-75 53.5,-75"/>
<text text-anchor="start" x="56.5" y="-79.55" font-family="Helvetica,sans-Serif" font-size="11.00">...</text>
<polygon fill="#ffffff" stroke="none" points="53.5,-57 53.5,-75 65.5,-75 65.5,-57 53.5,-57"/>
<polygon fill="none" stroke="black" points="53.5,-57 53.5,-75 65.5,-75 65.5,-57 53.5,-57"/>
<text text-anchor="start" x="56.5" y="-61.55" font-family="Helvetica,sans-Serif" font-size="11.00"> &#160;</text>
<polygon fill="#ffffff" stroke="none" points="65.5,-57 65.5,-75 103.5,-75 103.5,-57 65.5,-57"/>
<polygon fill="none" stroke="black" points="65.5,-57 65.5,-75 103.5,-75 103.5,-57 65.5,-57"/>
<text text-anchor="start" x="68.38" y="-61.55" font-family="Helvetica,sans-Serif" font-size="11.00">7 rows</text>
<polygon fill="#ffffff" stroke="none" points="103.5,-57 103.5,-75 124.5,-75 124.5,-57 103.5,-57"/>
<polygon fill="none" stroke="black" points="103.5,-57 103.5,-75 124.5,-75 124.5,-57 103.5,-57"/>
<text text-anchor="start" x="106.12" y="-61.55" font-family="Helvetica,sans-Serif" font-size="11.00">1 &gt;</text>
</a>
</g>
</g>
<!-- areas&#45;&gt;fees -->
<g id="edge2" class="edge">
<title>areas:w&#45;&gt;fees:e</title>
<path fill="none" stroke="black" d="M212.81,-84C179.32,-84 165.56,-84 125.5,-84"/>
<polygon fill="black" stroke="black" points="220.17,-84 228.17,-87.6 224.5,-84 227.83,-84 227.83,-84 227.83,-84 224.5,-84 228.17,-80.4 220.17,-84"/>
<ellipse fill="none" stroke="black" cx="215.25" cy="-84" rx="3.2" ry="3.2"/>
</g>
<!-- reservations -->
<g id="node4" class="node">
<title>reservations</title>
<g id="a_node4"><a xlink:href="../../tables/reservations.html" xlink:title="reservations" target="_top">
<polygon fill="#ffffff" stroke="none" points="375,-206 375,-264 485,-264 485,-206 375,-206"/>
<polygon fill="#f5f5f5" stroke="none" points="375,-242 375,-264 485,-264 485,-242 375,-242"/>
<polygon fill="none" stroke="black" points="375,-242 375,-264 485,-264 485,-242 375,-242"/>
<text text-anchor="start" x="380" y="-249.55" font-family="Helvetica,sans-Serif" font-weight="bold" font-size="11.00">reservations</text>
<text text-anchor="start" x="451" y="-248.55" font-family="Helvetica,sans-Serif" font-size="11.00">[table]</text>
<polygon fill="none" stroke="black" points="375,-224 375,-242 485,-242 485,-224 375,-224"/>
<text text-anchor="start" x="378" y="-228.55" font-family="Helvetica,sans-Serif" font-size="11.00">...</text>
<polygon fill="#ffffff" stroke="none" points="375,-206 375,-224 415,-224 415,-206 375,-206"/>
<polygon fill="none" stroke="black" points="375,-206 375,-224 415,-224 415,-206 375,-206"/>
<text text-anchor="start" x="378" y="-210.55" font-family="Helvetica,sans-Serif" font-size="11.00">&lt; 2</text>
<polygon fill="#ffffff" stroke="none" points="415,-206 415,-224 463,-224 463,-206 415,-206"/>
<polygon fill="none" stroke="black" points="415,-206 415,-224 463,-224 463,-206 415,-206"/>
<text text-anchor="start" x="427.75" y="-210.55" font-family="Helvetica,sans-Serif" font-size="11.00">8 rows</text>
<polygon fill="#ffffff" stroke="none" points="463,-206 463,-224 485,-224 485,-206 463,-206"/>
<polygon fill="none" stroke="black" points="463,-206 463,-224 485,-224 485,-206 463,-206"/>
<text text-anchor="start" x="476" y="-210.55" font-family="Helvetica,sans-Serif" font-size="11.00"> &#160;</text>
</a>
</g>
</g>
<!-- reservations&#45;&gt;areas -->
<g id="edge3" class="edge">
<title>reservations:w&#45;&gt;areas:e</title>
<path fill="none" stroke="black" d="M358.91,-228.3C336.84,-210.74 354.89,-150 316.5,-150"/>
<polygon fill="black" stroke="black" points="366.04,-230.52 372.61,-236.34 370.18,-231.81 373.36,-232.8 373.36,-232.8 373.36,-232.8 370.18,-231.81 374.75,-229.46 366.04,-230.52"/>
<ellipse fill="none" stroke="black" cx="361.35" cy="-229.06" rx="3.2" ry="3.2"/>
</g>
<!-- users -->
<g id="node5" class="node">
<title>users</title>
<g id="a_node5"><a xlink:href="../../tables/users.html" xlink:title="users" target="_top">
<polygon fill="#ffffff" stroke="none" points="219,-204 219,-350 326,-350 326,-204 219,-204"/>
<polygon fill="#f5f5f5" stroke="none" points="219,-328 219,-350 326,-350 326,-328 219,-328"/>
<polygon fill="none" stroke="black" points="219,-328 219,-350 326,-350 326,-328 219,-328"/>
<text text-anchor="start" x="223.38" y="-335.55" font-family="Helvetica,sans-Serif" font-weight="bold" font-size="11.00">users</text>
<text text-anchor="start" x="291.75" y="-334.55" font-family="Helvetica,sans-Serif" font-size="11.00">[table]</text>
<polygon fill="none" stroke="black" points="219,-306 219,-328 326,-328 326,-306 219,-306"/>
<image xlink:href="../../images/primaryKeys.png" width="11px" height="12px" preserveAspectRatio="xMinYMin meet" x="224" y="-323"/>
<text text-anchor="start" x="239" y="-312.55" font-family="Helvetica,sans-Serif" font-size="11.00">id</text>
<polygon fill="#ffffff" stroke="none" points="219,-284 219,-306 326,-306 326,-284 219,-284"/>
<polygon fill="none" stroke="black" points="219,-284 219,-306 326,-306 326,-284 219,-284"/>
<text text-anchor="start" x="239" y="-290.55" font-family="Helvetica,sans-Serif" font-size="11.00">name</text>
<polygon fill="#ffffff" stroke="none" points="219,-262 219,-284 326,-284 326,-262 219,-262"/>
<polygon fill="none" stroke="black" points="219,-262 219,-284 326,-284 326,-262 219,-262"/>
<text text-anchor="start" x="239" y="-268.55" font-family="Helvetica,sans-Serif" font-size="11.00">email</text>
<polygon fill="#ffffff" stroke="none" points="219,-240 219,-262 326,-262 326,-240 219,-240"/>
<polygon fill="none" stroke="black" points="219,-240 219,-262 326,-262 326,-240 219,-240"/>
<image xlink:href="../../images/foreignKeys.png" width="11px" height="12px" preserveAspectRatio="xMinYMin meet" x="224" y="-257"/>
<text text-anchor="start" x="239" y="-246.55" font-family="Helvetica,sans-Serif" font-size="11.00">attribute_id</text>
<polygon fill="none" stroke="black" points="219,-222 219,-240 326,-240 326,-222 219,-222"/>
<text text-anchor="start" x="222" y="-226.55" font-family="Helvetica,sans-Serif" font-size="11.00">...</text>
<polygon fill="#ffffff" stroke="none" points="219,-204 219,-222 253,-222 253,-204 219,-204"/>
<polygon fill="none" stroke="black" points="219,-204 219,-222 253,-222 253,-204 219,-204"/>
<text text-anchor="start" x="222" y="-208.55" font-family="Helvetica,sans-Serif" font-size="11.00">&lt; 1</text>
<polygon fill="#ffffff" stroke="none" points="253,-204 253,-222 298,-222 298,-204 253,-204"/>
<polygon fill="none" stroke="black" points="253,-204 253,-222 298,-222 298,-204 253,-204"/>
<text text-anchor="start" x="262.75" y="-208.55" font-family="Helvetica,sans-Serif" font-size="11.00">8 rows</text>
<polygon fill="#ffffff" stroke="none" points="298,-204 298,-222 326,-222 326,-204 298,-204"/>
<polygon fill="none" stroke="black" points="298,-204 298,-222 326,-222 326,-204 298,-204"/>
<text text-anchor="start" x="307.25" y="-208.55" font-family="Helvetica,sans-Serif" font-size="11.00">1 &gt;</text>
</a>
</g>
</g>
<!-- reservations&#45;&gt;users -->
<g id="edge4" class="edge">
<title>reservations:w&#45;&gt;users:e</title>
<path fill="none" stroke="black" d="M359.28,-238.51C341.28,-257.2 363.1,-317 327,-317"/>
<polygon fill="black" stroke="black" points="366.19,-235.92 374.95,-236.49 370.25,-234.4 373.37,-233.23 373.37,-233.23 373.37,-233.23 370.25,-234.4 372.42,-229.75 366.19,-235.92"/>
<ellipse fill="none" stroke="black" cx="361.59" cy="-237.65" rx="3.2" ry="3.2"/>
</g>
<!-- users&#45;&gt;attributes -->
<g id="edge5" class="edge">
<title>users:w&#45;&gt;attributes:e</title>
<path fill="none" stroke="black" d="M202.33,-249.18C191.68,-246.55 184.74,-242 169,-242"/>
<polygon fill="black" stroke="black" points="209.72,-250.04 217.25,-254.54 214.03,-250.54 217.34,-250.92 217.34,-250.92 217.34,-250.92 214.03,-250.54 218.08,-247.39 209.72,-250.04"/>
<ellipse fill="none" stroke="black" cx="204.84" cy="-249.47" rx="3.2" ry="3.2"/>
</g>
</g>
</svg>
