<?xml version="1.0" encoding="UTF-8" standalone="no"?>
<!DOCTYPE svg PUBLIC "-//W3C//DTD SVG 1.1//EN"
 "http://www.w3.org/Graphics/SVG/1.1/DTD/svg11.dtd">
<!-- Generated by graphviz version 12.0.0 (20240704.0754)
 -->
<!-- Title: oneDegreeRelationshipsDiagram Pages: 1 -->
<svg width="342pt" height="362pt"
 viewBox="0.00 0.00 342.00 362.00" xmlns="http://www.w3.org/2000/svg" xmlns:xlink="http://www.w3.org/1999/xlink">
<g id="graph0" class="graph" transform="scale(1 1) rotate(0) translate(4 358)">
<title>oneDegreeRelationshipsDiagram</title>
<polygon fill="#ffffff" stroke="none" points="-4,4 -4,-358 338,-358 338,4 -4,4"/>
<text text-anchor="middle" x="71.38" y="-5.55" font-family="Helvetica,sans-Serif" font-size="11.00">Generated by SchemaSpy</text>
<!-- areas -->
<g id="node1" class="node">
<title>areas</title>
<g id="a_node1"><a xlink:href="../../tables/areas.html" xlink:title="areas" target="_top">
<polygon fill="#ffffff" stroke="none" points="229.5,-204 229.5,-350 315.5,-350 315.5,-204 229.5,-204"/>
<polygon fill="#f5f5f5" stroke="none" points="229.5,-328 229.5,-350 315.5,-350 315.5,-328 229.5,-328"/>
<polygon fill="none" stroke="black" points="229.5,-328 229.5,-350 315.5,-350 315.5,-328 229.5,-328"/>
<text text-anchor="start" x="233.75" y="-335.55" font-family="Helvetica,sans-Serif" font-weight="bold" font-size="11.00">areas</text>
<text text-anchor="start" x="281.25" y="-334.55" font-family="Helvetica,sans-Serif" font-size="11.00">[table]</text>
<polygon fill="none" stroke="black" points="229.5,-306 229.5,-328 315.5,-328 315.5,-306 229.5,-306"/>
<image xlink:href="../../images/primaryKeys.png" width="11px" height="12px" preserveAspectRatio="xMinYMin meet" x="234.5" y="-323"/>
<text text-anchor="start" x="249.5" y="-312.55" font-family="Helvetica,sans-Serif" font-size="11.00">id</text>
<polygon fill="#ffffff" stroke="none" points="229.5,-284 229.5,-306 315.5,-306 315.5,-284 229.5,-284"/>
<polygon fill="none" stroke="black" points="229.5,-284 229.5,-306 315.5,-306 315.5,-284 229.5,-284"/>
<text text-anchor="start" x="249.5" y="-290.55" font-family="Helvetica,sans-Serif" font-size="11.00">name</text>
<polygon fill="#ffffff" stroke="none" points="229.5,-262 229.5,-284 315.5,-284 315.5,-262 229.5,-262"/>
<polygon fill="none" stroke="black" points="229.5,-262 229.5,-284 315.5,-284 315.5,-262 229.5,-262"/>
<image xlink:href="../../images/foreignKeys.png" width="11px" height="12px" preserveAspectRatio="xMinYMin meet" x="234.5" y="-279"/>
<text text-anchor="start" x="249.5" y="-268.55" font-family="Helvetica,sans-Serif" font-size="11.00">attribute_id</text>
<polygon fill="#ffffff" stroke="none" points="229.5,-240 229.5,-262 315.5,-262 315.5,-240 229.5,-240"/>
<polygon fill="none" stroke="black" points="229.5,-240 229.5,-262 315.5,-262 315.5,-240 229.5,-240"/>
<image xlink:href="../../images/foreignKeys.png" width="11px" height="12px" preserveAspectRatio="xMinYMin meet" x="234.5" y="-257"/>
<text text-anchor="start" x="249.5" y="-246.55" font-family="Helvetica,sans-Serif" font-size="11.00">fee_id</text>
<polygon fill="none" stroke="black" points="229.5,-222 229.5,-240 315.5,-240 315.5,-222 229.5,-222"/>
<text text-anchor="start" x="232.5" y="-226.55" font-family="Helvetica,sans-Serif" font-size="11.00">...</text>
<polygon fill="#ffffff" stroke="none" points="229.5,-204 229.5,-222 253.5,-222 253.5,-204 229.5,-204"/>
<polygon fill="none" stroke="black" points="229.5,-204 229.5,-222 253.5,-222 253.5,-204 229.5,-204"/>
<text text-anchor="start" x="232.5" y="-208.55" font-family="Helvetica,sans-Serif" font-size="11.00">&lt; 2</text>
<polygon fill="#ffffff" stroke="none" points="253.5,-204 253.5,-222 292.5,-222 292.5,-204 253.5,-204"/>
<polygon fill="none" stroke="black" points="253.5,-204 253.5,-222 292.5,-222 292.5,-204 253.5,-204"/>
<text text-anchor="start" x="257.25" y="-208.55" font-family="Helvetica,sans-Serif" font-size="11.00">6 rows</text>
<polygon fill="#ffffff" stroke="none" points="292.5,-204 292.5,-222 315.5,-222 315.5,-204 292.5,-204"/>
<polygon fill="none" stroke="black" points="292.5,-204 292.5,-222 315.5,-222 315.5,-204 292.5,-204"/>
<text text-anchor="start" x="296.75" y="-208.55" font-family="Helvetica,sans-Serif" font-size="11.00">1 &gt;</text>
</a>
</g>
</g>
<!-- attributes -->
<g id="node2" class="node">
<title>attributes</title>
<g id="a_node2"><a xlink:href="../../tables/attributes.html" xlink:title="attributes" target="_top">
<polygon fill="#ffffff" stroke="none" points="8,-81 8,-213 170,-213 170,-81 8,-81"/>
<polygon fill="#f5f5f5" stroke="none" points="10,-189 10,-211 168,-211 168,-189 10,-189"/>
<polygon fill="none" stroke="black" points="10,-189 10,-211 168,-211 168,-189 10,-189"/>
<text text-anchor="start" x="14.88" y="-196.55" font-family="Helvetica,sans-Serif" font-weight="bold" font-size="11.00">attributes</text>
<text text-anchor="start" x="133.75" y="-195.55" font-family="Helvetica,sans-Serif" font-size="11.00">[table]</text>
<polygon fill="none" stroke="black" points="10,-167 10,-189 95,-189 95,-167 10,-167"/>
<image xlink:href="../../images/primaryKeys.png" width="11px" height="12px" preserveAspectRatio="xMinYMin meet" x="15" y="-184"/>
<text text-anchor="start" x="30" y="-173.55" font-family="Helvetica,sans-Serif" font-size="11.00">id</text>
<polygon fill="none" stroke="black" points="95,-167 95,-189 168,-189 168,-167 95,-167"/>
<text text-anchor="start" x="98" y="-173.55" font-family="Helvetica,sans-Serif" font-size="11.00">bigint[19]</text>
<polygon fill="#ffffff" stroke="none" points="10,-145 10,-167 95,-167 95,-145 10,-145"/>
<polygon fill="none" stroke="black" points="10,-145 10,-167 95,-167 95,-145 10,-145"/>
<text text-anchor="start" x="30" y="-151.55" font-family="Helvetica,sans-Serif" font-size="11.00">name</text>
<polygon fill="none" stroke="black" points="95,-145 95,-167 168,-167 168,-145 95,-145"/>
<text text-anchor="start" x="98" y="-151.55" font-family="Helvetica,sans-Serif" font-size="11.00">varchar[50]</text>
<polygon fill="none" stroke="black" points="10,-123 10,-145 95,-145 95,-123 10,-123"/>
<text text-anchor="start" x="30" y="-129.55" font-family="Helvetica,sans-Serif" font-size="11.00">created_at</text>
<polygon fill="none" stroke="black" points="95,-123 95,-145 168,-145 168,-123 95,-123"/>
<text text-anchor="start" x="97.75" y="-129.55" font-family="Helvetica,sans-Serif" font-size="11.00">timestamp[19]</text>
<polygon fill="none" stroke="black" points="10,-101 10,-123 95,-123 95,-101 10,-101"/>
<text text-anchor="start" x="30" y="-107.55" font-family="Helvetica,sans-Serif" font-size="11.00">updated_at</text>
<polygon fill="none" stroke="black" points="95,-101 95,-123 168,-123 168,-101 95,-101"/>
<text text-anchor="start" x="97.75" y="-107.55" font-family="Helvetica,sans-Serif" font-size="11.00">timestamp[19]</text>
<polygon fill="#ffffff" stroke="none" points="10,-83 10,-101 44,-101 44,-83 10,-83"/>
<polygon fill="none" stroke="black" points="10,-83 10,-101 44,-101 44,-83 10,-83"/>
<text text-anchor="start" x="13" y="-87.55" font-family="Helvetica,sans-Serif" font-size="11.00">&lt; 0</text>
<polygon fill="#ffffff" stroke="none" points="44,-83 44,-101 95,-101 95,-83 44,-83"/>
<polygon fill="none" stroke="black" points="44,-83 44,-101 95,-101 95,-83 44,-83"/>
<text text-anchor="start" x="59.75" y="-87.55" font-family="Helvetica,sans-Serif" font-size="11.00">8 rows</text>
<polygon fill="#ffffff" stroke="none" points="95,-83 95,-101 168,-101 168,-83 95,-83"/>
<polygon fill="none" stroke="black" points="95,-83 95,-101 168,-101 168,-83 95,-83"/>
<text text-anchor="start" x="149.25" y="-87.55" font-family="Helvetica,sans-Serif" font-size="11.00">2 &gt;</text>
<polygon fill="none" stroke="black" stroke-width="2" points="9,-82 9,-212 169,-212 169,-82 9,-82"/>
</a>
</g>
</g>
<!-- areas&#45;&gt;attributes -->
<g id="edge1" class="edge">
<title>areas:w&#45;&gt;attributes:e</title>
<path fill="none" stroke="black" d="M213.33,-268.67C187.53,-250.09 212.4,-178 169,-178"/>
<polygon fill="black" stroke="black" points="220.49,-270.71 227.19,-276.37 224.65,-271.9 227.86,-272.82 227.86,-272.82 227.86,-272.82 224.65,-271.9 229.17,-269.45 220.49,-270.71"/>
<ellipse fill="none" stroke="black" cx="215.76" cy="-269.36" rx="3.2" ry="3.2"/>
</g>
<!-- users -->
<g id="node3" class="node">
<title>users</title>
<g id="a_node3"><a xlink:href="../../tables/users.html" xlink:title="users" target="_top">
<polygon fill="#ffffff" stroke="none" points="219,-37 219,-183 326,-183 326,-37 219,-37"/>
<polygon fill="#f5f5f5" stroke="none" points="219,-161 219,-183 326,-183 326,-161 219,-161"/>
<polygon fill="none" stroke="black" points="219,-161 219,-183 326,-183 326,-161 219,-161"/>
<text text-anchor="start" x="223.38" y="-168.55" font-family="Helvetica,sans-Serif" font-weight="bold" font-size="11.00">users</text>
<text text-anchor="start" x="291.75" y="-167.55" font-family="Helvetica,sans-Serif" font-size="11.00">[table]</text>
<polygon fill="none" stroke="black" points="219,-139 219,-161 326,-161 326,-139 219,-139"/>
<image xlink:href="../../images/primaryKeys.png" width="11px" height="12px" preserveAspectRatio="xMinYMin meet" x="224" y="-156"/>
<text text-anchor="start" x="239" y="-145.55" font-family="Helvetica,sans-Serif" font-size="11.00">id</text>
<polygon fill="#ffffff" stroke="none" points="219,-117 219,-139 326,-139 326,-117 219,-117"/>
<polygon fill="none" stroke="black" points="219,-117 219,-139 326,-139 326,-117 219,-117"/>
<text text-anchor="start" x="239" y="-123.55" font-family="Helvetica,sans-Serif" font-size="11.00">name</text>
<polygon fill="#ffffff" stroke="none" points="219,-95 219,-117 326,-117 326,-95 219,-95"/>
<polygon fill="none" stroke="black" points="219,-95 219,-117 326,-117 326,-95 219,-95"/>
<text text-anchor="start" x="239" y="-101.55" font-family="Helvetica,sans-Serif" font-size="11.00">email</text>
<polygon fill="#ffffff" stroke="none" points="219,-73 219,-95 326,-95 326,-73 219,-73"/>
<polygon fill="none" stroke="black" points="219,-73 219,-95 326,-95 326,-73 219,-73"/>
<image xlink:href="../../images/foreignKeys.png" width="11px" height="12px" preserveAspectRatio="xMinYMin meet" x="224" y="-90"/>
<text text-anchor="start" x="239" y="-79.55" font-family="Helvetica,sans-Serif" font-size="11.00">attribute_id</text>
<polygon fill="none" stroke="black" points="219,-55 219,-73 326,-73 326,-55 219,-55"/>
<text text-anchor="start" x="222" y="-59.55" font-family="Helvetica,sans-Serif" font-size="11.00">...</text>
<polygon fill="#ffffff" stroke="none" points="219,-37 219,-55 253,-55 253,-37 219,-37"/>
<polygon fill="none" stroke="black" points="219,-37 219,-55 253,-55 253,-37 219,-37"/>
<text text-anchor="start" x="222" y="-41.55" font-family="Helvetica,sans-Serif" font-size="11.00">&lt; 1</text>
<polygon fill="#ffffff" stroke="none" points="253,-37 253,-55 298,-55 298,-37 253,-37"/>
<polygon fill="none" stroke="black" points="253,-37 253,-55 298,-55 298,-37 253,-37"/>
<text text-anchor="start" x="262.75" y="-41.55" font-family="Helvetica,sans-Serif" font-size="11.00">8 rows</text>
<polygon fill="#ffffff" stroke="none" points="298,-37 298,-55 326,-55 326,-37 298,-37"/>
<polygon fill="none" stroke="black" points="298,-37 298,-55 326,-55 326,-37 298,-37"/>
<text text-anchor="start" x="307.25" y="-41.55" font-family="Helvetica,sans-Serif" font-size="11.00">1 &gt;</text>
</a>
</g>
</g>
<!-- users&#45;&gt;attributes -->
<g id="edge2" class="edge">
<title>users:w&#45;&gt;attributes:e</title>
<path fill="none" stroke="black" d="M203.09,-89.05C181.78,-108.58 209.49,-178 169,-178"/>
<polygon fill="black" stroke="black" points="210.11,-86.68 218.84,-87.52 214.21,-85.28 217.37,-84.21 217.37,-84.21 217.37,-84.21 214.21,-85.28 216.53,-80.7 210.11,-86.68"/>
<ellipse fill="none" stroke="black" cx="205.45" cy="-88.25" rx="3.2" ry="3.2"/>
</g>
</g>
</svg>
