<?xml version="1.0" encoding="UTF-8" standalone="no"?>
<!DOCTYPE svg PUBLIC "-//W3C//DTD SVG 1.1//EN"
 "http://www.w3.org/Graphics/SVG/1.1/DTD/svg11.dtd">
<!-- Generated by graphviz version 12.0.0 (20240704.0754)
 -->
<!-- Title: oneDegreeRelationshipsDiagram Pages: 1 -->
<svg width="321pt" height="267pt"
 viewBox="0.00 0.00 321.00 267.00" xmlns="http://www.w3.org/2000/svg" xmlns:xlink="http://www.w3.org/1999/xlink">
<g id="graph0" class="graph" transform="scale(1 1) rotate(0) translate(4 263)">
<title>oneDegreeRelationshipsDiagram</title>
<polygon fill="#ffffff" stroke="none" points="-4,4 -4,-263 317,-263 317,4 -4,4"/>
<text text-anchor="middle" x="71.38" y="-5.55" font-family="Helvetica,sans-Serif" font-size="11.00">Generated by SchemaSpy</text>
<!-- areas -->
<g id="node1" class="node">
<title>areas</title>
<g id="a_node1"><a xlink:href="../../tables/areas.html" xlink:title="areas" target="_top">
<polygon fill="#ffffff" stroke="none" points="219,-109 219,-255 305,-255 305,-109 219,-109"/>
<polygon fill="#f5f5f5" stroke="none" points="219,-233 219,-255 305,-255 305,-233 219,-233"/>
<polygon fill="none" stroke="black" points="219,-233 219,-255 305,-255 305,-233 219,-233"/>
<text text-anchor="start" x="223.25" y="-240.55" font-family="Helvetica,sans-Serif" font-weight="bold" font-size="11.00">areas</text>
<text text-anchor="start" x="270.75" y="-239.55" font-family="Helvetica,sans-Serif" font-size="11.00">[table]</text>
<polygon fill="none" stroke="black" points="219,-211 219,-233 305,-233 305,-211 219,-211"/>
<image xlink:href="../../images/primaryKeys.png" width="11px" height="12px" preserveAspectRatio="xMinYMin meet" x="224" y="-228"/>
<text text-anchor="start" x="239" y="-217.55" font-family="Helvetica,sans-Serif" font-size="11.00">id</text>
<polygon fill="#ffffff" stroke="none" points="219,-189 219,-211 305,-211 305,-189 219,-189"/>
<polygon fill="none" stroke="black" points="219,-189 219,-211 305,-211 305,-189 219,-189"/>
<text text-anchor="start" x="239" y="-195.55" font-family="Helvetica,sans-Serif" font-size="11.00">name</text>
<polygon fill="#ffffff" stroke="none" points="219,-167 219,-189 305,-189 305,-167 219,-167"/>
<polygon fill="none" stroke="black" points="219,-167 219,-189 305,-189 305,-167 219,-167"/>
<image xlink:href="../../images/foreignKeys.png" width="11px" height="12px" preserveAspectRatio="xMinYMin meet" x="224" y="-184"/>
<text text-anchor="start" x="239" y="-173.55" font-family="Helvetica,sans-Serif" font-size="11.00">attribute_id</text>
<polygon fill="#ffffff" stroke="none" points="219,-145 219,-167 305,-167 305,-145 219,-145"/>
<polygon fill="none" stroke="black" points="219,-145 219,-167 305,-167 305,-145 219,-145"/>
<image xlink:href="../../images/foreignKeys.png" width="11px" height="12px" preserveAspectRatio="xMinYMin meet" x="224" y="-162"/>
<text text-anchor="start" x="239" y="-151.55" font-family="Helvetica,sans-Serif" font-size="11.00">fee_id</text>
<polygon fill="none" stroke="black" points="219,-127 219,-145 305,-145 305,-127 219,-127"/>
<text text-anchor="start" x="222" y="-131.55" font-family="Helvetica,sans-Serif" font-size="11.00">...</text>
<polygon fill="#ffffff" stroke="none" points="219,-109 219,-127 243,-127 243,-109 219,-109"/>
<polygon fill="none" stroke="black" points="219,-109 219,-127 243,-127 243,-109 219,-109"/>
<text text-anchor="start" x="222" y="-113.55" font-family="Helvetica,sans-Serif" font-size="11.00">&lt; 2</text>
<polygon fill="#ffffff" stroke="none" points="243,-109 243,-127 282,-127 282,-109 243,-109"/>
<polygon fill="none" stroke="black" points="243,-109 243,-127 282,-127 282,-109 243,-109"/>
<text text-anchor="start" x="246.75" y="-113.55" font-family="Helvetica,sans-Serif" font-size="11.00">6 rows</text>
<polygon fill="#ffffff" stroke="none" points="282,-109 282,-127 305,-127 305,-109 282,-109"/>
<polygon fill="none" stroke="black" points="282,-109 282,-127 305,-127 305,-109 282,-109"/>
<text text-anchor="start" x="286.25" y="-113.55" font-family="Helvetica,sans-Serif" font-size="11.00">1 &gt;</text>
</a>
</g>
</g>
<!-- fees -->
<g id="node2" class="node">
<title>fees</title>
<g id="a_node2"><a xlink:href="../../tables/fees.html" xlink:title="fees" target="_top">
<polygon fill="#ffffff" stroke="none" points="8,-37 8,-191 170,-191 170,-37 8,-37"/>
<polygon fill="#f5f5f5" stroke="none" points="10,-167 10,-189 168,-189 168,-167 10,-167"/>
<polygon fill="none" stroke="black" points="10,-167 10,-189 168,-189 168,-167 10,-167"/>
<text text-anchor="start" x="14.12" y="-174.55" font-family="Helvetica,sans-Serif" font-weight="bold" font-size="11.00">fees</text>
<text text-anchor="start" x="133.75" y="-173.55" font-family="Helvetica,sans-Serif" font-size="11.00">[table]</text>
<polygon fill="none" stroke="black" points="10,-145 10,-167 95,-167 95,-145 10,-145"/>
<image xlink:href="../../images/primaryKeys.png" width="11px" height="12px" preserveAspectRatio="xMinYMin meet" x="15" y="-162"/>
<text text-anchor="start" x="30" y="-151.55" font-family="Helvetica,sans-Serif" font-size="11.00">id</text>
<polygon fill="none" stroke="black" points="95,-145 95,-167 168,-167 168,-145 95,-145"/>
<text text-anchor="start" x="98" y="-151.55" font-family="Helvetica,sans-Serif" font-size="11.00">bigint[19]</text>
<polygon fill="#ffffff" stroke="none" points="10,-123 10,-145 95,-145 95,-123 10,-123"/>
<polygon fill="none" stroke="black" points="10,-123 10,-145 95,-145 95,-123 10,-123"/>
<text text-anchor="start" x="30" y="-129.55" font-family="Helvetica,sans-Serif" font-size="11.00">name</text>
<polygon fill="none" stroke="black" points="95,-123 95,-145 168,-145 168,-123 95,-123"/>
<text text-anchor="start" x="98" y="-129.55" font-family="Helvetica,sans-Serif" font-size="11.00">varchar[50]</text>
<polygon fill="none" stroke="black" points="10,-101 10,-123 95,-123 95,-101 10,-101"/>
<text text-anchor="start" x="30" y="-107.55" font-family="Helvetica,sans-Serif" font-size="11.00">fee</text>
<polygon fill="none" stroke="black" points="95,-101 95,-123 168,-123 168,-101 95,-101"/>
<text text-anchor="start" x="98" y="-107.55" font-family="Helvetica,sans-Serif" font-size="11.00">int[10]</text>
<polygon fill="none" stroke="black" points="10,-79 10,-101 95,-101 95,-79 10,-79"/>
<text text-anchor="start" x="30" y="-85.55" font-family="Helvetica,sans-Serif" font-size="11.00">created_at</text>
<polygon fill="none" stroke="black" points="95,-79 95,-101 168,-101 168,-79 95,-79"/>
<text text-anchor="start" x="97.75" y="-85.55" font-family="Helvetica,sans-Serif" font-size="11.00">timestamp[19]</text>
<polygon fill="none" stroke="black" points="10,-57 10,-79 95,-79 95,-57 10,-57"/>
<text text-anchor="start" x="30" y="-63.55" font-family="Helvetica,sans-Serif" font-size="11.00">updated_at</text>
<polygon fill="none" stroke="black" points="95,-57 95,-79 168,-79 168,-57 95,-57"/>
<text text-anchor="start" x="97.75" y="-63.55" font-family="Helvetica,sans-Serif" font-size="11.00">timestamp[19]</text>
<polygon fill="#ffffff" stroke="none" points="10,-39 10,-57 44,-57 44,-39 10,-39"/>
<polygon fill="none" stroke="black" points="10,-39 10,-57 44,-57 44,-39 10,-39"/>
<text text-anchor="start" x="13" y="-43.55" font-family="Helvetica,sans-Serif" font-size="11.00">&lt; 0</text>
<polygon fill="#ffffff" stroke="none" points="44,-39 44,-57 95,-57 95,-39 44,-39"/>
<polygon fill="none" stroke="black" points="44,-39 44,-57 95,-57 95,-39 44,-39"/>
<text text-anchor="start" x="59.75" y="-43.55" font-family="Helvetica,sans-Serif" font-size="11.00">7 rows</text>
<polygon fill="#ffffff" stroke="none" points="95,-39 95,-57 168,-57 168,-39 95,-39"/>
<polygon fill="none" stroke="black" points="95,-39 95,-57 168,-57 168,-39 95,-39"/>
<text text-anchor="start" x="149.25" y="-43.55" font-family="Helvetica,sans-Serif" font-size="11.00">1 &gt;</text>
<polygon fill="none" stroke="black" stroke-width="2" points="9,-38 9,-190 169,-190 169,-38 9,-38"/>
</a>
</g>
</g>
<!-- areas&#45;&gt;fees -->
<g id="edge1" class="edge">
<title>areas:w&#45;&gt;fees:e</title>
<path fill="none" stroke="black" d="M202.42,-156C191.71,-156 184.48,-156 169,-156"/>
<polygon fill="black" stroke="black" points="209.67,-156 217.67,-159.6 214,-156 217.33,-156 217.33,-156 217.33,-156 214,-156 217.67,-152.4 209.67,-156"/>
<ellipse fill="none" stroke="black" cx="204.75" cy="-156" rx="3.2" ry="3.2"/>
</g>
</g>
</svg>
