<?xml version="1.0" encoding="UTF-8" standalone="no"?>
<!DOCTYPE svg PUBLIC "-//W3C//DTD SVG 1.1//EN"
 "http://www.w3.org/Graphics/SVG/1.1/DTD/svg11.dtd">
<!-- Generated by graphviz version 12.0.0 (20240704.0754)
 -->
<!-- Title: twoDegreesRelationshipsDiagram Pages: 1 -->
<svg width="480pt" height="297pt"
 viewBox="0.00 0.00 480.00 297.00" xmlns="http://www.w3.org/2000/svg" xmlns:xlink="http://www.w3.org/1999/xlink">
<g id="graph0" class="graph" transform="scale(1 1) rotate(0) translate(4 293)">
<title>twoDegreesRelationshipsDiagram</title>
<polygon fill="#ffffff" stroke="none" points="-4,4 -4,-293 476,-293 476,4 -4,4"/>
<text text-anchor="middle" x="71.38" y="-5.55" font-family="Helvetica,sans-Serif" font-size="11.00">Generated by SchemaSpy</text>
<!-- areas -->
<g id="node1" class="node">
<title>areas</title>
<g id="a_node1"><a xlink:href="../../tables/areas.html" xlink:title="areas" target="_top">
<polygon fill="#ffffff" stroke="none" points="219,-139 219,-285 305,-285 305,-139 219,-139"/>
<polygon fill="#f5f5f5" stroke="none" points="219,-263 219,-285 305,-285 305,-263 219,-263"/>
<polygon fill="none" stroke="black" points="219,-263 219,-285 305,-285 305,-263 219,-263"/>
<text text-anchor="start" x="223.25" y="-270.55" font-family="Helvetica,sans-Serif" font-weight="bold" font-size="11.00">areas</text>
<text text-anchor="start" x="270.75" y="-269.55" font-family="Helvetica,sans-Serif" font-size="11.00">[table]</text>
<polygon fill="none" stroke="black" points="219,-241 219,-263 305,-263 305,-241 219,-241"/>
<image xlink:href="../../images/primaryKeys.png" width="11px" height="12px" preserveAspectRatio="xMinYMin meet" x="224" y="-258"/>
<text text-anchor="start" x="239" y="-247.55" font-family="Helvetica,sans-Serif" font-size="11.00">id</text>
<polygon fill="#ffffff" stroke="none" points="219,-219 219,-241 305,-241 305,-219 219,-219"/>
<polygon fill="none" stroke="black" points="219,-219 219,-241 305,-241 305,-219 219,-219"/>
<text text-anchor="start" x="239" y="-225.55" font-family="Helvetica,sans-Serif" font-size="11.00">name</text>
<polygon fill="#ffffff" stroke="none" points="219,-197 219,-219 305,-219 305,-197 219,-197"/>
<polygon fill="none" stroke="black" points="219,-197 219,-219 305,-219 305,-197 219,-197"/>
<image xlink:href="../../images/foreignKeys.png" width="11px" height="12px" preserveAspectRatio="xMinYMin meet" x="224" y="-214"/>
<text text-anchor="start" x="239" y="-203.55" font-family="Helvetica,sans-Serif" font-size="11.00">attribute_id</text>
<polygon fill="#ffffff" stroke="none" points="219,-175 219,-197 305,-197 305,-175 219,-175"/>
<polygon fill="none" stroke="black" points="219,-175 219,-197 305,-197 305,-175 219,-175"/>
<image xlink:href="../../images/foreignKeys.png" width="11px" height="12px" preserveAspectRatio="xMinYMin meet" x="224" y="-192"/>
<text text-anchor="start" x="239" y="-181.55" font-family="Helvetica,sans-Serif" font-size="11.00">fee_id</text>
<polygon fill="none" stroke="black" points="219,-157 219,-175 305,-175 305,-157 219,-157"/>
<text text-anchor="start" x="222" y="-161.55" font-family="Helvetica,sans-Serif" font-size="11.00">...</text>
<polygon fill="#ffffff" stroke="none" points="219,-139 219,-157 243,-157 243,-139 219,-139"/>
<polygon fill="none" stroke="black" points="219,-139 219,-157 243,-157 243,-139 219,-139"/>
<text text-anchor="start" x="222" y="-143.55" font-family="Helvetica,sans-Serif" font-size="11.00">&lt; 2</text>
<polygon fill="#ffffff" stroke="none" points="243,-139 243,-157 282,-157 282,-139 243,-139"/>
<polygon fill="none" stroke="black" points="243,-139 243,-157 282,-157 282,-139 243,-139"/>
<text text-anchor="start" x="246.75" y="-143.55" font-family="Helvetica,sans-Serif" font-size="11.00">6 rows</text>
<polygon fill="#ffffff" stroke="none" points="282,-139 282,-157 305,-157 305,-139 282,-139"/>
<polygon fill="none" stroke="black" points="282,-139 282,-157 305,-157 305,-139 282,-139"/>
<text text-anchor="start" x="286.25" y="-143.55" font-family="Helvetica,sans-Serif" font-size="11.00">1 &gt;</text>
</a>
</g>
</g>
<!-- attributes -->
<g id="node2" class="node">
<title>attributes</title>
<g id="a_node2"><a xlink:href="../../tables/attributes.html" xlink:title="attributes" target="_top">
<polygon fill="#ffffff" stroke="none" points="42.5,-212 42.5,-270 135.5,-270 135.5,-212 42.5,-212"/>
<polygon fill="#f5f5f5" stroke="none" points="42.5,-248 42.5,-270 135.5,-270 135.5,-248 42.5,-248"/>
<polygon fill="none" stroke="black" points="42.5,-248 42.5,-270 135.5,-270 135.5,-248 42.5,-248"/>
<text text-anchor="start" x="47.38" y="-255.55" font-family="Helvetica,sans-Serif" font-weight="bold" font-size="11.00">attributes</text>
<text text-anchor="start" x="101.5" y="-254.55" font-family="Helvetica,sans-Serif" font-size="11.00">[table]</text>
<polygon fill="none" stroke="black" points="42.5,-230 42.5,-248 135.5,-248 135.5,-230 42.5,-230"/>
<text text-anchor="start" x="45.5" y="-234.55" font-family="Helvetica,sans-Serif" font-size="11.00">...</text>
<polygon fill="#ffffff" stroke="none" points="42.5,-212 42.5,-230 65.5,-230 65.5,-212 42.5,-212"/>
<polygon fill="none" stroke="black" points="42.5,-212 42.5,-230 65.5,-230 65.5,-212 42.5,-212"/>
<text text-anchor="start" x="45.5" y="-216.55" font-family="Helvetica,sans-Serif" font-size="11.00"> &#160;</text>
<polygon fill="#ffffff" stroke="none" points="65.5,-212 65.5,-230 108.5,-230 108.5,-212 65.5,-212"/>
<polygon fill="none" stroke="black" points="65.5,-212 65.5,-230 108.5,-230 108.5,-212 65.5,-212"/>
<text text-anchor="start" x="73.25" y="-216.55" font-family="Helvetica,sans-Serif" font-size="11.00">8 rows</text>
<polygon fill="#ffffff" stroke="none" points="108.5,-212 108.5,-230 135.5,-230 135.5,-212 108.5,-212"/>
<polygon fill="none" stroke="black" points="108.5,-212 108.5,-230 135.5,-230 135.5,-212 108.5,-212"/>
<text text-anchor="start" x="116.75" y="-216.55" font-family="Helvetica,sans-Serif" font-size="11.00">2 &gt;</text>
</a>
</g>
</g>
<!-- areas&#45;&gt;attributes -->
<g id="edge1" class="edge">
<title>areas:w&#45;&gt;attributes:e</title>
<path fill="none" stroke="black" d="M202.46,-209.94C177.22,-216.73 169.35,-239 136.5,-239"/>
<polygon fill="black" stroke="black" points="209.73,-209.03 218.11,-211.61 214.03,-208.5 217.34,-208.08 217.34,-208.08 217.34,-208.08 214.03,-208.5 217.22,-204.47 209.73,-209.03"/>
<ellipse fill="none" stroke="black" cx="204.85" cy="-209.64" rx="3.2" ry="3.2"/>
</g>
<!-- fees -->
<g id="node3" class="node">
<title>fees</title>
<g id="a_node3"><a xlink:href="../../tables/fees.html" xlink:title="fees" target="_top">
<polygon fill="#ffffff" stroke="none" points="8,-37 8,-191 170,-191 170,-37 8,-37"/>
<polygon fill="#f5f5f5" stroke="none" points="10,-167 10,-189 168,-189 168,-167 10,-167"/>
<polygon fill="none" stroke="black" points="10,-167 10,-189 168,-189 168,-167 10,-167"/>
<text text-anchor="start" x="14.12" y="-174.55" font-family="Helvetica,sans-Serif" font-weight="bold" font-size="11.00">fees</text>
<text text-anchor="start" x="133.75" y="-173.55" font-family="Helvetica,sans-Serif" font-size="11.00">[table]</text>
<polygon fill="none" stroke="black" points="10,-145 10,-167 95,-167 95,-145 10,-145"/>
<image xlink:href="../../images/primaryKeys.png" width="11px" height="12px" preserveAspectRatio="xMinYMin meet" x="15" y="-162"/>
<text text-anchor="start" x="30" y="-151.55" font-family="Helvetica,sans-Serif" font-size="11.00">id</text>
<polygon fill="none" stroke="black" points="95,-145 95,-167 168,-167 168,-145 95,-145"/>
<text text-anchor="start" x="98" y="-151.55" font-family="Helvetica,sans-Serif" font-size="11.00">bigint[19]</text>
<polygon fill="#ffffff" stroke="none" points="10,-123 10,-145 95,-145 95,-123 10,-123"/>
<polygon fill="none" stroke="black" points="10,-123 10,-145 95,-145 95,-123 10,-123"/>
<text text-anchor="start" x="30" y="-129.55" font-family="Helvetica,sans-Serif" font-size="11.00">name</text>
<polygon fill="none" stroke="black" points="95,-123 95,-145 168,-145 168,-123 95,-123"/>
<text text-anchor="start" x="98" y="-129.55" font-family="Helvetica,sans-Serif" font-size="11.00">varchar[50]</text>
<polygon fill="none" stroke="black" points="10,-101 10,-123 95,-123 95,-101 10,-101"/>
<text text-anchor="start" x="30" y="-107.55" font-family="Helvetica,sans-Serif" font-size="11.00">fee</text>
<polygon fill="none" stroke="black" points="95,-101 95,-123 168,-123 168,-101 95,-101"/>
<text text-anchor="start" x="98" y="-107.55" font-family="Helvetica,sans-Serif" font-size="11.00">int[10]</text>
<polygon fill="none" stroke="black" points="10,-79 10,-101 95,-101 95,-79 10,-79"/>
<text text-anchor="start" x="30" y="-85.55" font-family="Helvetica,sans-Serif" font-size="11.00">created_at</text>
<polygon fill="none" stroke="black" points="95,-79 95,-101 168,-101 168,-79 95,-79"/>
<text text-anchor="start" x="97.75" y="-85.55" font-family="Helvetica,sans-Serif" font-size="11.00">timestamp[19]</text>
<polygon fill="none" stroke="black" points="10,-57 10,-79 95,-79 95,-57 10,-57"/>
<text text-anchor="start" x="30" y="-63.55" font-family="Helvetica,sans-Serif" font-size="11.00">updated_at</text>
<polygon fill="none" stroke="black" points="95,-57 95,-79 168,-79 168,-57 95,-57"/>
<text text-anchor="start" x="97.75" y="-63.55" font-family="Helvetica,sans-Serif" font-size="11.00">timestamp[19]</text>
<polygon fill="#ffffff" stroke="none" points="10,-39 10,-57 44,-57 44,-39 10,-39"/>
<polygon fill="none" stroke="black" points="10,-39 10,-57 44,-57 44,-39 10,-39"/>
<text text-anchor="start" x="13" y="-43.55" font-family="Helvetica,sans-Serif" font-size="11.00">&lt; 0</text>
<polygon fill="#ffffff" stroke="none" points="44,-39 44,-57 95,-57 95,-39 44,-39"/>
<polygon fill="none" stroke="black" points="44,-39 44,-57 95,-57 95,-39 44,-39"/>
<text text-anchor="start" x="59.75" y="-43.55" font-family="Helvetica,sans-Serif" font-size="11.00">7 rows</text>
<polygon fill="#ffffff" stroke="none" points="95,-39 95,-57 168,-57 168,-39 95,-39"/>
<polygon fill="none" stroke="black" points="95,-39 95,-57 168,-57 168,-39 95,-39"/>
<text text-anchor="start" x="149.25" y="-43.55" font-family="Helvetica,sans-Serif" font-size="11.00">1 &gt;</text>
<polygon fill="none" stroke="black" stroke-width="2" points="9,-38 9,-190 169,-190 169,-38 9,-38"/>
</a>
</g>
</g>
<!-- areas&#45;&gt;fees -->
<g id="edge2" class="edge">
<title>areas:w&#45;&gt;fees:e</title>
<path fill="none" stroke="black" d="M203.16,-181.31C191.77,-172.88 188.15,-156 169,-156"/>
<polygon fill="black" stroke="black" points="210.05,-183.49 216.6,-189.33 214.19,-184.8 217.36,-185.8 217.36,-185.8 217.36,-185.8 214.19,-184.8 218.77,-182.47 210.05,-183.49"/>
<ellipse fill="none" stroke="black" cx="205.36" cy="-182.01" rx="3.2" ry="3.2"/>
</g>
<!-- reservations -->
<g id="node4" class="node">
<title>reservations</title>
<g id="a_node4"><a xlink:href="../../tables/reservations.html" xlink:title="reservations" target="_top">
<polygon fill="#ffffff" stroke="none" points="354,-225 354,-283 464,-283 464,-225 354,-225"/>
<polygon fill="#f5f5f5" stroke="none" points="354,-261 354,-283 464,-283 464,-261 354,-261"/>
<polygon fill="none" stroke="black" points="354,-261 354,-283 464,-283 464,-261 354,-261"/>
<text text-anchor="start" x="359" y="-268.55" font-family="Helvetica,sans-Serif" font-weight="bold" font-size="11.00">reservations</text>
<text text-anchor="start" x="430" y="-267.55" font-family="Helvetica,sans-Serif" font-size="11.00">[table]</text>
<polygon fill="none" stroke="black" points="354,-243 354,-261 464,-261 464,-243 354,-243"/>
<text text-anchor="start" x="357" y="-247.55" font-family="Helvetica,sans-Serif" font-size="11.00">...</text>
<polygon fill="#ffffff" stroke="none" points="354,-225 354,-243 394,-243 394,-225 354,-225"/>
<polygon fill="none" stroke="black" points="354,-225 354,-243 394,-243 394,-225 354,-225"/>
<text text-anchor="start" x="357" y="-229.55" font-family="Helvetica,sans-Serif" font-size="11.00">&lt; 2</text>
<polygon fill="#ffffff" stroke="none" points="394,-225 394,-243 442,-243 442,-225 394,-225"/>
<polygon fill="none" stroke="black" points="394,-225 394,-243 442,-243 442,-225 394,-225"/>
<text text-anchor="start" x="406.75" y="-229.55" font-family="Helvetica,sans-Serif" font-size="11.00">8 rows</text>
<polygon fill="#ffffff" stroke="none" points="442,-225 442,-243 464,-243 464,-225 442,-225"/>
<polygon fill="none" stroke="black" points="442,-225 442,-243 464,-243 464,-225 442,-225"/>
<text text-anchor="start" x="455" y="-229.55" font-family="Helvetica,sans-Serif" font-size="11.00"> &#160;</text>
</a>
</g>
</g>
<!-- reservations&#45;&gt;areas -->
<g id="edge3" class="edge">
<title>reservations:w&#45;&gt;areas:e</title>
<path fill="none" stroke="black" d="M337.38,-252C327.47,-252 320.52,-252 306,-252"/>
<polygon fill="black" stroke="black" points="344.67,-252 352.67,-255.6 349,-252 352.33,-252 352.33,-252 352.33,-252 349,-252 352.67,-248.4 344.67,-252"/>
<ellipse fill="none" stroke="black" cx="339.75" cy="-252" rx="3.2" ry="3.2"/>
</g>
</g>
</svg>
