<?xml version="1.0" encoding="UTF-8" standalone="no"?>
<!DOCTYPE svg PUBLIC "-//W3C//DTD SVG 1.1//EN"
 "http://www.w3.org/Graphics/SVG/1.1/DTD/svg11.dtd">
<!-- Generated by graphviz version 12.0.0 (20240704.0754)
 -->
<!-- Title: twoDegreesRelationshipsDiagram Pages: 1 -->
<svg width="491pt" height="362pt"
 viewBox="0.00 0.00 491.00 362.00" xmlns="http://www.w3.org/2000/svg" xmlns:xlink="http://www.w3.org/1999/xlink">
<g id="graph0" class="graph" transform="scale(1 1) rotate(0) translate(4 358)">
<title>twoDegreesRelationshipsDiagram</title>
<polygon fill="#ffffff" stroke="none" points="-4,4 -4,-358 487,-358 487,4 -4,4"/>
<text text-anchor="middle" x="71.38" y="-5.55" font-family="Helvetica,sans-Serif" font-size="11.00">Generated by SchemaSpy</text>
<!-- areas -->
<g id="node1" class="node">
<title>areas</title>
<g id="a_node1"><a xlink:href="../../tables/areas.html" xlink:title="areas" target="_top">
<polygon fill="#ffffff" stroke="none" points="160.5,-37 160.5,-183 246.5,-183 246.5,-37 160.5,-37"/>
<polygon fill="#f5f5f5" stroke="none" points="160.5,-161 160.5,-183 246.5,-183 246.5,-161 160.5,-161"/>
<polygon fill="none" stroke="black" points="160.5,-161 160.5,-183 246.5,-183 246.5,-161 160.5,-161"/>
<text text-anchor="start" x="164.75" y="-168.55" font-family="Helvetica,sans-Serif" font-weight="bold" font-size="11.00">areas</text>
<text text-anchor="start" x="212.25" y="-167.55" font-family="Helvetica,sans-Serif" font-size="11.00">[table]</text>
<polygon fill="none" stroke="black" points="160.5,-139 160.5,-161 246.5,-161 246.5,-139 160.5,-139"/>
<image xlink:href="../../images/primaryKeys.png" width="11px" height="12px" preserveAspectRatio="xMinYMin meet" x="165.5" y="-156"/>
<text text-anchor="start" x="180.5" y="-145.55" font-family="Helvetica,sans-Serif" font-size="11.00">id</text>
<polygon fill="#ffffff" stroke="none" points="160.5,-117 160.5,-139 246.5,-139 246.5,-117 160.5,-117"/>
<polygon fill="none" stroke="black" points="160.5,-117 160.5,-139 246.5,-139 246.5,-117 160.5,-117"/>
<text text-anchor="start" x="180.5" y="-123.55" font-family="Helvetica,sans-Serif" font-size="11.00">name</text>
<polygon fill="#ffffff" stroke="none" points="160.5,-95 160.5,-117 246.5,-117 246.5,-95 160.5,-95"/>
<polygon fill="none" stroke="black" points="160.5,-95 160.5,-117 246.5,-117 246.5,-95 160.5,-95"/>
<image xlink:href="../../images/foreignKeys.png" width="11px" height="12px" preserveAspectRatio="xMinYMin meet" x="165.5" y="-112"/>
<text text-anchor="start" x="180.5" y="-101.55" font-family="Helvetica,sans-Serif" font-size="11.00">attribute_id</text>
<polygon fill="#ffffff" stroke="none" points="160.5,-73 160.5,-95 246.5,-95 246.5,-73 160.5,-73"/>
<polygon fill="none" stroke="black" points="160.5,-73 160.5,-95 246.5,-95 246.5,-73 160.5,-73"/>
<image xlink:href="../../images/foreignKeys.png" width="11px" height="12px" preserveAspectRatio="xMinYMin meet" x="165.5" y="-90"/>
<text text-anchor="start" x="180.5" y="-79.55" font-family="Helvetica,sans-Serif" font-size="11.00">fee_id</text>
<polygon fill="none" stroke="black" points="160.5,-55 160.5,-73 246.5,-73 246.5,-55 160.5,-55"/>
<text text-anchor="start" x="163.5" y="-59.55" font-family="Helvetica,sans-Serif" font-size="11.00">...</text>
<polygon fill="#ffffff" stroke="none" points="160.5,-37 160.5,-55 184.5,-55 184.5,-37 160.5,-37"/>
<polygon fill="none" stroke="black" points="160.5,-37 160.5,-55 184.5,-55 184.5,-37 160.5,-37"/>
<text text-anchor="start" x="163.5" y="-41.55" font-family="Helvetica,sans-Serif" font-size="11.00">&lt; 2</text>
<polygon fill="#ffffff" stroke="none" points="184.5,-37 184.5,-55 223.5,-55 223.5,-37 184.5,-37"/>
<polygon fill="none" stroke="black" points="184.5,-37 184.5,-55 223.5,-55 223.5,-37 184.5,-37"/>
<text text-anchor="start" x="188.25" y="-41.55" font-family="Helvetica,sans-Serif" font-size="11.00">6 rows</text>
<polygon fill="#ffffff" stroke="none" points="223.5,-37 223.5,-55 246.5,-55 246.5,-37 223.5,-37"/>
<polygon fill="none" stroke="black" points="223.5,-37 223.5,-55 246.5,-55 246.5,-37 223.5,-37"/>
<text text-anchor="start" x="227.75" y="-41.55" font-family="Helvetica,sans-Serif" font-size="11.00">1 &gt;</text>
</a>
</g>
</g>
<!-- attributes -->
<g id="node2" class="node">
<title>attributes</title>
<g id="a_node2"><a xlink:href="../../tables/attributes.html" xlink:title="attributes" target="_top">
<polygon fill="#ffffff" stroke="none" points="8,-180 8,-238 101,-238 101,-180 8,-180"/>
<polygon fill="#f5f5f5" stroke="none" points="8,-216 8,-238 101,-238 101,-216 8,-216"/>
<polygon fill="none" stroke="black" points="8,-216 8,-238 101,-238 101,-216 8,-216"/>
<text text-anchor="start" x="12.88" y="-223.55" font-family="Helvetica,sans-Serif" font-weight="bold" font-size="11.00">attributes</text>
<text text-anchor="start" x="67" y="-222.55" font-family="Helvetica,sans-Serif" font-size="11.00">[table]</text>
<polygon fill="none" stroke="black" points="8,-198 8,-216 101,-216 101,-198 8,-198"/>
<text text-anchor="start" x="11" y="-202.55" font-family="Helvetica,sans-Serif" font-size="11.00">...</text>
<polygon fill="#ffffff" stroke="none" points="8,-180 8,-198 31,-198 31,-180 8,-180"/>
<polygon fill="none" stroke="black" points="8,-180 8,-198 31,-198 31,-180 8,-180"/>
<text text-anchor="start" x="11" y="-184.55" font-family="Helvetica,sans-Serif" font-size="11.00"> &#160;</text>
<polygon fill="#ffffff" stroke="none" points="31,-180 31,-198 74,-198 74,-180 31,-180"/>
<polygon fill="none" stroke="black" points="31,-180 31,-198 74,-198 74,-180 31,-180"/>
<text text-anchor="start" x="38.75" y="-184.55" font-family="Helvetica,sans-Serif" font-size="11.00">8 rows</text>
<polygon fill="#ffffff" stroke="none" points="74,-180 74,-198 101,-198 101,-180 74,-180"/>
<polygon fill="none" stroke="black" points="74,-180 74,-198 101,-198 101,-180 74,-180"/>
<text text-anchor="start" x="82.25" y="-184.55" font-family="Helvetica,sans-Serif" font-size="11.00">2 &gt;</text>
</a>
</g>
</g>
<!-- areas&#45;&gt;attributes -->
<g id="edge1" class="edge">
<title>areas:w&#45;&gt;attributes:e</title>
<path fill="none" stroke="black" d="M144.32,-110.34C117.78,-129.67 147.2,-207 102,-207"/>
<polygon fill="black" stroke="black" points="151.49,-108.29 160.17,-109.55 155.65,-107.1 158.86,-106.18 158.86,-106.18 158.86,-106.18 155.65,-107.1 158.19,-102.63 151.49,-108.29"/>
<ellipse fill="none" stroke="black" cx="146.76" cy="-109.64" rx="3.2" ry="3.2"/>
</g>
<!-- fees -->
<g id="node3" class="node">
<title>fees</title>
<g id="a_node3"><a xlink:href="../../tables/fees.html" xlink:title="fees" target="_top">
<polygon fill="#ffffff" stroke="none" points="19,-57 19,-115 90,-115 90,-57 19,-57"/>
<polygon fill="#f5f5f5" stroke="none" points="19,-93 19,-115 90,-115 90,-93 19,-93"/>
<polygon fill="none" stroke="black" points="19,-93 19,-115 90,-115 90,-93 19,-93"/>
<text text-anchor="start" x="23.12" y="-100.55" font-family="Helvetica,sans-Serif" font-weight="bold" font-size="11.00">fees</text>
<text text-anchor="start" x="55.75" y="-99.55" font-family="Helvetica,sans-Serif" font-size="11.00">[table]</text>
<polygon fill="none" stroke="black" points="19,-75 19,-93 90,-93 90,-75 19,-75"/>
<text text-anchor="start" x="22" y="-79.55" font-family="Helvetica,sans-Serif" font-size="11.00">...</text>
<polygon fill="#ffffff" stroke="none" points="19,-57 19,-75 31,-75 31,-57 19,-57"/>
<polygon fill="none" stroke="black" points="19,-57 19,-75 31,-75 31,-57 19,-57"/>
<text text-anchor="start" x="22" y="-61.55" font-family="Helvetica,sans-Serif" font-size="11.00"> &#160;</text>
<polygon fill="#ffffff" stroke="none" points="31,-57 31,-75 69,-75 69,-57 31,-57"/>
<polygon fill="none" stroke="black" points="31,-57 31,-75 69,-75 69,-57 31,-57"/>
<text text-anchor="start" x="33.88" y="-61.55" font-family="Helvetica,sans-Serif" font-size="11.00">7 rows</text>
<polygon fill="#ffffff" stroke="none" points="69,-57 69,-75 90,-75 90,-57 69,-57"/>
<polygon fill="none" stroke="black" points="69,-57 69,-75 90,-75 90,-57 69,-57"/>
<text text-anchor="start" x="71.62" y="-61.55" font-family="Helvetica,sans-Serif" font-size="11.00">1 &gt;</text>
</a>
</g>
</g>
<!-- areas&#45;&gt;fees -->
<g id="edge2" class="edge">
<title>areas:w&#45;&gt;fees:e</title>
<path fill="none" stroke="black" d="M143.66,-84C125.12,-84 115.38,-84 91,-84"/>
<polygon fill="black" stroke="black" points="151.17,-84 159.17,-87.6 155.5,-84 158.83,-84 158.83,-84 158.83,-84 155.5,-84 159.17,-80.4 151.17,-84"/>
<ellipse fill="none" stroke="black" cx="146.25" cy="-84" rx="3.2" ry="3.2"/>
</g>
<!-- reservations -->
<g id="node4" class="node">
<title>reservations</title>
<g id="a_node4"><a xlink:href="../../tables/reservations.html" xlink:title="reservations" target="_top">
<polygon fill="#ffffff" stroke="none" points="306,-81 306,-301 475,-301 475,-81 306,-81"/>
<polygon fill="#f5f5f5" stroke="none" points="308,-277 308,-299 473,-299 473,-277 308,-277"/>
<polygon fill="none" stroke="black" points="308,-277 308,-299 473,-299 473,-277 308,-277"/>
<text text-anchor="start" x="313" y="-284.55" font-family="Helvetica,sans-Serif" font-weight="bold" font-size="11.00">reservations</text>
<text text-anchor="start" x="438.75" y="-283.55" font-family="Helvetica,sans-Serif" font-size="11.00">[table]</text>
<polygon fill="none" stroke="black" points="308,-255 308,-277 400,-277 400,-255 308,-255"/>
<image xlink:href="../../images/primaryKeys.png" width="11px" height="12px" preserveAspectRatio="xMinYMin meet" x="313" y="-272"/>
<text text-anchor="start" x="328" y="-261.55" font-family="Helvetica,sans-Serif" font-size="11.00">id</text>
<polygon fill="none" stroke="black" points="400,-255 400,-277 473,-277 473,-255 400,-255"/>
<text text-anchor="start" x="403" y="-261.55" font-family="Helvetica,sans-Serif" font-size="11.00">bigint[19]</text>
<polygon fill="#ffffff" stroke="none" points="308,-233 308,-255 400,-255 400,-233 308,-233"/>
<polygon fill="none" stroke="black" points="308,-233 308,-255 400,-255 400,-233 308,-233"/>
<image xlink:href="../../images/foreignKeys.png" width="11px" height="12px" preserveAspectRatio="xMinYMin meet" x="313" y="-250"/>
<text text-anchor="start" x="328" y="-239.55" font-family="Helvetica,sans-Serif" font-size="11.00">user_id</text>
<polygon fill="none" stroke="black" points="400,-233 400,-255 473,-255 473,-233 400,-233"/>
<text text-anchor="start" x="403" y="-239.55" font-family="Helvetica,sans-Serif" font-size="11.00">bigint[19]</text>
<polygon fill="#ffffff" stroke="none" points="308,-211 308,-233 400,-233 400,-211 308,-211"/>
<polygon fill="none" stroke="black" points="308,-211 308,-233 400,-233 400,-211 308,-211"/>
<image xlink:href="../../images/foreignKeys.png" width="11px" height="12px" preserveAspectRatio="xMinYMin meet" x="313" y="-228"/>
<text text-anchor="start" x="328" y="-217.55" font-family="Helvetica,sans-Serif" font-size="11.00">area_id</text>
<polygon fill="none" stroke="black" points="400,-211 400,-233 473,-233 473,-211 400,-211"/>
<text text-anchor="start" x="403" y="-217.55" font-family="Helvetica,sans-Serif" font-size="11.00">bigint[19]</text>
<polygon fill="none" stroke="black" points="308,-189 308,-211 400,-211 400,-189 308,-189"/>
<text text-anchor="start" x="328" y="-195.55" font-family="Helvetica,sans-Serif" font-size="11.00">date</text>
<polygon fill="none" stroke="black" points="400,-189 400,-211 473,-211 473,-189 400,-189"/>
<text text-anchor="start" x="403" y="-195.55" font-family="Helvetica,sans-Serif" font-size="11.00">date[10]</text>
<polygon fill="none" stroke="black" points="308,-167 308,-189 400,-189 400,-167 308,-167"/>
<text text-anchor="start" x="328" y="-173.55" font-family="Helvetica,sans-Serif" font-size="11.00">fee_log</text>
<polygon fill="none" stroke="black" points="400,-167 400,-189 473,-189 473,-167 400,-167"/>
<text text-anchor="start" x="403" y="-173.55" font-family="Helvetica,sans-Serif" font-size="11.00">int[10]</text>
<polygon fill="none" stroke="black" points="308,-145 308,-167 400,-167 400,-145 308,-145"/>
<text text-anchor="start" x="328" y="-151.55" font-family="Helvetica,sans-Serif" font-size="11.00">created_at</text>
<polygon fill="none" stroke="black" points="400,-145 400,-167 473,-167 473,-145 400,-145"/>
<text text-anchor="start" x="402.75" y="-151.55" font-family="Helvetica,sans-Serif" font-size="11.00">timestamp[19]</text>
<polygon fill="none" stroke="black" points="308,-123 308,-145 400,-145 400,-123 308,-123"/>
<text text-anchor="start" x="328" y="-129.55" font-family="Helvetica,sans-Serif" font-size="11.00">updated_at</text>
<polygon fill="none" stroke="black" points="400,-123 400,-145 473,-145 473,-123 400,-123"/>
<text text-anchor="start" x="402.75" y="-129.55" font-family="Helvetica,sans-Serif" font-size="11.00">timestamp[19]</text>
<polygon fill="none" stroke="black" points="308,-101 308,-123 400,-123 400,-101 308,-101"/>
<text text-anchor="start" x="328" y="-107.55" font-family="Helvetica,sans-Serif" font-size="11.00">deleted_at</text>
<polygon fill="none" stroke="black" points="400,-101 400,-123 473,-123 473,-101 400,-101"/>
<text text-anchor="start" x="402.75" y="-107.55" font-family="Helvetica,sans-Serif" font-size="11.00">timestamp[19]</text>
<polygon fill="#ffffff" stroke="none" points="308,-83 308,-101 345,-101 345,-83 308,-83"/>
<polygon fill="none" stroke="black" points="308,-83 308,-101 345,-101 345,-83 308,-83"/>
<text text-anchor="start" x="311" y="-87.55" font-family="Helvetica,sans-Serif" font-size="11.00">&lt; 2</text>
<polygon fill="#ffffff" stroke="none" points="345,-83 345,-101 400,-101 400,-83 345,-83"/>
<polygon fill="none" stroke="black" points="345,-83 345,-101 400,-101 400,-83 345,-83"/>
<text text-anchor="start" x="364.75" y="-87.55" font-family="Helvetica,sans-Serif" font-size="11.00">8 rows</text>
<polygon fill="#ffffff" stroke="none" points="400,-83 400,-101 473,-101 473,-83 400,-83"/>
<polygon fill="none" stroke="black" points="400,-83 400,-101 473,-101 473,-83 400,-83"/>
<text text-anchor="start" x="454.25" y="-87.55" font-family="Helvetica,sans-Serif" font-size="11.00">0 &gt;</text>
<polygon fill="none" stroke="black" stroke-width="2" points="307,-82 307,-300 474,-300 474,-82 307,-82"/>
</a>
</g>
</g>
<!-- reservations&#45;&gt;areas -->
<g id="edge3" class="edge">
<title>reservations:w&#45;&gt;areas:e</title>
<path fill="none" stroke="black" d="M292.1,-217.5C271.15,-201.73 282.69,-150 247.5,-150"/>
<polygon fill="black" stroke="black" points="299.02,-219.59 305.64,-225.35 303.17,-220.84 306.36,-221.81 306.36,-221.81 306.36,-221.81 303.17,-220.84 307.72,-218.46 299.02,-219.59"/>
<ellipse fill="none" stroke="black" cx="294.31" cy="-218.17" rx="3.2" ry="3.2"/>
</g>
<!-- users -->
<g id="node5" class="node">
<title>users</title>
<g id="a_node5"><a xlink:href="../../tables/users.html" xlink:title="users" target="_top">
<polygon fill="#ffffff" stroke="none" points="150,-204 150,-350 257,-350 257,-204 150,-204"/>
<polygon fill="#f5f5f5" stroke="none" points="150,-328 150,-350 257,-350 257,-328 150,-328"/>
<polygon fill="none" stroke="black" points="150,-328 150,-350 257,-350 257,-328 150,-328"/>
<text text-anchor="start" x="154.38" y="-335.55" font-family="Helvetica,sans-Serif" font-weight="bold" font-size="11.00">users</text>
<text text-anchor="start" x="222.75" y="-334.55" font-family="Helvetica,sans-Serif" font-size="11.00">[table]</text>
<polygon fill="none" stroke="black" points="150,-306 150,-328 257,-328 257,-306 150,-306"/>
<image xlink:href="../../images/primaryKeys.png" width="11px" height="12px" preserveAspectRatio="xMinYMin meet" x="155" y="-323"/>
<text text-anchor="start" x="170" y="-312.55" font-family="Helvetica,sans-Serif" font-size="11.00">id</text>
<polygon fill="#ffffff" stroke="none" points="150,-284 150,-306 257,-306 257,-284 150,-284"/>
<polygon fill="none" stroke="black" points="150,-284 150,-306 257,-306 257,-284 150,-284"/>
<text text-anchor="start" x="170" y="-290.55" font-family="Helvetica,sans-Serif" font-size="11.00">name</text>
<polygon fill="#ffffff" stroke="none" points="150,-262 150,-284 257,-284 257,-262 150,-262"/>
<polygon fill="none" stroke="black" points="150,-262 150,-284 257,-284 257,-262 150,-262"/>
<text text-anchor="start" x="170" y="-268.55" font-family="Helvetica,sans-Serif" font-size="11.00">email</text>
<polygon fill="#ffffff" stroke="none" points="150,-240 150,-262 257,-262 257,-240 150,-240"/>
<polygon fill="none" stroke="black" points="150,-240 150,-262 257,-262 257,-240 150,-240"/>
<image xlink:href="../../images/foreignKeys.png" width="11px" height="12px" preserveAspectRatio="xMinYMin meet" x="155" y="-257"/>
<text text-anchor="start" x="170" y="-246.55" font-family="Helvetica,sans-Serif" font-size="11.00">attribute_id</text>
<polygon fill="none" stroke="black" points="150,-222 150,-240 257,-240 257,-222 150,-222"/>
<text text-anchor="start" x="153" y="-226.55" font-family="Helvetica,sans-Serif" font-size="11.00">...</text>
<polygon fill="#ffffff" stroke="none" points="150,-204 150,-222 184,-222 184,-204 150,-204"/>
<polygon fill="none" stroke="black" points="150,-204 150,-222 184,-222 184,-204 150,-204"/>
<text text-anchor="start" x="153" y="-208.55" font-family="Helvetica,sans-Serif" font-size="11.00">&lt; 1</text>
<polygon fill="#ffffff" stroke="none" points="184,-204 184,-222 229,-222 229,-204 184,-204"/>
<polygon fill="none" stroke="black" points="184,-204 184,-222 229,-222 229,-204 184,-204"/>
<text text-anchor="start" x="193.75" y="-208.55" font-family="Helvetica,sans-Serif" font-size="11.00">8 rows</text>
<polygon fill="#ffffff" stroke="none" points="229,-204 229,-222 257,-222 257,-204 229,-204"/>
<polygon fill="none" stroke="black" points="229,-204 229,-222 257,-222 257,-204 229,-204"/>
<text text-anchor="start" x="238.25" y="-208.55" font-family="Helvetica,sans-Serif" font-size="11.00">1 &gt;</text>
</a>
</g>
</g>
<!-- reservations&#45;&gt;users -->
<g id="edge4" class="edge">
<title>reservations:w&#45;&gt;users:e</title>
<path fill="none" stroke="black" d="M292.67,-249.25C275.65,-265.99 290.66,-317 258,-317"/>
<polygon fill="black" stroke="black" points="299.17,-246.87 307.92,-247.5 303.24,-245.38 306.37,-244.23 306.37,-244.23 306.37,-244.23 303.24,-245.38 305.45,-240.73 299.17,-246.87"/>
<ellipse fill="none" stroke="black" cx="294.56" cy="-248.56" rx="3.2" ry="3.2"/>
</g>
<!-- users&#45;&gt;attributes -->
<g id="edge5" class="edge">
<title>users:w&#45;&gt;attributes:e</title>
<path fill="none" stroke="black" d="M134.63,-245.25C123.03,-233.32 124.13,-207 102,-207"/>
<polygon fill="black" stroke="black" points="141.26,-247.9 147.35,-254.22 145.29,-249.51 148.38,-250.75 148.38,-250.75 148.38,-250.75 145.29,-249.51 150.03,-247.53 141.26,-247.9"/>
<ellipse fill="none" stroke="black" cx="136.7" cy="-246.08" rx="3.2" ry="3.2"/>
</g>
</g>
</svg>
