<?xml version="1.0" encoding="UTF-8" standalone="no"?>
<!DOCTYPE svg PUBLIC "-//W3C//DTD SVG 1.1//EN"
 "http://www.w3.org/Graphics/SVG/1.1/DTD/svg11.dtd">
<!-- Generated by graphviz version 12.0.0 (20240704.0754)
 -->
<!-- Title: oneDegreeRelationshipsDiagram Pages: 1 -->
<svg width="349pt" height="362pt"
 viewBox="0.00 0.00 349.00 362.00" xmlns="http://www.w3.org/2000/svg" xmlns:xlink="http://www.w3.org/1999/xlink">
<g id="graph0" class="graph" transform="scale(1 1) rotate(0) translate(4 358)">
<title>oneDegreeRelationshipsDiagram</title>
<polygon fill="#ffffff" stroke="none" points="-4,4 -4,-358 345,-358 345,4 -4,4"/>
<text text-anchor="middle" x="71.38" y="-5.55" font-family="Helvetica,sans-Serif" font-size="11.00">Generated by SchemaSpy</text>
<!-- reservations -->
<g id="node1" class="node">
<title>reservations</title>
<g id="a_node1"><a xlink:href="../../tables/reservations.html" xlink:title="reservations" target="_top">
<polygon fill="#ffffff" stroke="none" points="164,-81 164,-301 333,-301 333,-81 164,-81"/>
<polygon fill="#f5f5f5" stroke="none" points="166,-277 166,-299 331,-299 331,-277 166,-277"/>
<polygon fill="none" stroke="black" points="166,-277 166,-299 331,-299 331,-277 166,-277"/>
<text text-anchor="start" x="171" y="-284.55" font-family="Helvetica,sans-Serif" font-weight="bold" font-size="11.00">reservations</text>
<text text-anchor="start" x="296.75" y="-283.55" font-family="Helvetica,sans-Serif" font-size="11.00">[table]</text>
<polygon fill="none" stroke="black" points="166,-255 166,-277 258,-277 258,-255 166,-255"/>
<image xlink:href="../../images/primaryKeys.png" width="11px" height="12px" preserveAspectRatio="xMinYMin meet" x="171" y="-272"/>
<text text-anchor="start" x="186" y="-261.55" font-family="Helvetica,sans-Serif" font-size="11.00">id</text>
<polygon fill="none" stroke="black" points="258,-255 258,-277 331,-277 331,-255 258,-255"/>
<text text-anchor="start" x="261" y="-261.55" font-family="Helvetica,sans-Serif" font-size="11.00">bigint[19]</text>
<polygon fill="#ffffff" stroke="none" points="166,-233 166,-255 258,-255 258,-233 166,-233"/>
<polygon fill="none" stroke="black" points="166,-233 166,-255 258,-255 258,-233 166,-233"/>
<image xlink:href="../../images/foreignKeys.png" width="11px" height="12px" preserveAspectRatio="xMinYMin meet" x="171" y="-250"/>
<text text-anchor="start" x="186" y="-239.55" font-family="Helvetica,sans-Serif" font-size="11.00">user_id</text>
<polygon fill="none" stroke="black" points="258,-233 258,-255 331,-255 331,-233 258,-233"/>
<text text-anchor="start" x="261" y="-239.55" font-family="Helvetica,sans-Serif" font-size="11.00">bigint[19]</text>
<polygon fill="#ffffff" stroke="none" points="166,-211 166,-233 258,-233 258,-211 166,-211"/>
<polygon fill="none" stroke="black" points="166,-211 166,-233 258,-233 258,-211 166,-211"/>
<image xlink:href="../../images/foreignKeys.png" width="11px" height="12px" preserveAspectRatio="xMinYMin meet" x="171" y="-228"/>
<text text-anchor="start" x="186" y="-217.55" font-family="Helvetica,sans-Serif" font-size="11.00">area_id</text>
<polygon fill="none" stroke="black" points="258,-211 258,-233 331,-233 331,-211 258,-211"/>
<text text-anchor="start" x="261" y="-217.55" font-family="Helvetica,sans-Serif" font-size="11.00">bigint[19]</text>
<polygon fill="none" stroke="black" points="166,-189 166,-211 258,-211 258,-189 166,-189"/>
<text text-anchor="start" x="186" y="-195.55" font-family="Helvetica,sans-Serif" font-size="11.00">date</text>
<polygon fill="none" stroke="black" points="258,-189 258,-211 331,-211 331,-189 258,-189"/>
<text text-anchor="start" x="261" y="-195.55" font-family="Helvetica,sans-Serif" font-size="11.00">date[10]</text>
<polygon fill="none" stroke="black" points="166,-167 166,-189 258,-189 258,-167 166,-167"/>
<text text-anchor="start" x="186" y="-173.55" font-family="Helvetica,sans-Serif" font-size="11.00">fee_log</text>
<polygon fill="none" stroke="black" points="258,-167 258,-189 331,-189 331,-167 258,-167"/>
<text text-anchor="start" x="261" y="-173.55" font-family="Helvetica,sans-Serif" font-size="11.00">int[10]</text>
<polygon fill="none" stroke="black" points="166,-145 166,-167 258,-167 258,-145 166,-145"/>
<text text-anchor="start" x="186" y="-151.55" font-family="Helvetica,sans-Serif" font-size="11.00">created_at</text>
<polygon fill="none" stroke="black" points="258,-145 258,-167 331,-167 331,-145 258,-145"/>
<text text-anchor="start" x="260.75" y="-151.55" font-family="Helvetica,sans-Serif" font-size="11.00">timestamp[19]</text>
<polygon fill="none" stroke="black" points="166,-123 166,-145 258,-145 258,-123 166,-123"/>
<text text-anchor="start" x="186" y="-129.55" font-family="Helvetica,sans-Serif" font-size="11.00">updated_at</text>
<polygon fill="none" stroke="black" points="258,-123 258,-145 331,-145 331,-123 258,-123"/>
<text text-anchor="start" x="260.75" y="-129.55" font-family="Helvetica,sans-Serif" font-size="11.00">timestamp[19]</text>
<polygon fill="none" stroke="black" points="166,-101 166,-123 258,-123 258,-101 166,-101"/>
<text text-anchor="start" x="186" y="-107.55" font-family="Helvetica,sans-Serif" font-size="11.00">deleted_at</text>
<polygon fill="none" stroke="black" points="258,-101 258,-123 331,-123 331,-101 258,-101"/>
<text text-anchor="start" x="260.75" y="-107.55" font-family="Helvetica,sans-Serif" font-size="11.00">timestamp[19]</text>
<polygon fill="#ffffff" stroke="none" points="166,-83 166,-101 203,-101 203,-83 166,-83"/>
<polygon fill="none" stroke="black" points="166,-83 166,-101 203,-101 203,-83 166,-83"/>
<text text-anchor="start" x="169" y="-87.55" font-family="Helvetica,sans-Serif" font-size="11.00">&lt; 2</text>
<polygon fill="#ffffff" stroke="none" points="203,-83 203,-101 258,-101 258,-83 203,-83"/>
<polygon fill="none" stroke="black" points="203,-83 203,-101 258,-101 258,-83 203,-83"/>
<text text-anchor="start" x="222.75" y="-87.55" font-family="Helvetica,sans-Serif" font-size="11.00">8 rows</text>
<polygon fill="#ffffff" stroke="none" points="258,-83 258,-101 331,-101 331,-83 258,-83"/>
<polygon fill="none" stroke="black" points="258,-83 258,-101 331,-101 331,-83 258,-83"/>
<text text-anchor="start" x="312.25" y="-87.55" font-family="Helvetica,sans-Serif" font-size="11.00">0 &gt;</text>
<polygon fill="none" stroke="black" stroke-width="2" points="165,-82 165,-300 332,-300 332,-82 165,-82"/>
</a>
</g>
</g>
<!-- areas -->
<g id="node2" class="node">
<title>areas</title>
<g id="a_node2"><a xlink:href="../../tables/areas.html" xlink:title="areas" target="_top">
<polygon fill="#ffffff" stroke="none" points="18.5,-37 18.5,-183 104.5,-183 104.5,-37 18.5,-37"/>
<polygon fill="#f5f5f5" stroke="none" points="18.5,-161 18.5,-183 104.5,-183 104.5,-161 18.5,-161"/>
<polygon fill="none" stroke="black" points="18.5,-161 18.5,-183 104.5,-183 104.5,-161 18.5,-161"/>
<text text-anchor="start" x="22.75" y="-168.55" font-family="Helvetica,sans-Serif" font-weight="bold" font-size="11.00">areas</text>
<text text-anchor="start" x="70.25" y="-167.55" font-family="Helvetica,sans-Serif" font-size="11.00">[table]</text>
<polygon fill="none" stroke="black" points="18.5,-139 18.5,-161 104.5,-161 104.5,-139 18.5,-139"/>
<image xlink:href="../../images/primaryKeys.png" width="11px" height="12px" preserveAspectRatio="xMinYMin meet" x="23.5" y="-156"/>
<text text-anchor="start" x="38.5" y="-145.55" font-family="Helvetica,sans-Serif" font-size="11.00">id</text>
<polygon fill="#ffffff" stroke="none" points="18.5,-117 18.5,-139 104.5,-139 104.5,-117 18.5,-117"/>
<polygon fill="none" stroke="black" points="18.5,-117 18.5,-139 104.5,-139 104.5,-117 18.5,-117"/>
<text text-anchor="start" x="38.5" y="-123.55" font-family="Helvetica,sans-Serif" font-size="11.00">name</text>
<polygon fill="#ffffff" stroke="none" points="18.5,-95 18.5,-117 104.5,-117 104.5,-95 18.5,-95"/>
<polygon fill="none" stroke="black" points="18.5,-95 18.5,-117 104.5,-117 104.5,-95 18.5,-95"/>
<image xlink:href="../../images/foreignKeys.png" width="11px" height="12px" preserveAspectRatio="xMinYMin meet" x="23.5" y="-112"/>
<text text-anchor="start" x="38.5" y="-101.55" font-family="Helvetica,sans-Serif" font-size="11.00">attribute_id</text>
<polygon fill="#ffffff" stroke="none" points="18.5,-73 18.5,-95 104.5,-95 104.5,-73 18.5,-73"/>
<polygon fill="none" stroke="black" points="18.5,-73 18.5,-95 104.5,-95 104.5,-73 18.5,-73"/>
<image xlink:href="../../images/foreignKeys.png" width="11px" height="12px" preserveAspectRatio="xMinYMin meet" x="23.5" y="-90"/>
<text text-anchor="start" x="38.5" y="-79.55" font-family="Helvetica,sans-Serif" font-size="11.00">fee_id</text>
<polygon fill="none" stroke="black" points="18.5,-55 18.5,-73 104.5,-73 104.5,-55 18.5,-55"/>
<text text-anchor="start" x="21.5" y="-59.55" font-family="Helvetica,sans-Serif" font-size="11.00">...</text>
<polygon fill="#ffffff" stroke="none" points="18.5,-37 18.5,-55 42.5,-55 42.5,-37 18.5,-37"/>
<polygon fill="none" stroke="black" points="18.5,-37 18.5,-55 42.5,-55 42.5,-37 18.5,-37"/>
<text text-anchor="start" x="21.5" y="-41.55" font-family="Helvetica,sans-Serif" font-size="11.00">&lt; 2</text>
<polygon fill="#ffffff" stroke="none" points="42.5,-37 42.5,-55 81.5,-55 81.5,-37 42.5,-37"/>
<polygon fill="none" stroke="black" points="42.5,-37 42.5,-55 81.5,-55 81.5,-37 42.5,-37"/>
<text text-anchor="start" x="46.25" y="-41.55" font-family="Helvetica,sans-Serif" font-size="11.00">6 rows</text>
<polygon fill="#ffffff" stroke="none" points="81.5,-37 81.5,-55 104.5,-55 104.5,-37 81.5,-37"/>
<polygon fill="none" stroke="black" points="81.5,-37 81.5,-55 104.5,-55 104.5,-37 81.5,-37"/>
<text text-anchor="start" x="85.75" y="-41.55" font-family="Helvetica,sans-Serif" font-size="11.00">1 &gt;</text>
</a>
</g>
</g>
<!-- reservations&#45;&gt;areas -->
<g id="edge1" class="edge">
<title>reservations:w&#45;&gt;areas:e</title>
<path fill="none" stroke="black" d="M150.1,-217.5C129.15,-201.73 140.69,-150 105.5,-150"/>
<polygon fill="black" stroke="black" points="157.02,-219.59 163.64,-225.35 161.17,-220.84 164.36,-221.81 164.36,-221.81 164.36,-221.81 161.17,-220.84 165.72,-218.46 157.02,-219.59"/>
<ellipse fill="none" stroke="black" cx="152.31" cy="-218.17" rx="3.2" ry="3.2"/>
</g>
<!-- users -->
<g id="node3" class="node">
<title>users</title>
<g id="a_node3"><a xlink:href="../../tables/users.html" xlink:title="users" target="_top">
<polygon fill="#ffffff" stroke="none" points="8,-204 8,-350 115,-350 115,-204 8,-204"/>
<polygon fill="#f5f5f5" stroke="none" points="8,-328 8,-350 115,-350 115,-328 8,-328"/>
<polygon fill="none" stroke="black" points="8,-328 8,-350 115,-350 115,-328 8,-328"/>
<text text-anchor="start" x="12.38" y="-335.55" font-family="Helvetica,sans-Serif" font-weight="bold" font-size="11.00">users</text>
<text text-anchor="start" x="80.75" y="-334.55" font-family="Helvetica,sans-Serif" font-size="11.00">[table]</text>
<polygon fill="none" stroke="black" points="8,-306 8,-328 115,-328 115,-306 8,-306"/>
<image xlink:href="../../images/primaryKeys.png" width="11px" height="12px" preserveAspectRatio="xMinYMin meet" x="13" y="-323"/>
<text text-anchor="start" x="28" y="-312.55" font-family="Helvetica,sans-Serif" font-size="11.00">id</text>
<polygon fill="#ffffff" stroke="none" points="8,-284 8,-306 115,-306 115,-284 8,-284"/>
<polygon fill="none" stroke="black" points="8,-284 8,-306 115,-306 115,-284 8,-284"/>
<text text-anchor="start" x="28" y="-290.55" font-family="Helvetica,sans-Serif" font-size="11.00">name</text>
<polygon fill="#ffffff" stroke="none" points="8,-262 8,-284 115,-284 115,-262 8,-262"/>
<polygon fill="none" stroke="black" points="8,-262 8,-284 115,-284 115,-262 8,-262"/>
<text text-anchor="start" x="28" y="-268.55" font-family="Helvetica,sans-Serif" font-size="11.00">email</text>
<polygon fill="#ffffff" stroke="none" points="8,-240 8,-262 115,-262 115,-240 8,-240"/>
<polygon fill="none" stroke="black" points="8,-240 8,-262 115,-262 115,-240 8,-240"/>
<image xlink:href="../../images/foreignKeys.png" width="11px" height="12px" preserveAspectRatio="xMinYMin meet" x="13" y="-257"/>
<text text-anchor="start" x="28" y="-246.55" font-family="Helvetica,sans-Serif" font-size="11.00">attribute_id</text>
<polygon fill="none" stroke="black" points="8,-222 8,-240 115,-240 115,-222 8,-222"/>
<text text-anchor="start" x="11" y="-226.55" font-family="Helvetica,sans-Serif" font-size="11.00">...</text>
<polygon fill="#ffffff" stroke="none" points="8,-204 8,-222 42,-222 42,-204 8,-204"/>
<polygon fill="none" stroke="black" points="8,-204 8,-222 42,-222 42,-204 8,-204"/>
<text text-anchor="start" x="11" y="-208.55" font-family="Helvetica,sans-Serif" font-size="11.00">&lt; 1</text>
<polygon fill="#ffffff" stroke="none" points="42,-204 42,-222 87,-222 87,-204 42,-204"/>
<polygon fill="none" stroke="black" points="42,-204 42,-222 87,-222 87,-204 42,-204"/>
<text text-anchor="start" x="51.75" y="-208.55" font-family="Helvetica,sans-Serif" font-size="11.00">8 rows</text>
<polygon fill="#ffffff" stroke="none" points="87,-204 87,-222 115,-222 115,-204 87,-204"/>
<polygon fill="none" stroke="black" points="87,-204 87,-222 115,-222 115,-204 87,-204"/>
<text text-anchor="start" x="96.25" y="-208.55" font-family="Helvetica,sans-Serif" font-size="11.00">1 &gt;</text>
</a>
</g>
</g>
<!-- reservations&#45;&gt;users -->
<g id="edge2" class="edge">
<title>reservations:w&#45;&gt;users:e</title>
<path fill="none" stroke="black" d="M150.67,-249.25C133.65,-265.99 148.66,-317 116,-317"/>
<polygon fill="black" stroke="black" points="157.17,-246.87 165.92,-247.5 161.24,-245.38 164.37,-244.23 164.37,-244.23 164.37,-244.23 161.24,-245.38 163.45,-240.73 157.17,-246.87"/>
<ellipse fill="none" stroke="black" cx="152.56" cy="-248.56" rx="3.2" ry="3.2"/>
</g>
</g>
</svg>
