<?xml version="1.0" encoding="UTF-8" standalone="no"?>
<!DOCTYPE svg PUBLIC "-//W3C//DTD SVG 1.1//EN"
 "http://www.w3.org/Graphics/SVG/1.1/DTD/svg11.dtd">
<!-- Generated by graphviz version 12.0.0 (20240704.0754)
 -->
<!-- Title: oneDegreeRelationshipsDiagram Pages: 1 -->
<svg width="509pt" height="377pt"
 viewBox="0.00 0.00 509.00 377.00" xmlns="http://www.w3.org/2000/svg" xmlns:xlink="http://www.w3.org/1999/xlink">
<g id="graph0" class="graph" transform="scale(1 1) rotate(0) translate(4 373)">
<title>oneDegreeRelationshipsDiagram</title>
<polygon fill="#ffffff" stroke="none" points="-4,4 -4,-373 505,-373 505,4 -4,4"/>
<text text-anchor="middle" x="71.38" y="-5.55" font-family="Helvetica,sans-Serif" font-size="11.00">Generated by SchemaSpy</text>
<!-- reservations -->
<g id="node1" class="node">
<title>reservations</title>
<g id="a_node1"><a xlink:href="../../tables/reservations.html" xlink:title="reservations" target="_top">
<polygon fill="#ffffff" stroke="none" points="383,-241 383,-365 493,-365 493,-241 383,-241"/>
<polygon fill="#f5f5f5" stroke="none" points="383,-343 383,-365 493,-365 493,-343 383,-343"/>
<polygon fill="none" stroke="black" points="383,-343 383,-365 493,-365 493,-343 383,-343"/>
<text text-anchor="start" x="388" y="-350.55" font-family="Helvetica,sans-Serif" font-weight="bold" font-size="11.00">reservations</text>
<text text-anchor="start" x="459" y="-349.55" font-family="Helvetica,sans-Serif" font-size="11.00">[table]</text>
<polygon fill="none" stroke="black" points="383,-321 383,-343 493,-343 493,-321 383,-321"/>
<image xlink:href="../../images/primaryKeys.png" width="11px" height="12px" preserveAspectRatio="xMinYMin meet" x="388" y="-338"/>
<text text-anchor="start" x="412" y="-327.55" font-family="Helvetica,sans-Serif" font-size="11.00">id</text>
<polygon fill="#ffffff" stroke="none" points="383,-299 383,-321 493,-321 493,-299 383,-299"/>
<polygon fill="none" stroke="black" points="383,-299 383,-321 493,-321 493,-299 383,-299"/>
<image xlink:href="../../images/foreignKeys.png" width="11px" height="12px" preserveAspectRatio="xMinYMin meet" x="388" y="-316"/>
<text text-anchor="start" x="412" y="-305.55" font-family="Helvetica,sans-Serif" font-size="11.00">user_id</text>
<polygon fill="#ffffff" stroke="none" points="383,-277 383,-299 493,-299 493,-277 383,-277"/>
<polygon fill="none" stroke="black" points="383,-277 383,-299 493,-299 493,-277 383,-277"/>
<image xlink:href="../../images/foreignKeys.png" width="11px" height="12px" preserveAspectRatio="xMinYMin meet" x="388" y="-294"/>
<text text-anchor="start" x="412" y="-283.55" font-family="Helvetica,sans-Serif" font-size="11.00">area_id</text>
<polygon fill="none" stroke="black" points="383,-259 383,-277 493,-277 493,-259 383,-259"/>
<text text-anchor="start" x="386" y="-263.55" font-family="Helvetica,sans-Serif" font-size="11.00">...</text>
<polygon fill="#ffffff" stroke="none" points="383,-241 383,-259 423,-259 423,-241 383,-241"/>
<polygon fill="none" stroke="black" points="383,-241 383,-259 423,-259 423,-241 383,-241"/>
<text text-anchor="start" x="386" y="-245.55" font-family="Helvetica,sans-Serif" font-size="11.00">&lt; 2</text>
<polygon fill="#ffffff" stroke="none" points="423,-241 423,-259 471,-259 471,-241 423,-241"/>
<polygon fill="none" stroke="black" points="423,-241 423,-259 471,-259 471,-241 423,-241"/>
<text text-anchor="start" x="435.75" y="-245.55" font-family="Helvetica,sans-Serif" font-size="11.00">8 rows</text>
<polygon fill="#ffffff" stroke="none" points="471,-241 471,-259 493,-259 493,-241 471,-241"/>
<polygon fill="none" stroke="black" points="471,-241 471,-259 493,-259 493,-241 471,-241"/>
<text text-anchor="start" x="484" y="-245.55" font-family="Helvetica,sans-Serif" font-size="11.00"> &#160;</text>
</a>
</g>
</g>
<!-- users -->
<g id="node2" class="node">
<title>users</title>
<g id="a_node2"><a xlink:href="../../tables/users.html" xlink:title="users" target="_top">
<polygon fill="#ffffff" stroke="none" points="150,-37 150,-345 334,-345 334,-37 150,-37"/>
<polygon fill="#f5f5f5" stroke="none" points="152,-321 152,-343 332,-343 332,-321 152,-321"/>
<polygon fill="none" stroke="black" points="152,-321 152,-343 332,-343 332,-321 152,-321"/>
<text text-anchor="start" x="156.38" y="-328.55" font-family="Helvetica,sans-Serif" font-weight="bold" font-size="11.00">users</text>
<text text-anchor="start" x="297.75" y="-327.55" font-family="Helvetica,sans-Serif" font-size="11.00">[table]</text>
<polygon fill="none" stroke="black" points="152,-299 152,-321 259,-321 259,-299 152,-299"/>
<image xlink:href="../../images/primaryKeys.png" width="11px" height="12px" preserveAspectRatio="xMinYMin meet" x="157" y="-316"/>
<text text-anchor="start" x="172" y="-305.55" font-family="Helvetica,sans-Serif" font-size="11.00">id</text>
<polygon fill="none" stroke="black" points="259,-299 259,-321 332,-321 332,-299 259,-299"/>
<text text-anchor="start" x="262" y="-305.55" font-family="Helvetica,sans-Serif" font-size="11.00">bigint[19]</text>
<polygon fill="#ffffff" stroke="none" points="152,-277 152,-299 259,-299 259,-277 152,-277"/>
<polygon fill="none" stroke="black" points="152,-277 152,-299 259,-299 259,-277 152,-277"/>
<text text-anchor="start" x="172" y="-283.55" font-family="Helvetica,sans-Serif" font-size="11.00">name</text>
<polygon fill="none" stroke="black" points="259,-277 259,-299 332,-299 332,-277 259,-277"/>
<text text-anchor="start" x="262" y="-283.55" font-family="Helvetica,sans-Serif" font-size="11.00">varchar[50]</text>
<polygon fill="#ffffff" stroke="none" points="152,-255 152,-277 259,-277 259,-255 152,-255"/>
<polygon fill="none" stroke="black" points="152,-255 152,-277 259,-277 259,-255 152,-255"/>
<text text-anchor="start" x="172" y="-261.55" font-family="Helvetica,sans-Serif" font-size="11.00">email</text>
<polygon fill="none" stroke="black" points="259,-255 259,-277 332,-277 332,-255 259,-255"/>
<text text-anchor="start" x="262" y="-261.55" font-family="Helvetica,sans-Serif" font-size="11.00">varchar[50]</text>
<polygon fill="none" stroke="black" points="152,-233 152,-255 259,-255 259,-233 152,-233"/>
<text text-anchor="start" x="172" y="-239.55" font-family="Helvetica,sans-Serif" font-size="11.00">email_verified</text>
<polygon fill="none" stroke="black" points="259,-233 259,-255 332,-255 332,-233 259,-233"/>
<text text-anchor="start" x="262" y="-239.55" font-family="Helvetica,sans-Serif" font-size="11.00">varchar[50]</text>
<polygon fill="none" stroke="black" points="152,-211 152,-233 259,-233 259,-211 152,-211"/>
<text text-anchor="start" x="172" y="-217.55" font-family="Helvetica,sans-Serif" font-size="11.00">password</text>
<polygon fill="none" stroke="black" points="259,-211 259,-233 332,-233 332,-211 259,-211"/>
<text text-anchor="start" x="262" y="-217.55" font-family="Helvetica,sans-Serif" font-size="11.00">varchar[255]</text>
<polygon fill="none" stroke="black" points="152,-189 152,-211 259,-211 259,-189 152,-189"/>
<text text-anchor="start" x="172" y="-195.55" font-family="Helvetica,sans-Serif" font-size="11.00">birthday</text>
<polygon fill="none" stroke="black" points="259,-189 259,-211 332,-211 332,-189 259,-189"/>
<text text-anchor="start" x="262" y="-195.55" font-family="Helvetica,sans-Serif" font-size="11.00">date[10]</text>
<polygon fill="none" stroke="black" points="152,-167 152,-189 259,-189 259,-167 152,-167"/>
<text text-anchor="start" x="172" y="-173.55" font-family="Helvetica,sans-Serif" font-size="11.00">phone_number</text>
<polygon fill="none" stroke="black" points="259,-167 259,-189 332,-189 332,-167 259,-167"/>
<text text-anchor="start" x="262" y="-173.55" font-family="Helvetica,sans-Serif" font-size="11.00">varchar[50]</text>
<polygon fill="none" stroke="black" points="152,-145 152,-167 259,-167 259,-145 152,-145"/>
<text text-anchor="start" x="172" y="-151.55" font-family="Helvetica,sans-Serif" font-size="11.00">plate_number</text>
<polygon fill="none" stroke="black" points="259,-145 259,-167 332,-167 332,-145 259,-145"/>
<text text-anchor="start" x="262" y="-151.55" font-family="Helvetica,sans-Serif" font-size="11.00">varchar[50]</text>
<polygon fill="#ffffff" stroke="none" points="152,-123 152,-145 259,-145 259,-123 152,-123"/>
<polygon fill="none" stroke="black" points="152,-123 152,-145 259,-145 259,-123 152,-123"/>
<image xlink:href="../../images/foreignKeys.png" width="11px" height="12px" preserveAspectRatio="xMinYMin meet" x="157" y="-140"/>
<text text-anchor="start" x="172" y="-129.55" font-family="Helvetica,sans-Serif" font-size="11.00">attribute_id</text>
<polygon fill="none" stroke="black" points="259,-123 259,-145 332,-145 332,-123 259,-123"/>
<text text-anchor="start" x="262" y="-129.55" font-family="Helvetica,sans-Serif" font-size="11.00">bigint[19]</text>
<polygon fill="none" stroke="black" points="152,-101 152,-123 259,-123 259,-101 152,-101"/>
<text text-anchor="start" x="172" y="-107.55" font-family="Helvetica,sans-Serif" font-size="11.00">created_at</text>
<polygon fill="none" stroke="black" points="259,-101 259,-123 332,-123 332,-101 259,-101"/>
<text text-anchor="start" x="261.75" y="-107.55" font-family="Helvetica,sans-Serif" font-size="11.00">timestamp[19]</text>
<polygon fill="none" stroke="black" points="152,-79 152,-101 259,-101 259,-79 152,-79"/>
<text text-anchor="start" x="172" y="-85.55" font-family="Helvetica,sans-Serif" font-size="11.00">updated_at</text>
<polygon fill="none" stroke="black" points="259,-79 259,-101 332,-101 332,-79 259,-79"/>
<text text-anchor="start" x="261.75" y="-85.55" font-family="Helvetica,sans-Serif" font-size="11.00">timestamp[19]</text>
<polygon fill="none" stroke="black" points="152,-57 152,-79 259,-79 259,-57 152,-57"/>
<text text-anchor="start" x="172" y="-63.55" font-family="Helvetica,sans-Serif" font-size="11.00">deleted_at</text>
<polygon fill="none" stroke="black" points="259,-57 259,-79 332,-79 332,-57 259,-57"/>
<text text-anchor="start" x="261.75" y="-63.55" font-family="Helvetica,sans-Serif" font-size="11.00">timestamp[19]</text>
<polygon fill="#ffffff" stroke="none" points="152,-39 152,-57 197,-57 197,-39 152,-39"/>
<polygon fill="none" stroke="black" points="152,-39 152,-57 197,-57 197,-39 152,-39"/>
<text text-anchor="start" x="155" y="-43.55" font-family="Helvetica,sans-Serif" font-size="11.00">&lt; 1</text>
<polygon fill="#ffffff" stroke="none" points="197,-39 197,-57 259,-57 259,-39 197,-39"/>
<polygon fill="none" stroke="black" points="197,-39 197,-57 259,-57 259,-39 197,-39"/>
<text text-anchor="start" x="223.75" y="-43.55" font-family="Helvetica,sans-Serif" font-size="11.00">8 rows</text>
<polygon fill="#ffffff" stroke="none" points="259,-39 259,-57 332,-57 332,-39 259,-39"/>
<polygon fill="none" stroke="black" points="259,-39 259,-57 332,-57 332,-39 259,-39"/>
<text text-anchor="start" x="313.25" y="-43.55" font-family="Helvetica,sans-Serif" font-size="11.00">1 &gt;</text>
<polygon fill="none" stroke="black" stroke-width="2" points="151,-38 151,-344 333,-344 333,-38 151,-38"/>
</a>
</g>
</g>
<!-- reservations&#45;&gt;users -->
<g id="edge1" class="edge">
<title>reservations:w&#45;&gt;users:e</title>
<path fill="none" stroke="black" d="M366.42,-310C355.71,-310 348.48,-310 333,-310"/>
<polygon fill="black" stroke="black" points="373.67,-310 381.67,-313.6 378,-310 381.33,-310 381.33,-310 381.33,-310 378,-310 381.67,-306.4 373.67,-310"/>
<ellipse fill="none" stroke="black" cx="368.75" cy="-310" rx="3.2" ry="3.2"/>
</g>
<!-- attributes -->
<g id="node3" class="node">
<title>attributes</title>
<g id="a_node3"><a xlink:href="../../tables/attributes.html" xlink:title="attributes" target="_top">
<polygon fill="#ffffff" stroke="none" points="8,-65 8,-167 101,-167 101,-65 8,-65"/>
<polygon fill="#f5f5f5" stroke="none" points="8,-145 8,-167 101,-167 101,-145 8,-145"/>
<polygon fill="none" stroke="black" points="8,-145 8,-167 101,-167 101,-145 8,-145"/>
<text text-anchor="start" x="12.88" y="-152.55" font-family="Helvetica,sans-Serif" font-weight="bold" font-size="11.00">attributes</text>
<text text-anchor="start" x="67" y="-151.55" font-family="Helvetica,sans-Serif" font-size="11.00">[table]</text>
<polygon fill="none" stroke="black" points="8,-123 8,-145 101,-145 101,-123 8,-123"/>
<image xlink:href="../../images/primaryKeys.png" width="11px" height="12px" preserveAspectRatio="xMinYMin meet" x="13" y="-140"/>
<text text-anchor="start" x="32" y="-129.55" font-family="Helvetica,sans-Serif" font-size="11.00">id</text>
<polygon fill="#ffffff" stroke="none" points="8,-101 8,-123 101,-123 101,-101 8,-101"/>
<polygon fill="none" stroke="black" points="8,-101 8,-123 101,-123 101,-101 8,-101"/>
<text text-anchor="start" x="32" y="-107.55" font-family="Helvetica,sans-Serif" font-size="11.00">name</text>
<polygon fill="none" stroke="black" points="8,-83 8,-101 101,-101 101,-83 8,-83"/>
<text text-anchor="start" x="11" y="-87.55" font-family="Helvetica,sans-Serif" font-size="11.00">...</text>
<polygon fill="#ffffff" stroke="none" points="8,-65 8,-83 31,-83 31,-65 8,-65"/>
<polygon fill="none" stroke="black" points="8,-65 8,-83 31,-83 31,-65 8,-65"/>
<text text-anchor="start" x="11" y="-69.55" font-family="Helvetica,sans-Serif" font-size="11.00"> &#160;</text>
<polygon fill="#ffffff" stroke="none" points="31,-65 31,-83 74,-83 74,-65 31,-65"/>
<polygon fill="none" stroke="black" points="31,-65 31,-83 74,-83 74,-65 31,-65"/>
<text text-anchor="start" x="38.75" y="-69.55" font-family="Helvetica,sans-Serif" font-size="11.00">8 rows</text>
<polygon fill="#ffffff" stroke="none" points="74,-65 74,-83 101,-83 101,-65 74,-65"/>
<polygon fill="none" stroke="black" points="74,-65 74,-83 101,-83 101,-65 74,-65"/>
<text text-anchor="start" x="82.25" y="-69.55" font-family="Helvetica,sans-Serif" font-size="11.00">2 &gt;</text>
</a>
</g>
</g>
<!-- users&#45;&gt;attributes -->
<g id="edge2" class="edge">
<title>users:w&#45;&gt;attributes:e</title>
<path fill="none" stroke="black" d="M135.42,-134C124.71,-134 117.48,-134 102,-134"/>
<polygon fill="black" stroke="black" points="142.67,-134 150.67,-137.6 147,-134 150.33,-134 150.33,-134 150.33,-134 147,-134 150.67,-130.4 142.67,-134"/>
<ellipse fill="none" stroke="black" cx="137.75" cy="-134" rx="3.2" ry="3.2"/>
</g>
</g>
</svg>
