<?xml version="1.0" encoding="UTF-8" standalone="no"?>
<!DOCTYPE svg PUBLIC "-//W3C//DTD SVG 1.1//EN"
 "http://www.w3.org/Graphics/SVG/1.1/DTD/svg11.dtd">
<!-- Generated by graphviz version 12.0.0 (20240704.0754)
 -->
<!-- Title: twoDegreesRelationshipsDiagram Pages: 1 -->
<svg width="509pt" height="436pt"
 viewBox="0.00 0.00 509.00 436.00" xmlns="http://www.w3.org/2000/svg" xmlns:xlink="http://www.w3.org/1999/xlink">
<g id="graph0" class="graph" transform="scale(1 1) rotate(0) translate(4 432)">
<title>twoDegreesRelationshipsDiagram</title>
<polygon fill="#ffffff" stroke="none" points="-4,4 -4,-432 505,-432 505,4 -4,4"/>
<text text-anchor="middle" x="71.38" y="-5.55" font-family="Helvetica,sans-Serif" font-size="11.00">Generated by SchemaSpy</text>
<!-- areas -->
<g id="node1" class="node">
<title>areas</title>
<g id="a_node1"><a xlink:href="../../tables/areas.html" xlink:title="areas" target="_top">
<polygon fill="#ffffff" stroke="none" points="202,-37 202,-95 282,-95 282,-37 202,-37"/>
<polygon fill="#f5f5f5" stroke="none" points="202,-73 202,-95 282,-95 282,-73 202,-73"/>
<polygon fill="none" stroke="black" points="202,-73 202,-95 282,-95 282,-73 202,-73"/>
<text text-anchor="start" x="206.25" y="-80.55" font-family="Helvetica,sans-Serif" font-weight="bold" font-size="11.00">areas</text>
<text text-anchor="start" x="247.75" y="-79.55" font-family="Helvetica,sans-Serif" font-size="11.00">[table]</text>
<polygon fill="none" stroke="black" points="202,-55 202,-73 282,-73 282,-55 202,-55"/>
<text text-anchor="start" x="205" y="-59.55" font-family="Helvetica,sans-Serif" font-size="11.00">...</text>
<polygon fill="#ffffff" stroke="none" points="202,-37 202,-55 223,-55 223,-37 202,-37"/>
<polygon fill="none" stroke="black" points="202,-37 202,-55 223,-55 223,-37 202,-37"/>
<text text-anchor="start" x="204.62" y="-41.55" font-family="Helvetica,sans-Serif" font-size="11.00">&lt; 2</text>
<polygon fill="#ffffff" stroke="none" points="223,-37 223,-55 261,-55 261,-37 223,-37"/>
<polygon fill="none" stroke="black" points="223,-37 223,-55 261,-55 261,-37 223,-37"/>
<text text-anchor="start" x="225.88" y="-41.55" font-family="Helvetica,sans-Serif" font-size="11.00">6 rows</text>
<polygon fill="#ffffff" stroke="none" points="261,-37 261,-55 282,-55 282,-37 261,-37"/>
<polygon fill="none" stroke="black" points="261,-37 261,-55 282,-55 282,-37 261,-37"/>
<text text-anchor="start" x="263.62" y="-41.55" font-family="Helvetica,sans-Serif" font-size="11.00">1 &gt;</text>
</a>
</g>
</g>
<!-- attributes -->
<g id="node2" class="node">
<title>attributes</title>
<g id="a_node2"><a xlink:href="../../tables/attributes.html" xlink:title="attributes" target="_top">
<polygon fill="#ffffff" stroke="none" points="8,-69 8,-171 101,-171 101,-69 8,-69"/>
<polygon fill="#f5f5f5" stroke="none" points="8,-149 8,-171 101,-171 101,-149 8,-149"/>
<polygon fill="none" stroke="black" points="8,-149 8,-171 101,-171 101,-149 8,-149"/>
<text text-anchor="start" x="12.88" y="-156.55" font-family="Helvetica,sans-Serif" font-weight="bold" font-size="11.00">attributes</text>
<text text-anchor="start" x="67" y="-155.55" font-family="Helvetica,sans-Serif" font-size="11.00">[table]</text>
<polygon fill="none" stroke="black" points="8,-127 8,-149 101,-149 101,-127 8,-127"/>
<image xlink:href="../../images/primaryKeys.png" width="11px" height="12px" preserveAspectRatio="xMinYMin meet" x="13" y="-144"/>
<text text-anchor="start" x="32" y="-133.55" font-family="Helvetica,sans-Serif" font-size="11.00">id</text>
<polygon fill="#ffffff" stroke="none" points="8,-105 8,-127 101,-127 101,-105 8,-105"/>
<polygon fill="none" stroke="black" points="8,-105 8,-127 101,-127 101,-105 8,-105"/>
<text text-anchor="start" x="32" y="-111.55" font-family="Helvetica,sans-Serif" font-size="11.00">name</text>
<polygon fill="none" stroke="black" points="8,-87 8,-105 101,-105 101,-87 8,-87"/>
<text text-anchor="start" x="11" y="-91.55" font-family="Helvetica,sans-Serif" font-size="11.00">...</text>
<polygon fill="#ffffff" stroke="none" points="8,-69 8,-87 31,-87 31,-69 8,-69"/>
<polygon fill="none" stroke="black" points="8,-69 8,-87 31,-87 31,-69 8,-69"/>
<text text-anchor="start" x="11" y="-73.55" font-family="Helvetica,sans-Serif" font-size="11.00"> &#160;</text>
<polygon fill="#ffffff" stroke="none" points="31,-69 31,-87 74,-87 74,-69 31,-69"/>
<polygon fill="none" stroke="black" points="31,-69 31,-87 74,-87 74,-69 31,-69"/>
<text text-anchor="start" x="38.75" y="-73.55" font-family="Helvetica,sans-Serif" font-size="11.00">8 rows</text>
<polygon fill="#ffffff" stroke="none" points="74,-69 74,-87 101,-87 101,-69 74,-69"/>
<polygon fill="none" stroke="black" points="74,-69 74,-87 101,-87 101,-69 74,-69"/>
<text text-anchor="start" x="82.25" y="-73.55" font-family="Helvetica,sans-Serif" font-size="11.00">2 &gt;</text>
</a>
</g>
</g>
<!-- areas&#45;&gt;attributes -->
<g id="edge1" class="edge">
<title>areas:w&#45;&gt;attributes:e</title>
<path fill="none" stroke="black" d="M185.36,-66.3C167.53,-72.39 162.48,-89.48 142,-105 123.63,-118.92 125.05,-138 102,-138"/>
<polygon fill="black" stroke="black" points="192.75,-65.21 201.19,-67.61 197.04,-64.58 200.34,-64.1 200.34,-64.1 200.34,-64.1 197.04,-64.58 200.14,-60.49 192.75,-65.21"/>
<ellipse fill="none" stroke="black" cx="187.89" cy="-65.93" rx="3.2" ry="3.2"/>
</g>
<!-- reservations -->
<g id="node3" class="node">
<title>reservations</title>
<g id="a_node3"><a xlink:href="../../tables/reservations.html" xlink:title="reservations" target="_top">
<polygon fill="#ffffff" stroke="none" points="383,-168 383,-292 493,-292 493,-168 383,-168"/>
<polygon fill="#f5f5f5" stroke="none" points="383,-270 383,-292 493,-292 493,-270 383,-270"/>
<polygon fill="none" stroke="black" points="383,-270 383,-292 493,-292 493,-270 383,-270"/>
<text text-anchor="start" x="388" y="-277.55" font-family="Helvetica,sans-Serif" font-weight="bold" font-size="11.00">reservations</text>
<text text-anchor="start" x="459" y="-276.55" font-family="Helvetica,sans-Serif" font-size="11.00">[table]</text>
<polygon fill="none" stroke="black" points="383,-248 383,-270 493,-270 493,-248 383,-248"/>
<image xlink:href="../../images/primaryKeys.png" width="11px" height="12px" preserveAspectRatio="xMinYMin meet" x="388" y="-265"/>
<text text-anchor="start" x="412" y="-254.55" font-family="Helvetica,sans-Serif" font-size="11.00">id</text>
<polygon fill="#ffffff" stroke="none" points="383,-226 383,-248 493,-248 493,-226 383,-226"/>
<polygon fill="none" stroke="black" points="383,-226 383,-248 493,-248 493,-226 383,-226"/>
<image xlink:href="../../images/foreignKeys.png" width="11px" height="12px" preserveAspectRatio="xMinYMin meet" x="388" y="-243"/>
<text text-anchor="start" x="412" y="-232.55" font-family="Helvetica,sans-Serif" font-size="11.00">user_id</text>
<polygon fill="#ffffff" stroke="none" points="383,-204 383,-226 493,-226 493,-204 383,-204"/>
<polygon fill="none" stroke="black" points="383,-204 383,-226 493,-226 493,-204 383,-204"/>
<image xlink:href="../../images/foreignKeys.png" width="11px" height="12px" preserveAspectRatio="xMinYMin meet" x="388" y="-221"/>
<text text-anchor="start" x="412" y="-210.55" font-family="Helvetica,sans-Serif" font-size="11.00">area_id</text>
<polygon fill="none" stroke="black" points="383,-186 383,-204 493,-204 493,-186 383,-186"/>
<text text-anchor="start" x="386" y="-190.55" font-family="Helvetica,sans-Serif" font-size="11.00">...</text>
<polygon fill="#ffffff" stroke="none" points="383,-168 383,-186 423,-186 423,-168 383,-168"/>
<polygon fill="none" stroke="black" points="383,-168 383,-186 423,-186 423,-168 383,-168"/>
<text text-anchor="start" x="386" y="-172.55" font-family="Helvetica,sans-Serif" font-size="11.00">&lt; 2</text>
<polygon fill="#ffffff" stroke="none" points="423,-168 423,-186 471,-186 471,-168 423,-168"/>
<polygon fill="none" stroke="black" points="423,-168 423,-186 471,-186 471,-168 423,-168"/>
<text text-anchor="start" x="435.75" y="-172.55" font-family="Helvetica,sans-Serif" font-size="11.00">8 rows</text>
<polygon fill="#ffffff" stroke="none" points="471,-168 471,-186 493,-186 493,-168 471,-168"/>
<polygon fill="none" stroke="black" points="471,-168 471,-186 493,-186 493,-168 471,-168"/>
<text text-anchor="start" x="484" y="-172.55" font-family="Helvetica,sans-Serif" font-size="11.00"> &#160;</text>
</a>
</g>
</g>
<!-- reservations&#45;&gt;areas -->
<g id="edge2" class="edge">
<title>reservations:w&#45;&gt;areas:e</title>
<path fill="none" stroke="black" d="M366.65,-211.96C339.74,-198.24 369.77,-141.07 342,-105 322.52,-79.7 314.93,-64 283,-64"/>
<polygon fill="black" stroke="black" points="373.82,-213.38 380.97,-218.47 378.08,-214.22 381.34,-214.87 381.34,-214.87 381.34,-214.87 378.08,-214.22 382.37,-211.4 373.82,-213.38"/>
<ellipse fill="none" stroke="black" cx="369" cy="-212.43" rx="3.2" ry="3.2"/>
</g>
<!-- users -->
<g id="node4" class="node">
<title>users</title>
<g id="a_node4"><a xlink:href="../../tables/users.html" xlink:title="users" target="_top">
<polygon fill="#ffffff" stroke="none" points="150,-116 150,-424 334,-424 334,-116 150,-116"/>
<polygon fill="#f5f5f5" stroke="none" points="152,-400 152,-422 332,-422 332,-400 152,-400"/>
<polygon fill="none" stroke="black" points="152,-400 152,-422 332,-422 332,-400 152,-400"/>
<text text-anchor="start" x="156.38" y="-407.55" font-family="Helvetica,sans-Serif" font-weight="bold" font-size="11.00">users</text>
<text text-anchor="start" x="297.75" y="-406.55" font-family="Helvetica,sans-Serif" font-size="11.00">[table]</text>
<polygon fill="none" stroke="black" points="152,-378 152,-400 259,-400 259,-378 152,-378"/>
<image xlink:href="../../images/primaryKeys.png" width="11px" height="12px" preserveAspectRatio="xMinYMin meet" x="157" y="-395"/>
<text text-anchor="start" x="172" y="-384.55" font-family="Helvetica,sans-Serif" font-size="11.00">id</text>
<polygon fill="none" stroke="black" points="259,-378 259,-400 332,-400 332,-378 259,-378"/>
<text text-anchor="start" x="262" y="-384.55" font-family="Helvetica,sans-Serif" font-size="11.00">bigint[19]</text>
<polygon fill="#ffffff" stroke="none" points="152,-356 152,-378 259,-378 259,-356 152,-356"/>
<polygon fill="none" stroke="black" points="152,-356 152,-378 259,-378 259,-356 152,-356"/>
<text text-anchor="start" x="172" y="-362.55" font-family="Helvetica,sans-Serif" font-size="11.00">name</text>
<polygon fill="none" stroke="black" points="259,-356 259,-378 332,-378 332,-356 259,-356"/>
<text text-anchor="start" x="262" y="-362.55" font-family="Helvetica,sans-Serif" font-size="11.00">varchar[50]</text>
<polygon fill="#ffffff" stroke="none" points="152,-334 152,-356 259,-356 259,-334 152,-334"/>
<polygon fill="none" stroke="black" points="152,-334 152,-356 259,-356 259,-334 152,-334"/>
<text text-anchor="start" x="172" y="-340.55" font-family="Helvetica,sans-Serif" font-size="11.00">email</text>
<polygon fill="none" stroke="black" points="259,-334 259,-356 332,-356 332,-334 259,-334"/>
<text text-anchor="start" x="262" y="-340.55" font-family="Helvetica,sans-Serif" font-size="11.00">varchar[50]</text>
<polygon fill="none" stroke="black" points="152,-312 152,-334 259,-334 259,-312 152,-312"/>
<text text-anchor="start" x="172" y="-318.55" font-family="Helvetica,sans-Serif" font-size="11.00">email_verified</text>
<polygon fill="none" stroke="black" points="259,-312 259,-334 332,-334 332,-312 259,-312"/>
<text text-anchor="start" x="262" y="-318.55" font-family="Helvetica,sans-Serif" font-size="11.00">varchar[50]</text>
<polygon fill="none" stroke="black" points="152,-290 152,-312 259,-312 259,-290 152,-290"/>
<text text-anchor="start" x="172" y="-296.55" font-family="Helvetica,sans-Serif" font-size="11.00">password</text>
<polygon fill="none" stroke="black" points="259,-290 259,-312 332,-312 332,-290 259,-290"/>
<text text-anchor="start" x="262" y="-296.55" font-family="Helvetica,sans-Serif" font-size="11.00">varchar[255]</text>
<polygon fill="none" stroke="black" points="152,-268 152,-290 259,-290 259,-268 152,-268"/>
<text text-anchor="start" x="172" y="-274.55" font-family="Helvetica,sans-Serif" font-size="11.00">birthday</text>
<polygon fill="none" stroke="black" points="259,-268 259,-290 332,-290 332,-268 259,-268"/>
<text text-anchor="start" x="262" y="-274.55" font-family="Helvetica,sans-Serif" font-size="11.00">date[10]</text>
<polygon fill="none" stroke="black" points="152,-246 152,-268 259,-268 259,-246 152,-246"/>
<text text-anchor="start" x="172" y="-252.55" font-family="Helvetica,sans-Serif" font-size="11.00">phone_number</text>
<polygon fill="none" stroke="black" points="259,-246 259,-268 332,-268 332,-246 259,-246"/>
<text text-anchor="start" x="262" y="-252.55" font-family="Helvetica,sans-Serif" font-size="11.00">varchar[50]</text>
<polygon fill="none" stroke="black" points="152,-224 152,-246 259,-246 259,-224 152,-224"/>
<text text-anchor="start" x="172" y="-230.55" font-family="Helvetica,sans-Serif" font-size="11.00">plate_number</text>
<polygon fill="none" stroke="black" points="259,-224 259,-246 332,-246 332,-224 259,-224"/>
<text text-anchor="start" x="262" y="-230.55" font-family="Helvetica,sans-Serif" font-size="11.00">varchar[50]</text>
<polygon fill="#ffffff" stroke="none" points="152,-202 152,-224 259,-224 259,-202 152,-202"/>
<polygon fill="none" stroke="black" points="152,-202 152,-224 259,-224 259,-202 152,-202"/>
<image xlink:href="../../images/foreignKeys.png" width="11px" height="12px" preserveAspectRatio="xMinYMin meet" x="157" y="-219"/>
<text text-anchor="start" x="172" y="-208.55" font-family="Helvetica,sans-Serif" font-size="11.00">attribute_id</text>
<polygon fill="none" stroke="black" points="259,-202 259,-224 332,-224 332,-202 259,-202"/>
<text text-anchor="start" x="262" y="-208.55" font-family="Helvetica,sans-Serif" font-size="11.00">bigint[19]</text>
<polygon fill="none" stroke="black" points="152,-180 152,-202 259,-202 259,-180 152,-180"/>
<text text-anchor="start" x="172" y="-186.55" font-family="Helvetica,sans-Serif" font-size="11.00">created_at</text>
<polygon fill="none" stroke="black" points="259,-180 259,-202 332,-202 332,-180 259,-180"/>
<text text-anchor="start" x="261.75" y="-186.55" font-family="Helvetica,sans-Serif" font-size="11.00">timestamp[19]</text>
<polygon fill="none" stroke="black" points="152,-158 152,-180 259,-180 259,-158 152,-158"/>
<text text-anchor="start" x="172" y="-164.55" font-family="Helvetica,sans-Serif" font-size="11.00">updated_at</text>
<polygon fill="none" stroke="black" points="259,-158 259,-180 332,-180 332,-158 259,-158"/>
<text text-anchor="start" x="261.75" y="-164.55" font-family="Helvetica,sans-Serif" font-size="11.00">timestamp[19]</text>
<polygon fill="none" stroke="black" points="152,-136 152,-158 259,-158 259,-136 152,-136"/>
<text text-anchor="start" x="172" y="-142.55" font-family="Helvetica,sans-Serif" font-size="11.00">deleted_at</text>
<polygon fill="none" stroke="black" points="259,-136 259,-158 332,-158 332,-136 259,-136"/>
<text text-anchor="start" x="261.75" y="-142.55" font-family="Helvetica,sans-Serif" font-size="11.00">timestamp[19]</text>
<polygon fill="#ffffff" stroke="none" points="152,-118 152,-136 197,-136 197,-118 152,-118"/>
<polygon fill="none" stroke="black" points="152,-118 152,-136 197,-136 197,-118 152,-118"/>
<text text-anchor="start" x="155" y="-122.55" font-family="Helvetica,sans-Serif" font-size="11.00">&lt; 1</text>
<polygon fill="#ffffff" stroke="none" points="197,-118 197,-136 259,-136 259,-118 197,-118"/>
<polygon fill="none" stroke="black" points="197,-118 197,-136 259,-136 259,-118 197,-118"/>
<text text-anchor="start" x="223.75" y="-122.55" font-family="Helvetica,sans-Serif" font-size="11.00">8 rows</text>
<polygon fill="#ffffff" stroke="none" points="259,-118 259,-136 332,-136 332,-118 259,-118"/>
<polygon fill="none" stroke="black" points="259,-118 259,-136 332,-136 332,-118 259,-118"/>
<text text-anchor="start" x="313.25" y="-122.55" font-family="Helvetica,sans-Serif" font-size="11.00">1 &gt;</text>
<polygon fill="none" stroke="black" stroke-width="2" points="151,-117 151,-423 333,-423 333,-117 151,-117"/>
</a>
</g>
</g>
<!-- reservations&#45;&gt;users -->
<g id="edge3" class="edge">
<title>reservations:w&#45;&gt;users:e</title>
<path fill="none" stroke="black" d="M366.6,-240.46C326.4,-263.09 397.6,-389 333,-389"/>
<polygon fill="black" stroke="black" points="373.87,-238.83 382.46,-240.59 378.1,-237.88 381.35,-237.15 381.35,-237.15 381.35,-237.15 378.1,-237.88 380.88,-233.56 373.87,-238.83"/>
<ellipse fill="none" stroke="black" cx="369.07" cy="-239.91" rx="3.2" ry="3.2"/>
</g>
<!-- users&#45;&gt;attributes -->
<g id="edge4" class="edge">
<title>users:w&#45;&gt;attributes:e</title>
<path fill="none" stroke="black" d="M136.47,-207.61C119.34,-190.41 135.28,-138 102,-138"/>
<polygon fill="black" stroke="black" points="143.19,-210.1 149.43,-216.26 147.25,-211.61 150.37,-212.77 150.37,-212.77 150.37,-212.77 147.25,-211.61 151.94,-209.51 143.19,-210.1"/>
<ellipse fill="none" stroke="black" cx="138.58" cy="-208.39" rx="3.2" ry="3.2"/>
</g>
</g>
</svg>
