<?xml version="1.0" encoding="UTF-8" standalone="no"?>
<!DOCTYPE svg PUBLIC "-//W3C//DTD SVG 1.1//EN"
 "http://www.w3.org/Graphics/SVG/1.1/DTD/svg11.dtd">
<!-- Generated by graphviz version 12.0.0 (20240704.0754)
 -->
<!-- Title: largeRelationshipsDiagram Pages: 1 -->
<svg width="432pt" height="612pt"
 viewBox="0.00 0.00 432.00 612.00" xmlns="http://www.w3.org/2000/svg" xmlns:xlink="http://www.w3.org/1999/xlink">
<g id="graph0" class="graph" transform="scale(1 1) rotate(0) translate(4 608)">
<title>largeRelationshipsDiagram</title>
<polygon fill="#ffffff" stroke="none" points="-4,4 -4,-608 428,-608 428,4 -4,4"/>
<text text-anchor="middle" x="71.38" y="-5.55" font-family="Helvetica,sans-Serif" font-size="11.00">Generated by SchemaSpy</text>
<!-- attributes -->
<g id="node1" class="node">
<title>attributes</title>
<g id="a_node1"><a xlink:href="../../tables/attributes.html" xlink:title="attributes" target="_top">
<polygon fill="#ffffff" stroke="none" points="8,-263 8,-391 101,-391 101,-263 8,-263"/>
<polygon fill="#f5f5f5" stroke="none" points="8,-369 8,-391 101,-391 101,-369 8,-369"/>
<polygon fill="none" stroke="black" points="8,-369 8,-391 101,-391 101,-369 8,-369"/>
<text text-anchor="start" x="12.88" y="-376.55" font-family="Helvetica,sans-Serif" font-weight="bold" font-size="11.00">attributes</text>
<text text-anchor="start" x="67" y="-375.55" font-family="Helvetica,sans-Serif" font-size="11.00">[table]</text>
<polygon fill="none" stroke="black" points="8,-347 8,-369 101,-369 101,-347 8,-347"/>
<image xlink:href="../../images/primaryKeys.png" width="11px" height="12px" preserveAspectRatio="xMinYMin meet" x="13" y="-364"/>
<text text-anchor="start" x="32" y="-353.55" font-family="Helvetica,sans-Serif" font-size="11.00">id</text>
<polygon fill="#ffffff" stroke="none" points="8,-325 8,-347 101,-347 101,-325 8,-325"/>
<polygon fill="none" stroke="black" points="8,-325 8,-347 101,-347 101,-325 8,-325"/>
<text text-anchor="start" x="32" y="-331.55" font-family="Helvetica,sans-Serif" font-size="11.00">name</text>
<polygon fill="none" stroke="black" points="8,-303 8,-325 101,-325 101,-303 8,-303"/>
<text text-anchor="start" x="32" y="-309.55" font-family="Helvetica,sans-Serif" font-size="11.00">created_at</text>
<polygon fill="none" stroke="black" points="8,-281 8,-303 101,-303 101,-281 8,-281"/>
<text text-anchor="start" x="32" y="-287.55" font-family="Helvetica,sans-Serif" font-size="11.00">updated_at</text>
<polygon fill="#ffffff" stroke="none" points="8,-263 8,-281 31,-281 31,-263 8,-263"/>
<polygon fill="none" stroke="black" points="8,-263 8,-281 31,-281 31,-263 8,-263"/>
<text text-anchor="start" x="11" y="-267.55" font-family="Helvetica,sans-Serif" font-size="11.00"> &#160;</text>
<polygon fill="#ffffff" stroke="none" points="31,-263 31,-281 74,-281 74,-263 31,-263"/>
<polygon fill="none" stroke="black" points="31,-263 31,-281 74,-281 74,-263 31,-263"/>
<text text-anchor="start" x="38.75" y="-267.55" font-family="Helvetica,sans-Serif" font-size="11.00">8 rows</text>
<polygon fill="#ffffff" stroke="none" points="74,-263 74,-281 101,-281 101,-263 74,-263"/>
<polygon fill="none" stroke="black" points="74,-263 74,-281 101,-281 101,-263 74,-263"/>
<text text-anchor="start" x="82.25" y="-267.55" font-family="Helvetica,sans-Serif" font-size="11.00">2 &gt;</text>
</a>
</g>
</g>
<!-- reservations -->
<g id="node2" class="node">
<title>reservations</title>
<g id="a_node2"><a xlink:href="../../tables/reservations.html" xlink:title="reservations" target="_top">
<polygon fill="#ffffff" stroke="none" points="306,-254 306,-470 416,-470 416,-254 306,-254"/>
<polygon fill="#f5f5f5" stroke="none" points="306,-448 306,-470 416,-470 416,-448 306,-448"/>
<polygon fill="none" stroke="black" points="306,-448 306,-470 416,-470 416,-448 306,-448"/>
<text text-anchor="start" x="311" y="-455.55" font-family="Helvetica,sans-Serif" font-weight="bold" font-size="11.00">reservations</text>
<text text-anchor="start" x="382" y="-454.55" font-family="Helvetica,sans-Serif" font-size="11.00">[table]</text>
<polygon fill="none" stroke="black" points="306,-426 306,-448 416,-448 416,-426 306,-426"/>
<image xlink:href="../../images/primaryKeys.png" width="11px" height="12px" preserveAspectRatio="xMinYMin meet" x="311" y="-443"/>
<text text-anchor="start" x="335" y="-432.55" font-family="Helvetica,sans-Serif" font-size="11.00">id</text>
<polygon fill="#ffffff" stroke="none" points="306,-404 306,-426 416,-426 416,-404 306,-404"/>
<polygon fill="none" stroke="black" points="306,-404 306,-426 416,-426 416,-404 306,-404"/>
<image xlink:href="../../images/foreignKeys.png" width="11px" height="12px" preserveAspectRatio="xMinYMin meet" x="311" y="-421"/>
<text text-anchor="start" x="335" y="-410.55" font-family="Helvetica,sans-Serif" font-size="11.00">user_id</text>
<polygon fill="#ffffff" stroke="none" points="306,-382 306,-404 416,-404 416,-382 306,-382"/>
<polygon fill="none" stroke="black" points="306,-382 306,-404 416,-404 416,-382 306,-382"/>
<image xlink:href="../../images/foreignKeys.png" width="11px" height="12px" preserveAspectRatio="xMinYMin meet" x="311" y="-399"/>
<text text-anchor="start" x="335" y="-388.55" font-family="Helvetica,sans-Serif" font-size="11.00">area_id</text>
<polygon fill="none" stroke="black" points="306,-360 306,-382 416,-382 416,-360 306,-360"/>
<text text-anchor="start" x="335" y="-366.55" font-family="Helvetica,sans-Serif" font-size="11.00">date</text>
<polygon fill="none" stroke="black" points="306,-338 306,-360 416,-360 416,-338 306,-338"/>
<text text-anchor="start" x="335" y="-344.55" font-family="Helvetica,sans-Serif" font-size="11.00">fee_log</text>
<polygon fill="none" stroke="black" points="306,-316 306,-338 416,-338 416,-316 306,-316"/>
<text text-anchor="start" x="335" y="-322.55" font-family="Helvetica,sans-Serif" font-size="11.00">created_at</text>
<polygon fill="none" stroke="black" points="306,-294 306,-316 416,-316 416,-294 306,-294"/>
<text text-anchor="start" x="335" y="-300.55" font-family="Helvetica,sans-Serif" font-size="11.00">updated_at</text>
<polygon fill="none" stroke="black" points="306,-272 306,-294 416,-294 416,-272 306,-272"/>
<text text-anchor="start" x="335" y="-278.55" font-family="Helvetica,sans-Serif" font-size="11.00">deleted_at</text>
<polygon fill="#ffffff" stroke="none" points="306,-254 306,-272 346,-272 346,-254 306,-254"/>
<polygon fill="none" stroke="black" points="306,-254 306,-272 346,-272 346,-254 306,-254"/>
<text text-anchor="start" x="309" y="-258.55" font-family="Helvetica,sans-Serif" font-size="11.00">&lt; 2</text>
<polygon fill="#ffffff" stroke="none" points="346,-254 346,-272 394,-272 394,-254 346,-254"/>
<polygon fill="none" stroke="black" points="346,-254 346,-272 394,-272 394,-254 346,-254"/>
<text text-anchor="start" x="358.75" y="-258.55" font-family="Helvetica,sans-Serif" font-size="11.00">8 rows</text>
<polygon fill="#ffffff" stroke="none" points="394,-254 394,-272 416,-272 416,-254 394,-254"/>
<polygon fill="none" stroke="black" points="394,-254 394,-272 416,-272 416,-254 394,-254"/>
<text text-anchor="start" x="407" y="-258.55" font-family="Helvetica,sans-Serif" font-size="11.00"> &#160;</text>
</a>
</g>
</g>
<!-- users -->
<g id="node3" class="node">
<title>users</title>
<g id="a_node3"><a xlink:href="../../tables/users.html" xlink:title="users" target="_top">
<polygon fill="#ffffff" stroke="none" points="150,-296 150,-600 257,-600 257,-296 150,-296"/>
<polygon fill="#f5f5f5" stroke="none" points="150,-578 150,-600 257,-600 257,-578 150,-578"/>
<polygon fill="none" stroke="black" points="150,-578 150,-600 257,-600 257,-578 150,-578"/>
<text text-anchor="start" x="154.38" y="-585.55" font-family="Helvetica,sans-Serif" font-weight="bold" font-size="11.00">users</text>
<text text-anchor="start" x="222.75" y="-584.55" font-family="Helvetica,sans-Serif" font-size="11.00">[table]</text>
<polygon fill="none" stroke="black" points="150,-556 150,-578 257,-578 257,-556 150,-556"/>
<image xlink:href="../../images/primaryKeys.png" width="11px" height="12px" preserveAspectRatio="xMinYMin meet" x="155" y="-573"/>
<text text-anchor="start" x="170" y="-562.55" font-family="Helvetica,sans-Serif" font-size="11.00">id</text>
<polygon fill="#ffffff" stroke="none" points="150,-534 150,-556 257,-556 257,-534 150,-534"/>
<polygon fill="none" stroke="black" points="150,-534 150,-556 257,-556 257,-534 150,-534"/>
<text text-anchor="start" x="170" y="-540.55" font-family="Helvetica,sans-Serif" font-size="11.00">name</text>
<polygon fill="#ffffff" stroke="none" points="150,-512 150,-534 257,-534 257,-512 150,-512"/>
<polygon fill="none" stroke="black" points="150,-512 150,-534 257,-534 257,-512 150,-512"/>
<text text-anchor="start" x="170" y="-518.55" font-family="Helvetica,sans-Serif" font-size="11.00">email</text>
<polygon fill="none" stroke="black" points="150,-490 150,-512 257,-512 257,-490 150,-490"/>
<text text-anchor="start" x="170" y="-496.55" font-family="Helvetica,sans-Serif" font-size="11.00">email_verified</text>
<polygon fill="none" stroke="black" points="150,-468 150,-490 257,-490 257,-468 150,-468"/>
<text text-anchor="start" x="170" y="-474.55" font-family="Helvetica,sans-Serif" font-size="11.00">password</text>
<polygon fill="none" stroke="black" points="150,-446 150,-468 257,-468 257,-446 150,-446"/>
<text text-anchor="start" x="170" y="-452.55" font-family="Helvetica,sans-Serif" font-size="11.00">birthday</text>
<polygon fill="none" stroke="black" points="150,-424 150,-446 257,-446 257,-424 150,-424"/>
<text text-anchor="start" x="170" y="-430.55" font-family="Helvetica,sans-Serif" font-size="11.00">phone_number</text>
<polygon fill="none" stroke="black" points="150,-402 150,-424 257,-424 257,-402 150,-402"/>
<text text-anchor="start" x="170" y="-408.55" font-family="Helvetica,sans-Serif" font-size="11.00">plate_number</text>
<polygon fill="#ffffff" stroke="none" points="150,-380 150,-402 257,-402 257,-380 150,-380"/>
<polygon fill="none" stroke="black" points="150,-380 150,-402 257,-402 257,-380 150,-380"/>
<image xlink:href="../../images/foreignKeys.png" width="11px" height="12px" preserveAspectRatio="xMinYMin meet" x="155" y="-397"/>
<text text-anchor="start" x="170" y="-386.55" font-family="Helvetica,sans-Serif" font-size="11.00">attribute_id</text>
<polygon fill="none" stroke="black" points="150,-358 150,-380 257,-380 257,-358 150,-358"/>
<text text-anchor="start" x="170" y="-364.55" font-family="Helvetica,sans-Serif" font-size="11.00">created_at</text>
<polygon fill="none" stroke="black" points="150,-336 150,-358 257,-358 257,-336 150,-336"/>
<text text-anchor="start" x="170" y="-342.55" font-family="Helvetica,sans-Serif" font-size="11.00">updated_at</text>
<polygon fill="none" stroke="black" points="150,-314 150,-336 257,-336 257,-314 150,-314"/>
<text text-anchor="start" x="170" y="-320.55" font-family="Helvetica,sans-Serif" font-size="11.00">deleted_at</text>
<polygon fill="#ffffff" stroke="none" points="150,-296 150,-314 184,-314 184,-296 150,-296"/>
<polygon fill="none" stroke="black" points="150,-296 150,-314 184,-314 184,-296 150,-296"/>
<text text-anchor="start" x="153" y="-300.55" font-family="Helvetica,sans-Serif" font-size="11.00">&lt; 1</text>
<polygon fill="#ffffff" stroke="none" points="184,-296 184,-314 229,-314 229,-296 184,-296"/>
<polygon fill="none" stroke="black" points="184,-296 184,-314 229,-314 229,-296 184,-296"/>
<text text-anchor="start" x="193.75" y="-300.55" font-family="Helvetica,sans-Serif" font-size="11.00">8 rows</text>
<polygon fill="#ffffff" stroke="none" points="229,-296 229,-314 257,-314 257,-296 229,-296"/>
<polygon fill="none" stroke="black" points="229,-296 229,-314 257,-314 257,-296 229,-296"/>
<text text-anchor="start" x="238.25" y="-300.55" font-family="Helvetica,sans-Serif" font-size="11.00">1 &gt;</text>
</a>
</g>
</g>
<!-- reservations&#45;&gt;users -->
<g id="edge4" class="edge">
<title>reservations:w&#45;&gt;users:e</title>
<path fill="none" stroke="black" d="M289.7,-418.46C249.92,-441.09 322.36,-567 258,-567"/>
<polygon fill="black" stroke="black" points="296.87,-416.84 305.47,-418.59 301.1,-415.88 304.35,-415.15 304.35,-415.15 304.35,-415.15 301.1,-415.88 303.88,-411.56 296.87,-416.84"/>
<ellipse fill="none" stroke="black" cx="292.07" cy="-417.92" rx="3.2" ry="3.2"/>
</g>
<!-- areas -->
<g id="node4" class="node">
<title>areas</title>
<g id="a_node4"><a xlink:href="../../tables/areas.html" xlink:title="areas" target="_top">
<polygon fill="#ffffff" stroke="none" points="160.5,-37 160.5,-275 246.5,-275 246.5,-37 160.5,-37"/>
<polygon fill="#f5f5f5" stroke="none" points="160.5,-253 160.5,-275 246.5,-275 246.5,-253 160.5,-253"/>
<polygon fill="none" stroke="black" points="160.5,-253 160.5,-275 246.5,-275 246.5,-253 160.5,-253"/>
<text text-anchor="start" x="164.75" y="-260.55" font-family="Helvetica,sans-Serif" font-weight="bold" font-size="11.00">areas</text>
<text text-anchor="start" x="212.25" y="-259.55" font-family="Helvetica,sans-Serif" font-size="11.00">[table]</text>
<polygon fill="none" stroke="black" points="160.5,-231 160.5,-253 246.5,-253 246.5,-231 160.5,-231"/>
<image xlink:href="../../images/primaryKeys.png" width="11px" height="12px" preserveAspectRatio="xMinYMin meet" x="165.5" y="-248"/>
<text text-anchor="start" x="180.5" y="-237.55" font-family="Helvetica,sans-Serif" font-size="11.00">id</text>
<polygon fill="#ffffff" stroke="none" points="160.5,-209 160.5,-231 246.5,-231 246.5,-209 160.5,-209"/>
<polygon fill="none" stroke="black" points="160.5,-209 160.5,-231 246.5,-231 246.5,-209 160.5,-209"/>
<text text-anchor="start" x="180.5" y="-215.55" font-family="Helvetica,sans-Serif" font-size="11.00">name</text>
<polygon fill="#ffffff" stroke="none" points="160.5,-187 160.5,-209 246.5,-209 246.5,-187 160.5,-187"/>
<polygon fill="none" stroke="black" points="160.5,-187 160.5,-209 246.5,-209 246.5,-187 160.5,-187"/>
<image xlink:href="../../images/foreignKeys.png" width="11px" height="12px" preserveAspectRatio="xMinYMin meet" x="165.5" y="-204"/>
<text text-anchor="start" x="180.5" y="-193.55" font-family="Helvetica,sans-Serif" font-size="11.00">attribute_id</text>
<polygon fill="#ffffff" stroke="none" points="160.5,-165 160.5,-187 246.5,-187 246.5,-165 160.5,-165"/>
<polygon fill="none" stroke="black" points="160.5,-165 160.5,-187 246.5,-187 246.5,-165 160.5,-165"/>
<image xlink:href="../../images/foreignKeys.png" width="11px" height="12px" preserveAspectRatio="xMinYMin meet" x="165.5" y="-182"/>
<text text-anchor="start" x="180.5" y="-171.55" font-family="Helvetica,sans-Serif" font-size="11.00">fee_id</text>
<polygon fill="none" stroke="black" points="160.5,-143 160.5,-165 246.5,-165 246.5,-143 160.5,-143"/>
<text text-anchor="start" x="180.5" y="-149.55" font-family="Helvetica,sans-Serif" font-size="11.00">address</text>
<polygon fill="none" stroke="black" points="160.5,-121 160.5,-143 246.5,-143 246.5,-121 160.5,-121"/>
<text text-anchor="start" x="180.5" y="-127.55" font-family="Helvetica,sans-Serif" font-size="11.00">max_num</text>
<polygon fill="none" stroke="black" points="160.5,-99 160.5,-121 246.5,-121 246.5,-99 160.5,-99"/>
<text text-anchor="start" x="180.5" y="-105.55" font-family="Helvetica,sans-Serif" font-size="11.00">created_at</text>
<polygon fill="none" stroke="black" points="160.5,-77 160.5,-99 246.5,-99 246.5,-77 160.5,-77"/>
<text text-anchor="start" x="180.5" y="-83.55" font-family="Helvetica,sans-Serif" font-size="11.00">updated_at</text>
<polygon fill="none" stroke="black" points="160.5,-55 160.5,-77 246.5,-77 246.5,-55 160.5,-55"/>
<text text-anchor="start" x="180.5" y="-61.55" font-family="Helvetica,sans-Serif" font-size="11.00">deleted_at</text>
<polygon fill="#ffffff" stroke="none" points="160.5,-37 160.5,-55 184.5,-55 184.5,-37 160.5,-37"/>
<polygon fill="none" stroke="black" points="160.5,-37 160.5,-55 184.5,-55 184.5,-37 160.5,-37"/>
<text text-anchor="start" x="163.5" y="-41.55" font-family="Helvetica,sans-Serif" font-size="11.00">&lt; 2</text>
<polygon fill="#ffffff" stroke="none" points="184.5,-37 184.5,-55 223.5,-55 223.5,-37 184.5,-37"/>
<polygon fill="none" stroke="black" points="184.5,-37 184.5,-55 223.5,-55 223.5,-37 184.5,-37"/>
<text text-anchor="start" x="188.25" y="-41.55" font-family="Helvetica,sans-Serif" font-size="11.00">6 rows</text>
<polygon fill="#ffffff" stroke="none" points="223.5,-37 223.5,-55 246.5,-55 246.5,-37 223.5,-37"/>
<polygon fill="none" stroke="black" points="223.5,-37 223.5,-55 246.5,-55 246.5,-37 223.5,-37"/>
<text text-anchor="start" x="227.75" y="-41.55" font-family="Helvetica,sans-Serif" font-size="11.00">1 &gt;</text>
</a>
</g>
</g>
<!-- reservations&#45;&gt;areas -->
<g id="edge3" class="edge">
<title>reservations:w&#45;&gt;areas:e</title>
<path fill="none" stroke="black" d="M289.51,-389.71C247.11,-367.62 313,-242 247.5,-242"/>
<polygon fill="black" stroke="black" points="296.85,-391.27 303.92,-396.45 301.09,-392.17 304.35,-392.86 304.35,-392.86 304.35,-392.86 301.09,-392.17 305.42,-389.41 296.85,-391.27"/>
<ellipse fill="none" stroke="black" cx="292.04" cy="-390.24" rx="3.2" ry="3.2"/>
</g>
<!-- users&#45;&gt;attributes -->
<g id="edge5" class="edge">
<title>users:w&#45;&gt;attributes:e</title>
<path fill="none" stroke="black" d="M134.14,-385.55C123.6,-376.18 120.94,-358 102,-358"/>
<polygon fill="black" stroke="black" points="141.18,-388.13 147.45,-394.26 145.24,-389.62 148.37,-390.77 148.37,-390.77 148.37,-390.77 145.24,-389.62 149.93,-387.5 141.18,-388.13"/>
<ellipse fill="none" stroke="black" cx="136.56" cy="-386.44" rx="3.2" ry="3.2"/>
</g>
<!-- areas&#45;&gt;attributes -->
<g id="edge1" class="edge">
<title>areas:w&#45;&gt;attributes:e</title>
<path fill="none" stroke="black" d="M144.13,-201.05C98.16,-223.17 171.37,-358 102,-358"/>
<polygon fill="black" stroke="black" points="151.33,-199.62 159.87,-201.6 155.58,-198.78 158.84,-198.13 158.84,-198.13 158.84,-198.13 155.58,-198.78 158.47,-194.53 151.33,-199.62"/>
<ellipse fill="none" stroke="black" cx="146.5" cy="-200.58" rx="3.2" ry="3.2"/>
</g>
<!-- fees -->
<g id="node5" class="node">
<title>fees</title>
<g id="a_node5"><a xlink:href="../../tables/fees.html" xlink:title="fees" target="_top">
<polygon fill="#ffffff" stroke="none" points="12,-59 12,-209 97,-209 97,-59 12,-59"/>
<polygon fill="#f5f5f5" stroke="none" points="12,-187 12,-209 97,-209 97,-187 12,-187"/>
<polygon fill="none" stroke="black" points="12,-187 12,-209 97,-209 97,-187 12,-187"/>
<text text-anchor="start" x="16.12" y="-194.55" font-family="Helvetica,sans-Serif" font-weight="bold" font-size="11.00">fees</text>
<text text-anchor="start" x="62.75" y="-193.55" font-family="Helvetica,sans-Serif" font-size="11.00">[table]</text>
<polygon fill="none" stroke="black" points="12,-165 12,-187 97,-187 97,-165 12,-165"/>
<image xlink:href="../../images/primaryKeys.png" width="11px" height="12px" preserveAspectRatio="xMinYMin meet" x="17" y="-182"/>
<text text-anchor="start" x="32" y="-171.55" font-family="Helvetica,sans-Serif" font-size="11.00">id</text>
<polygon fill="#ffffff" stroke="none" points="12,-143 12,-165 97,-165 97,-143 12,-143"/>
<polygon fill="none" stroke="black" points="12,-143 12,-165 97,-165 97,-143 12,-143"/>
<text text-anchor="start" x="32" y="-149.55" font-family="Helvetica,sans-Serif" font-size="11.00">name</text>
<polygon fill="none" stroke="black" points="12,-121 12,-143 97,-143 97,-121 12,-121"/>
<text text-anchor="start" x="32" y="-127.55" font-family="Helvetica,sans-Serif" font-size="11.00">fee</text>
<polygon fill="none" stroke="black" points="12,-99 12,-121 97,-121 97,-99 12,-99"/>
<text text-anchor="start" x="32" y="-105.55" font-family="Helvetica,sans-Serif" font-size="11.00">created_at</text>
<polygon fill="none" stroke="black" points="12,-77 12,-99 97,-99 97,-77 12,-77"/>
<text text-anchor="start" x="32" y="-83.55" font-family="Helvetica,sans-Serif" font-size="11.00">updated_at</text>
<polygon fill="#ffffff" stroke="none" points="12,-59 12,-77 31,-77 31,-59 12,-59"/>
<polygon fill="none" stroke="black" points="12,-59 12,-77 31,-77 31,-59 12,-59"/>
<text text-anchor="start" x="15" y="-63.55" font-family="Helvetica,sans-Serif" font-size="11.00"> &#160;</text>
<polygon fill="#ffffff" stroke="none" points="31,-59 31,-77 72,-77 72,-59 31,-59"/>
<polygon fill="none" stroke="black" points="31,-59 31,-77 72,-77 72,-59 31,-59"/>
<text text-anchor="start" x="36.75" y="-63.55" font-family="Helvetica,sans-Serif" font-size="11.00">7 rows</text>
<polygon fill="#ffffff" stroke="none" points="72,-59 72,-77 97,-77 97,-59 72,-59"/>
<polygon fill="none" stroke="black" points="72,-59 72,-77 97,-77 97,-59 72,-59"/>
<text text-anchor="start" x="78.25" y="-63.55" font-family="Helvetica,sans-Serif" font-size="11.00">1 &gt;</text>
</a>
</g>
</g>
<!-- areas&#45;&gt;fees -->
<g id="edge2" class="edge">
<title>areas:w&#45;&gt;fees:e</title>
<path fill="none" stroke="black" d="M144.08,-176C128.2,-176 119.35,-176 98,-176"/>
<polygon fill="black" stroke="black" points="151.17,-176 159.17,-179.6 155.5,-176 158.83,-176 158.83,-176 158.83,-176 155.5,-176 159.17,-172.4 151.17,-176"/>
<ellipse fill="none" stroke="black" cx="146.25" cy="-176" rx="3.2" ry="3.2"/>
</g>
</g>
</svg>
