<?xml version="1.0" encoding="UTF-8" standalone="no"?>
<!DOCTYPE svg PUBLIC "-//W3C//DTD SVG 1.1//EN"
 "http://www.w3.org/Graphics/SVG/1.1/DTD/svg11.dtd">
<!-- Generated by graphviz version 12.0.0 (20240704.0754)
 -->
<!-- Title: compactRelationshipsDiagram Pages: 1 -->
<svg width="432pt" height="384pt"
 viewBox="0.00 0.00 432.00 384.00" xmlns="http://www.w3.org/2000/svg" xmlns:xlink="http://www.w3.org/1999/xlink">
<g id="graph0" class="graph" transform="scale(1 1) rotate(0) translate(4 380)">
<title>compactRelationshipsDiagram</title>
<polygon fill="#ffffff" stroke="none" points="-4,4 -4,-380 428,-380 428,4 -4,4"/>
<text text-anchor="middle" x="71.38" y="-5.55" font-family="Helvetica,sans-Serif" font-size="11.00">Generated by SchemaSpy</text>
<!-- attributes -->
<g id="node1" class="node">
<title>attributes</title>
<g id="a_node1"><a xlink:href="../../tables/attributes.html" xlink:title="attributes" target="_top">
<polygon fill="#ffffff" stroke="none" points="8,-182 8,-284 101,-284 101,-182 8,-182"/>
<polygon fill="#f5f5f5" stroke="none" points="8,-262 8,-284 101,-284 101,-262 8,-262"/>
<polygon fill="none" stroke="black" points="8,-262 8,-284 101,-284 101,-262 8,-262"/>
<text text-anchor="start" x="12.88" y="-269.55" font-family="Helvetica,sans-Serif" font-weight="bold" font-size="11.00">attributes</text>
<text text-anchor="start" x="67" y="-268.55" font-family="Helvetica,sans-Serif" font-size="11.00">[table]</text>
<polygon fill="none" stroke="black" points="8,-240 8,-262 101,-262 101,-240 8,-240"/>
<image xlink:href="../../images/primaryKeys.png" width="11px" height="12px" preserveAspectRatio="xMinYMin meet" x="13" y="-257"/>
<text text-anchor="start" x="32" y="-246.55" font-family="Helvetica,sans-Serif" font-size="11.00">id</text>
<polygon fill="#ffffff" stroke="none" points="8,-218 8,-240 101,-240 101,-218 8,-218"/>
<polygon fill="none" stroke="black" points="8,-218 8,-240 101,-240 101,-218 8,-218"/>
<text text-anchor="start" x="32" y="-224.55" font-family="Helvetica,sans-Serif" font-size="11.00">name</text>
<polygon fill="none" stroke="black" points="8,-200 8,-218 101,-218 101,-200 8,-200"/>
<text text-anchor="start" x="11" y="-204.55" font-family="Helvetica,sans-Serif" font-size="11.00">...</text>
<polygon fill="#ffffff" stroke="none" points="8,-182 8,-200 31,-200 31,-182 8,-182"/>
<polygon fill="none" stroke="black" points="8,-182 8,-200 31,-200 31,-182 8,-182"/>
<text text-anchor="start" x="11" y="-186.55" font-family="Helvetica,sans-Serif" font-size="11.00"> &#160;</text>
<polygon fill="#ffffff" stroke="none" points="31,-182 31,-200 74,-200 74,-182 31,-182"/>
<polygon fill="none" stroke="black" points="31,-182 31,-200 74,-200 74,-182 31,-182"/>
<text text-anchor="start" x="38.75" y="-186.55" font-family="Helvetica,sans-Serif" font-size="11.00">8 rows</text>
<polygon fill="#ffffff" stroke="none" points="74,-182 74,-200 101,-200 101,-182 74,-182"/>
<polygon fill="none" stroke="black" points="74,-182 74,-200 101,-200 101,-182 74,-182"/>
<text text-anchor="start" x="82.25" y="-186.55" font-family="Helvetica,sans-Serif" font-size="11.00">2 &gt;</text>
</a>
</g>
</g>
<!-- reservations -->
<g id="node2" class="node">
<title>reservations</title>
<g id="a_node2"><a xlink:href="../../tables/reservations.html" xlink:title="reservations" target="_top">
<polygon fill="#ffffff" stroke="none" points="306,-197 306,-321 416,-321 416,-197 306,-197"/>
<polygon fill="#f5f5f5" stroke="none" points="306,-299 306,-321 416,-321 416,-299 306,-299"/>
<polygon fill="none" stroke="black" points="306,-299 306,-321 416,-321 416,-299 306,-299"/>
<text text-anchor="start" x="311" y="-306.55" font-family="Helvetica,sans-Serif" font-weight="bold" font-size="11.00">reservations</text>
<text text-anchor="start" x="382" y="-305.55" font-family="Helvetica,sans-Serif" font-size="11.00">[table]</text>
<polygon fill="none" stroke="black" points="306,-277 306,-299 416,-299 416,-277 306,-277"/>
<image xlink:href="../../images/primaryKeys.png" width="11px" height="12px" preserveAspectRatio="xMinYMin meet" x="311" y="-294"/>
<text text-anchor="start" x="335" y="-283.55" font-family="Helvetica,sans-Serif" font-size="11.00">id</text>
<polygon fill="#ffffff" stroke="none" points="306,-255 306,-277 416,-277 416,-255 306,-255"/>
<polygon fill="none" stroke="black" points="306,-255 306,-277 416,-277 416,-255 306,-255"/>
<image xlink:href="../../images/foreignKeys.png" width="11px" height="12px" preserveAspectRatio="xMinYMin meet" x="311" y="-272"/>
<text text-anchor="start" x="335" y="-261.55" font-family="Helvetica,sans-Serif" font-size="11.00">user_id</text>
<polygon fill="#ffffff" stroke="none" points="306,-233 306,-255 416,-255 416,-233 306,-233"/>
<polygon fill="none" stroke="black" points="306,-233 306,-255 416,-255 416,-233 306,-233"/>
<image xlink:href="../../images/foreignKeys.png" width="11px" height="12px" preserveAspectRatio="xMinYMin meet" x="311" y="-250"/>
<text text-anchor="start" x="335" y="-239.55" font-family="Helvetica,sans-Serif" font-size="11.00">area_id</text>
<polygon fill="none" stroke="black" points="306,-215 306,-233 416,-233 416,-215 306,-215"/>
<text text-anchor="start" x="309" y="-219.55" font-family="Helvetica,sans-Serif" font-size="11.00">...</text>
<polygon fill="#ffffff" stroke="none" points="306,-197 306,-215 346,-215 346,-197 306,-197"/>
<polygon fill="none" stroke="black" points="306,-197 306,-215 346,-215 346,-197 306,-197"/>
<text text-anchor="start" x="309" y="-201.55" font-family="Helvetica,sans-Serif" font-size="11.00">&lt; 2</text>
<polygon fill="#ffffff" stroke="none" points="346,-197 346,-215 394,-215 394,-197 346,-197"/>
<polygon fill="none" stroke="black" points="346,-197 346,-215 394,-215 394,-197 346,-197"/>
<text text-anchor="start" x="358.75" y="-201.55" font-family="Helvetica,sans-Serif" font-size="11.00">8 rows</text>
<polygon fill="#ffffff" stroke="none" points="394,-197 394,-215 416,-215 416,-197 394,-197"/>
<polygon fill="none" stroke="black" points="394,-197 394,-215 416,-215 416,-197 394,-197"/>
<text text-anchor="start" x="407" y="-201.55" font-family="Helvetica,sans-Serif" font-size="11.00"> &#160;</text>
</a>
</g>
</g>
<!-- users -->
<g id="node3" class="node">
<title>users</title>
<g id="a_node3"><a xlink:href="../../tables/users.html" xlink:title="users" target="_top">
<polygon fill="#ffffff" stroke="none" points="150,-226 150,-372 257,-372 257,-226 150,-226"/>
<polygon fill="#f5f5f5" stroke="none" points="150,-350 150,-372 257,-372 257,-350 150,-350"/>
<polygon fill="none" stroke="black" points="150,-350 150,-372 257,-372 257,-350 150,-350"/>
<text text-anchor="start" x="154.38" y="-357.55" font-family="Helvetica,sans-Serif" font-weight="bold" font-size="11.00">users</text>
<text text-anchor="start" x="222.75" y="-356.55" font-family="Helvetica,sans-Serif" font-size="11.00">[table]</text>
<polygon fill="none" stroke="black" points="150,-328 150,-350 257,-350 257,-328 150,-328"/>
<image xlink:href="../../images/primaryKeys.png" width="11px" height="12px" preserveAspectRatio="xMinYMin meet" x="155" y="-345"/>
<text text-anchor="start" x="170" y="-334.55" font-family="Helvetica,sans-Serif" font-size="11.00">id</text>
<polygon fill="#ffffff" stroke="none" points="150,-306 150,-328 257,-328 257,-306 150,-306"/>
<polygon fill="none" stroke="black" points="150,-306 150,-328 257,-328 257,-306 150,-306"/>
<text text-anchor="start" x="170" y="-312.55" font-family="Helvetica,sans-Serif" font-size="11.00">name</text>
<polygon fill="#ffffff" stroke="none" points="150,-284 150,-306 257,-306 257,-284 150,-284"/>
<polygon fill="none" stroke="black" points="150,-284 150,-306 257,-306 257,-284 150,-284"/>
<text text-anchor="start" x="170" y="-290.55" font-family="Helvetica,sans-Serif" font-size="11.00">email</text>
<polygon fill="#ffffff" stroke="none" points="150,-262 150,-284 257,-284 257,-262 150,-262"/>
<polygon fill="none" stroke="black" points="150,-262 150,-284 257,-284 257,-262 150,-262"/>
<image xlink:href="../../images/foreignKeys.png" width="11px" height="12px" preserveAspectRatio="xMinYMin meet" x="155" y="-279"/>
<text text-anchor="start" x="170" y="-268.55" font-family="Helvetica,sans-Serif" font-size="11.00">attribute_id</text>
<polygon fill="none" stroke="black" points="150,-244 150,-262 257,-262 257,-244 150,-244"/>
<text text-anchor="start" x="153" y="-248.55" font-family="Helvetica,sans-Serif" font-size="11.00">...</text>
<polygon fill="#ffffff" stroke="none" points="150,-226 150,-244 184,-244 184,-226 150,-226"/>
<polygon fill="none" stroke="black" points="150,-226 150,-244 184,-244 184,-226 150,-226"/>
<text text-anchor="start" x="153" y="-230.55" font-family="Helvetica,sans-Serif" font-size="11.00">&lt; 1</text>
<polygon fill="#ffffff" stroke="none" points="184,-226 184,-244 229,-244 229,-226 184,-226"/>
<polygon fill="none" stroke="black" points="184,-226 184,-244 229,-244 229,-226 184,-226"/>
<text text-anchor="start" x="193.75" y="-230.55" font-family="Helvetica,sans-Serif" font-size="11.00">8 rows</text>
<polygon fill="#ffffff" stroke="none" points="229,-226 229,-244 257,-244 257,-226 229,-226"/>
<polygon fill="none" stroke="black" points="229,-226 229,-244 257,-244 257,-226 229,-226"/>
<text text-anchor="start" x="238.25" y="-230.55" font-family="Helvetica,sans-Serif" font-size="11.00">1 &gt;</text>
</a>
</g>
</g>
<!-- reservations&#45;&gt;users -->
<g id="edge4" class="edge">
<title>reservations:w&#45;&gt;users:e</title>
<path fill="none" stroke="black" d="M290.5,-271.73C274.75,-288.94 289.96,-339 258,-339"/>
<polygon fill="black" stroke="black" points="297.25,-269.06 306.01,-269.47 301.28,-267.47 304.38,-266.25 304.38,-266.25 304.38,-266.25 301.28,-267.47 303.37,-262.77 297.25,-269.06"/>
<ellipse fill="none" stroke="black" cx="292.67" cy="-270.87" rx="3.2" ry="3.2"/>
</g>
<!-- areas -->
<g id="node4" class="node">
<title>areas</title>
<g id="a_node4"><a xlink:href="../../tables/areas.html" xlink:title="areas" target="_top">
<polygon fill="#ffffff" stroke="none" points="160.5,-59 160.5,-205 246.5,-205 246.5,-59 160.5,-59"/>
<polygon fill="#f5f5f5" stroke="none" points="160.5,-183 160.5,-205 246.5,-205 246.5,-183 160.5,-183"/>
<polygon fill="none" stroke="black" points="160.5,-183 160.5,-205 246.5,-205 246.5,-183 160.5,-183"/>
<text text-anchor="start" x="164.75" y="-190.55" font-family="Helvetica,sans-Serif" font-weight="bold" font-size="11.00">areas</text>
<text text-anchor="start" x="212.25" y="-189.55" font-family="Helvetica,sans-Serif" font-size="11.00">[table]</text>
<polygon fill="none" stroke="black" points="160.5,-161 160.5,-183 246.5,-183 246.5,-161 160.5,-161"/>
<image xlink:href="../../images/primaryKeys.png" width="11px" height="12px" preserveAspectRatio="xMinYMin meet" x="165.5" y="-178"/>
<text text-anchor="start" x="180.5" y="-167.55" font-family="Helvetica,sans-Serif" font-size="11.00">id</text>
<polygon fill="#ffffff" stroke="none" points="160.5,-139 160.5,-161 246.5,-161 246.5,-139 160.5,-139"/>
<polygon fill="none" stroke="black" points="160.5,-139 160.5,-161 246.5,-161 246.5,-139 160.5,-139"/>
<text text-anchor="start" x="180.5" y="-145.55" font-family="Helvetica,sans-Serif" font-size="11.00">name</text>
<polygon fill="#ffffff" stroke="none" points="160.5,-117 160.5,-139 246.5,-139 246.5,-117 160.5,-117"/>
<polygon fill="none" stroke="black" points="160.5,-117 160.5,-139 246.5,-139 246.5,-117 160.5,-117"/>
<image xlink:href="../../images/foreignKeys.png" width="11px" height="12px" preserveAspectRatio="xMinYMin meet" x="165.5" y="-134"/>
<text text-anchor="start" x="180.5" y="-123.55" font-family="Helvetica,sans-Serif" font-size="11.00">attribute_id</text>
<polygon fill="#ffffff" stroke="none" points="160.5,-95 160.5,-117 246.5,-117 246.5,-95 160.5,-95"/>
<polygon fill="none" stroke="black" points="160.5,-95 160.5,-117 246.5,-117 246.5,-95 160.5,-95"/>
<image xlink:href="../../images/foreignKeys.png" width="11px" height="12px" preserveAspectRatio="xMinYMin meet" x="165.5" y="-112"/>
<text text-anchor="start" x="180.5" y="-101.55" font-family="Helvetica,sans-Serif" font-size="11.00">fee_id</text>
<polygon fill="none" stroke="black" points="160.5,-77 160.5,-95 246.5,-95 246.5,-77 160.5,-77"/>
<text text-anchor="start" x="163.5" y="-81.55" font-family="Helvetica,sans-Serif" font-size="11.00">...</text>
<polygon fill="#ffffff" stroke="none" points="160.5,-59 160.5,-77 184.5,-77 184.5,-59 160.5,-59"/>
<polygon fill="none" stroke="black" points="160.5,-59 160.5,-77 184.5,-77 184.5,-59 160.5,-59"/>
<text text-anchor="start" x="163.5" y="-63.55" font-family="Helvetica,sans-Serif" font-size="11.00">&lt; 2</text>
<polygon fill="#ffffff" stroke="none" points="184.5,-59 184.5,-77 223.5,-77 223.5,-59 184.5,-59"/>
<polygon fill="none" stroke="black" points="184.5,-59 184.5,-77 223.5,-77 223.5,-59 184.5,-59"/>
<text text-anchor="start" x="188.25" y="-63.55" font-family="Helvetica,sans-Serif" font-size="11.00">6 rows</text>
<polygon fill="#ffffff" stroke="none" points="223.5,-59 223.5,-77 246.5,-77 246.5,-59 223.5,-59"/>
<polygon fill="none" stroke="black" points="223.5,-59 223.5,-77 246.5,-77 246.5,-59 223.5,-59"/>
<text text-anchor="start" x="227.75" y="-63.55" font-family="Helvetica,sans-Serif" font-size="11.00">1 &gt;</text>
</a>
</g>
</g>
<!-- reservations&#45;&gt;areas -->
<g id="edge3" class="edge">
<title>reservations:w&#45;&gt;areas:e</title>
<path fill="none" stroke="black" d="M290.09,-239.28C270.08,-223.26 282.05,-172 247.5,-172"/>
<polygon fill="black" stroke="black" points="297.05,-241.48 303.59,-247.33 301.19,-242.79 304.36,-243.8 304.36,-243.8 304.36,-243.8 301.19,-242.79 305.77,-240.47 297.05,-241.48"/>
<ellipse fill="none" stroke="black" cx="292.37" cy="-240" rx="3.2" ry="3.2"/>
</g>
<!-- users&#45;&gt;attributes -->
<g id="edge5" class="edge">
<title>users:w&#45;&gt;attributes:e</title>
<path fill="none" stroke="black" d="M133.82,-268.76C123.69,-262.37 118.58,-251 102,-251"/>
<polygon fill="black" stroke="black" points="140.97,-270.76 147.71,-276.38 145.15,-271.92 148.36,-272.82 148.36,-272.82 148.36,-272.82 145.15,-271.92 149.65,-269.44 140.97,-270.76"/>
<ellipse fill="none" stroke="black" cx="136.24" cy="-269.43" rx="3.2" ry="3.2"/>
</g>
<!-- areas&#45;&gt;attributes -->
<g id="edge1" class="edge">
<title>areas:w&#45;&gt;attributes:e</title>
<path fill="none" stroke="black" d="M144.24,-131.82C111.11,-152.58 155.98,-251 102,-251"/>
<polygon fill="black" stroke="black" points="151.41,-130.02 160.05,-131.57 155.62,-128.97 158.85,-128.16 158.85,-128.16 158.85,-128.16 155.62,-128.97 158.3,-124.59 151.41,-130.02"/>
<ellipse fill="none" stroke="black" cx="146.64" cy="-131.21" rx="3.2" ry="3.2"/>
</g>
<!-- fees -->
<g id="node5" class="node">
<title>fees</title>
<g id="a_node5"><a xlink:href="../../tables/fees.html" xlink:title="fees" target="_top">
<polygon fill="#ffffff" stroke="none" points="12,-37 12,-139 97,-139 97,-37 12,-37"/>
<polygon fill="#f5f5f5" stroke="none" points="12,-117 12,-139 97,-139 97,-117 12,-117"/>
<polygon fill="none" stroke="black" points="12,-117 12,-139 97,-139 97,-117 12,-117"/>
<text text-anchor="start" x="16.12" y="-124.55" font-family="Helvetica,sans-Serif" font-weight="bold" font-size="11.00">fees</text>
<text text-anchor="start" x="62.75" y="-123.55" font-family="Helvetica,sans-Serif" font-size="11.00">[table]</text>
<polygon fill="none" stroke="black" points="12,-95 12,-117 97,-117 97,-95 12,-95"/>
<image xlink:href="../../images/primaryKeys.png" width="11px" height="12px" preserveAspectRatio="xMinYMin meet" x="17" y="-112"/>
<text text-anchor="start" x="32" y="-101.55" font-family="Helvetica,sans-Serif" font-size="11.00">id</text>
<polygon fill="#ffffff" stroke="none" points="12,-73 12,-95 97,-95 97,-73 12,-73"/>
<polygon fill="none" stroke="black" points="12,-73 12,-95 97,-95 97,-73 12,-73"/>
<text text-anchor="start" x="32" y="-79.55" font-family="Helvetica,sans-Serif" font-size="11.00">name</text>
<polygon fill="none" stroke="black" points="12,-55 12,-73 97,-73 97,-55 12,-55"/>
<text text-anchor="start" x="15" y="-59.55" font-family="Helvetica,sans-Serif" font-size="11.00">...</text>
<polygon fill="#ffffff" stroke="none" points="12,-37 12,-55 31,-55 31,-37 12,-37"/>
<polygon fill="none" stroke="black" points="12,-37 12,-55 31,-55 31,-37 12,-37"/>
<text text-anchor="start" x="15" y="-41.55" font-family="Helvetica,sans-Serif" font-size="11.00"> &#160;</text>
<polygon fill="#ffffff" stroke="none" points="31,-37 31,-55 72,-55 72,-37 31,-37"/>
<polygon fill="none" stroke="black" points="31,-37 31,-55 72,-55 72,-37 31,-37"/>
<text text-anchor="start" x="36.75" y="-41.55" font-family="Helvetica,sans-Serif" font-size="11.00">7 rows</text>
<polygon fill="#ffffff" stroke="none" points="72,-37 72,-55 97,-55 97,-37 72,-37"/>
<polygon fill="none" stroke="black" points="72,-37 72,-55 97,-55 97,-37 72,-37"/>
<text text-anchor="start" x="78.25" y="-41.55" font-family="Helvetica,sans-Serif" font-size="11.00">1 &gt;</text>
</a>
</g>
</g>
<!-- areas&#45;&gt;fees -->
<g id="edge2" class="edge">
<title>areas:w&#45;&gt;fees:e</title>
<path fill="none" stroke="black" d="M144.08,-106C128.2,-106 119.35,-106 98,-106"/>
<polygon fill="black" stroke="black" points="151.17,-106 159.17,-109.6 155.5,-106 158.83,-106 158.83,-106 158.83,-106 155.5,-106 159.17,-102.4 151.17,-106"/>
<ellipse fill="none" stroke="black" cx="146.25" cy="-106" rx="3.2" ry="3.2"/>
</g>
</g>
</svg>
