<?xml version="1.0" encoding="UTF-8" standalone="no"?>
<!DOCTYPE svg PUBLIC "-//W3C//DTD SVG 1.1//EN"
 "http://www.w3.org/Graphics/SVG/1.1/DTD/svg11.dtd">
<!-- Generated by graphviz version 12.0.0 (20240704.0754)
 -->
<!-- Title: orphans Pages: 1 -->
<svg width="263pt" height="345pt"
 viewBox="0.00 0.00 263.00 345.00" xmlns="http://www.w3.org/2000/svg" xmlns:xlink="http://www.w3.org/1999/xlink">
<g id="graph0" class="graph" transform="scale(1 1) rotate(0) translate(4 341)">
<title>orphans</title>
<polygon fill="#ffffff" stroke="none" points="-4,4 -4,-341 259,-341 259,4 -4,4"/>
<!-- __drizzle_migrations -->
<g id="node1" class="node">
<title>__drizzle_migrations</title>
<g id="a_node1"><a xlink:href="../../tables/__drizzle_migrations.html" xlink:title="__drizzle_migrations" target="_top">
<polygon fill="#ffffff" stroke="none" points="8,-4 8,-114 247,-114 247,-4 8,-4"/>
<polygon fill="#f5f5f5" stroke="none" points="10,-90 10,-112 245,-112 245,-90 10,-90"/>
<polygon fill="none" stroke="black" points="10,-90 10,-112 245,-112 245,-90 10,-90"/>
<text text-anchor="start" x="15" y="-97.55" font-family="Helvetica,sans-Serif" font-weight="bold" font-size="11.00">__drizzle_migrations</text>
<text text-anchor="start" x="210.75" y="-96.55" font-family="Helvetica,sans-Serif" font-size="11.00">[table]</text>
<polygon fill="none" stroke="black" points="10,-68 10,-90 149,-90 149,-68 10,-68"/>
<image xlink:href="../../images/primaryKeys.png" width="11px" height="12px" preserveAspectRatio="xMinYMin meet" x="15" y="-85"/>
<text text-anchor="start" x="30" y="-74.55" font-family="Helvetica,sans-Serif" font-size="11.00">id</text>
<polygon fill="none" stroke="black" points="149,-68 149,-90 245,-90 245,-68 149,-68"/>
<text text-anchor="start" x="152" y="-74.55" font-family="Helvetica,sans-Serif" font-size="11.00">bigint unsigned[20]</text>
<polygon fill="none" stroke="black" points="10,-46 10,-68 149,-68 149,-46 10,-46"/>
<text text-anchor="start" x="30" y="-52.55" font-family="Helvetica,sans-Serif" font-size="11.00">hash</text>
<polygon fill="none" stroke="black" points="149,-46 149,-68 245,-68 245,-46 149,-46"/>
<text text-anchor="start" x="152" y="-52.55" font-family="Helvetica,sans-Serif" font-size="11.00">text[65535]</text>
<polygon fill="none" stroke="black" points="10,-24 10,-46 149,-46 149,-24 10,-24"/>
<text text-anchor="start" x="30" y="-30.55" font-family="Helvetica,sans-Serif" font-size="11.00">created_at</text>
<polygon fill="none" stroke="black" points="149,-24 149,-46 245,-46 245,-24 149,-24"/>
<text text-anchor="start" x="152" y="-30.55" font-family="Helvetica,sans-Serif" font-size="11.00">bigint[19]</text>
<polygon fill="#ffffff" stroke="none" points="10,-6 10,-24 71,-24 71,-6 10,-6"/>
<polygon fill="none" stroke="black" points="10,-6 10,-24 71,-24 71,-6 10,-6"/>
<text text-anchor="start" x="13" y="-10.55" font-family="Helvetica,sans-Serif" font-size="11.00">&lt; 0</text>
<polygon fill="#ffffff" stroke="none" points="71,-6 71,-24 149,-24 149,-6 71,-6"/>
<polygon fill="none" stroke="black" points="71,-6 71,-24 149,-24 149,-6 71,-6"/>
<text text-anchor="start" x="113.75" y="-10.55" font-family="Helvetica,sans-Serif" font-size="11.00">0 rows</text>
<polygon fill="#ffffff" stroke="none" points="149,-6 149,-24 245,-24 245,-6 149,-6"/>
<polygon fill="none" stroke="black" points="149,-6 149,-24 245,-24 245,-6 149,-6"/>
<text text-anchor="start" x="226.25" y="-10.55" font-family="Helvetica,sans-Serif" font-size="11.00">0 &gt;</text>
<polygon fill="none" stroke="black" stroke-width="2" points="9,-5 9,-113 246,-113 246,-5 9,-5"/>
</a>
</g>
</g>
<!-- admins -->
<g id="node2" class="node">
<title>admins</title>
<g id="a_node2"><a xlink:href="../../tables/admins.html" xlink:title="admins" target="_top">
<polygon fill="#ffffff" stroke="none" points="38.5,-135 38.5,-333 216.5,-333 216.5,-135 38.5,-135"/>
<polygon fill="#f5f5f5" stroke="none" points="40.5,-309 40.5,-331 214.5,-331 214.5,-309 40.5,-309"/>
<polygon fill="none" stroke="black" points="40.5,-309 40.5,-331 214.5,-331 214.5,-309 40.5,-309"/>
<text text-anchor="start" x="45.38" y="-316.55" font-family="Helvetica,sans-Serif" font-weight="bold" font-size="11.00">admins</text>
<text text-anchor="start" x="180.25" y="-315.55" font-family="Helvetica,sans-Serif" font-size="11.00">[table]</text>
<polygon fill="none" stroke="black" points="40.5,-287 40.5,-309 141.5,-309 141.5,-287 40.5,-287"/>
<image xlink:href="../../images/primaryKeys.png" width="11px" height="12px" preserveAspectRatio="xMinYMin meet" x="45.5" y="-304"/>
<text text-anchor="start" x="60.5" y="-293.55" font-family="Helvetica,sans-Serif" font-size="11.00">id</text>
<polygon fill="none" stroke="black" points="141.5,-287 141.5,-309 214.5,-309 214.5,-287 141.5,-287"/>
<text text-anchor="start" x="144.5" y="-293.55" font-family="Helvetica,sans-Serif" font-size="11.00">bigint[19]</text>
<polygon fill="#ffffff" stroke="none" points="40.5,-265 40.5,-287 141.5,-287 141.5,-265 40.5,-265"/>
<polygon fill="none" stroke="black" points="40.5,-265 40.5,-287 141.5,-287 141.5,-265 40.5,-265"/>
<text text-anchor="start" x="60.5" y="-271.55" font-family="Helvetica,sans-Serif" font-size="11.00">name</text>
<polygon fill="none" stroke="black" points="141.5,-265 141.5,-287 214.5,-287 214.5,-265 141.5,-265"/>
<text text-anchor="start" x="144.5" y="-271.55" font-family="Helvetica,sans-Serif" font-size="11.00">varchar[50]</text>
<polygon fill="#ffffff" stroke="none" points="40.5,-243 40.5,-265 141.5,-265 141.5,-243 40.5,-243"/>
<polygon fill="none" stroke="black" points="40.5,-243 40.5,-265 141.5,-265 141.5,-243 40.5,-243"/>
<text text-anchor="start" x="60.5" y="-249.55" font-family="Helvetica,sans-Serif" font-size="11.00">email</text>
<polygon fill="none" stroke="black" points="141.5,-243 141.5,-265 214.5,-265 214.5,-243 141.5,-243"/>
<text text-anchor="start" x="144.5" y="-249.55" font-family="Helvetica,sans-Serif" font-size="11.00">varchar[50]</text>
<polygon fill="none" stroke="black" points="40.5,-221 40.5,-243 141.5,-243 141.5,-221 40.5,-221"/>
<text text-anchor="start" x="60.5" y="-227.55" font-family="Helvetica,sans-Serif" font-size="11.00">email_verified</text>
<polygon fill="none" stroke="black" points="141.5,-221 141.5,-243 214.5,-243 214.5,-221 141.5,-221"/>
<text text-anchor="start" x="144.5" y="-227.55" font-family="Helvetica,sans-Serif" font-size="11.00">varchar[50]</text>
<polygon fill="none" stroke="black" points="40.5,-199 40.5,-221 141.5,-221 141.5,-199 40.5,-199"/>
<text text-anchor="start" x="60.5" y="-205.55" font-family="Helvetica,sans-Serif" font-size="11.00">password</text>
<polygon fill="none" stroke="black" points="141.5,-199 141.5,-221 214.5,-221 214.5,-199 141.5,-199"/>
<text text-anchor="start" x="144.5" y="-205.55" font-family="Helvetica,sans-Serif" font-size="11.00">varchar[255]</text>
<polygon fill="none" stroke="black" points="40.5,-177 40.5,-199 141.5,-199 141.5,-177 40.5,-177"/>
<text text-anchor="start" x="60.5" y="-183.55" font-family="Helvetica,sans-Serif" font-size="11.00">created_at</text>
<polygon fill="none" stroke="black" points="141.5,-177 141.5,-199 214.5,-199 214.5,-177 141.5,-177"/>
<text text-anchor="start" x="144.25" y="-183.55" font-family="Helvetica,sans-Serif" font-size="11.00">timestamp[19]</text>
<polygon fill="none" stroke="black" points="40.5,-155 40.5,-177 141.5,-177 141.5,-155 40.5,-155"/>
<text text-anchor="start" x="60.5" y="-161.55" font-family="Helvetica,sans-Serif" font-size="11.00">updated_at</text>
<polygon fill="none" stroke="black" points="141.5,-155 141.5,-177 214.5,-177 214.5,-155 141.5,-155"/>
<text text-anchor="start" x="144.25" y="-161.55" font-family="Helvetica,sans-Serif" font-size="11.00">timestamp[19]</text>
<polygon fill="#ffffff" stroke="none" points="40.5,-137 40.5,-155 82.5,-155 82.5,-137 40.5,-137"/>
<polygon fill="none" stroke="black" points="40.5,-137 40.5,-155 82.5,-155 82.5,-137 40.5,-137"/>
<text text-anchor="start" x="43.5" y="-141.55" font-family="Helvetica,sans-Serif" font-size="11.00">&lt; 0</text>
<polygon fill="#ffffff" stroke="none" points="82.5,-137 82.5,-155 141.5,-155 141.5,-137 82.5,-137"/>
<polygon fill="none" stroke="black" points="82.5,-137 82.5,-155 141.5,-155 141.5,-137 82.5,-137"/>
<text text-anchor="start" x="106.25" y="-141.55" font-family="Helvetica,sans-Serif" font-size="11.00">7 rows</text>
<polygon fill="#ffffff" stroke="none" points="141.5,-137 141.5,-155 214.5,-155 214.5,-137 141.5,-137"/>
<polygon fill="none" stroke="black" points="141.5,-137 141.5,-155 214.5,-155 214.5,-137 141.5,-137"/>
<text text-anchor="start" x="195.75" y="-141.55" font-family="Helvetica,sans-Serif" font-size="11.00">0 &gt;</text>
<polygon fill="none" stroke="black" stroke-width="2" points="39.5,-136 39.5,-332 215.5,-332 215.5,-136 39.5,-136"/>
</a>
</g>
</g>
</g>
</svg>
